{"glyphs":{"0":{"ha":771,"x_min":53,"x_max":719,"o":"m 375 -16 q 138 108 223 -16 q 53 467 53 232 q 142 857 53 724 q 398 989 231 989 q 719 490 719 989 q 628 114 719 243 q 375 -16 538 -16 m 391 863 q 214 473 214 863 q 387 109 214 109 q 558 479 558 109 q 391 863 558 863 z "},"1":{"ha":559,"x_min":56,"x_max":417,"o":"m 417 994 l 417 0 l 260 0 l 260 802 q 168 750 217 771 q 56 712 119 728 l 56 846 q 132 873 95 859 q 204 905 168 888 q 276 945 239 923 q 351 994 312 966 l 417 994 z "},"2":{"ha":771,"x_min":66,"x_max":677,"o":"m 677 0 l 66 0 l 66 75 q 79 162 66 121 q 114 238 92 202 q 165 305 136 273 q 227 366 194 336 q 295 423 260 395 q 363 478 330 450 q 420 530 394 505 q 464 583 446 555 q 492 640 482 610 q 503 705 503 670 q 491 773 503 744 q 457 821 479 802 q 407 850 436 840 q 343 860 378 860 q 222 832 283 860 q 103 749 160 804 l 103 900 q 163 939 133 922 q 227 967 194 956 q 295 983 259 978 q 372 989 331 989 q 491 971 437 989 q 583 921 545 954 q 641 837 621 887 q 662 722 662 787 q 647 615 662 663 q 606 528 633 568 q 541 450 579 487 q 456 375 503 414 q 378 313 417 343 q 308 254 339 283 q 257 196 277 225 q 238 138 238 168 l 238 135 l 677 135 l 677 0 z "},"3":{"ha":771,"x_min":83,"x_max":671,"o":"m 83 36 l 83 184 q 298 109 178 109 q 453 153 395 109 q 511 272 511 197 q 258 437 511 437 l 182 437 l 182 564 l 254 564 q 479 720 479 564 q 304 863 479 863 q 120 793 206 863 l 120 933 q 354 989 219 989 q 562 924 484 989 q 640 757 640 859 q 444 510 640 565 l 444 507 q 610 434 549 497 q 671 275 671 370 q 573 64 671 144 q 314 -16 475 -16 q 83 36 170 -16 z "},"4":{"ha":800,"x_min":35,"x_max":772,"o":"m 628 972 l 628 345 l 772 345 l 772 214 l 628 214 l 628 0 l 475 0 l 475 214 l 35 214 l 35 346 q 158 491 95 413 q 278 651 220 570 q 386 815 336 733 q 469 972 435 897 l 628 972 m 475 345 l 475 753 q 329 521 401 620 q 194 345 257 422 l 475 345 z "},"5":{"ha":771,"x_min":105,"x_max":680,"o":"m 105 22 l 105 174 q 299 109 201 109 q 458 160 398 109 q 519 294 519 210 q 457 423 519 377 q 281 469 396 469 q 122 461 242 469 l 157 972 l 635 972 l 635 838 l 288 838 l 271 595 q 356 597 318 597 q 595 518 511 597 q 680 301 680 439 q 583 70 680 157 q 317 -18 486 -18 q 105 22 175 -18 z "},"6":{"ha":775,"x_min":69,"x_max":722,"o":"m 722 313 q 698 179 722 239 q 631 75 674 119 q 530 7 589 31 q 403 -17 471 -17 q 268 12 330 -17 q 162 96 207 40 q 94 236 118 153 q 69 431 69 320 q 101 670 69 566 q 190 845 134 774 q 322 952 246 916 q 486 989 398 989 q 586 981 541 989 q 659 961 631 974 l 659 819 q 585 849 624 837 q 494 861 545 861 q 389 838 437 861 q 306 771 341 815 q 251 661 271 726 q 231 510 231 595 l 235 510 q 319 586 266 558 q 444 614 372 614 q 559 593 508 614 q 647 533 610 572 q 703 438 683 494 q 722 313 722 382 m 564 300 q 554 376 564 342 q 524 436 544 411 q 474 474 504 460 q 403 488 444 488 q 331 473 362 488 q 279 435 300 458 q 248 380 258 411 q 237 318 237 350 q 247 247 237 283 q 277 181 257 211 q 329 132 298 151 q 404 113 361 113 q 473 127 443 113 q 523 166 503 141 q 553 225 543 191 q 564 300 564 260 z "},"7":{"ha":745,"x_min":47,"x_max":697,"o":"m 697 894 q 582 672 636 782 q 484 452 528 563 q 407 230 439 342 q 357 0 374 117 l 192 0 q 238 209 208 104 q 309 417 269 313 q 400 626 350 521 q 508 838 451 731 l 47 838 l 47 972 l 697 972 l 697 894 z "},"8":{"ha":771,"x_min":62,"x_max":710,"o":"m 62 271 q 72 353 62 313 q 104 425 83 392 q 157 485 125 458 q 231 528 189 511 q 131 618 168 563 q 94 741 94 673 q 116 840 94 794 q 177 918 138 885 q 269 970 216 951 q 384 989 321 989 q 500 970 447 989 q 592 918 553 951 q 653 839 631 884 q 675 741 675 793 q 637 618 675 673 q 538 528 600 563 q 613 485 581 511 q 667 426 645 459 q 699 353 688 393 q 710 271 710 314 q 686 155 710 208 q 620 64 663 102 q 517 5 577 26 q 386 -16 458 -16 q 255 5 315 -16 q 153 64 196 26 q 86 155 110 102 q 62 271 62 208 m 215 285 q 227 210 215 243 q 262 154 239 177 q 316 119 284 131 q 386 106 347 106 q 454 119 423 106 q 508 155 486 132 q 544 211 531 178 q 557 285 557 244 q 545 355 557 322 q 510 412 532 388 q 456 451 488 437 q 386 465 425 465 q 318 452 349 465 q 263 415 286 439 q 228 357 241 391 q 215 285 215 324 m 248 724 q 259 668 248 694 q 288 622 270 642 q 331 592 307 603 q 385 581 356 581 q 438 592 413 581 q 481 623 463 604 q 511 668 500 642 q 522 724 522 694 q 511 781 522 755 q 482 827 500 808 q 439 857 464 846 q 385 867 414 867 q 329 856 354 867 q 286 825 304 845 q 258 780 268 806 q 248 724 248 753 z "},"9":{"ha":775,"x_min":58,"x_max":710,"o":"m 710 539 q 679 288 710 393 q 592 115 647 183 q 462 15 536 47 q 302 -17 388 -17 q 247 -14 275 -17 q 193 -5 218 -10 q 147 7 168 1 q 113 20 126 14 l 113 161 q 148 143 127 153 q 194 127 169 134 q 245 116 218 120 q 297 111 272 111 q 402 134 355 111 q 482 200 449 156 q 533 310 515 244 q 551 461 551 375 l 549 461 q 516 420 536 439 q 471 386 496 401 q 413 363 445 372 q 346 354 382 354 q 232 375 285 354 q 141 436 180 397 q 80 532 102 475 q 58 657 58 588 q 83 794 58 733 q 153 899 109 856 q 256 965 197 942 q 386 989 316 989 q 510 964 452 989 q 613 885 569 939 q 684 746 658 831 q 710 539 710 661 m 546 643 q 533 732 546 692 q 498 800 521 772 q 445 844 476 829 q 378 860 414 860 q 316 847 345 860 q 264 809 286 833 q 229 750 242 785 q 216 673 216 715 q 229 592 216 627 q 264 533 241 557 q 318 496 286 509 q 387 484 349 484 q 450 496 421 484 q 500 530 479 509 q 534 581 522 551 q 546 643 546 610 z "},"\r":{"ha":104,"x_min":0,"x_max":0,"o":""}," ":{"ha":382,"x_min":0,"x_max":0,"o":""},"!":{"ha":422,"x_min":113,"x_max":308,"o":"m 286 972 l 273 286 l 144 286 l 127 972 l 286 972 m 211 -14 q 142 13 170 -14 q 113 76 113 39 q 142 142 113 115 q 211 169 170 169 q 279 142 250 169 q 308 76 308 115 q 279 13 308 39 q 211 -14 250 -14 z "},"\"":{"ha":608,"x_min":120,"x_max":488,"o":"m 243 978 l 243 675 l 120 675 l 120 978 l 243 978 m 488 978 l 488 675 l 363 675 l 363 978 l 488 978 z "},"#":{"ha":821,"x_min":23,"x_max":793,"o":"m 793 711 l 772 616 l 618 616 l 579 429 l 747 429 l 724 334 l 559 334 l 504 83 l 396 83 l 450 334 l 286 334 l 233 83 l 125 83 l 178 334 l 23 334 l 42 429 l 199 429 l 237 616 l 71 616 l 91 711 l 256 711 l 311 972 l 420 972 l 366 711 l 530 711 l 586 972 l 693 972 l 639 711 l 793 711 m 511 616 l 346 616 l 305 429 l 471 429 l 511 616 z "},"$":{"ha":771,"x_min":98,"x_max":694,"o":"m 435 5 l 435 -142 l 352 -142 l 352 0 q 107 58 201 0 l 107 210 q 219 149 149 174 q 352 125 290 125 l 352 427 q 145 563 192 500 q 98 711 98 625 q 170 885 98 812 q 352 974 241 959 l 352 1096 l 435 1096 l 435 977 q 632 939 578 972 l 632 793 q 435 852 558 848 l 435 539 q 640 405 585 470 q 694 258 694 340 q 626 91 694 158 q 435 5 557 24 m 352 578 l 352 848 q 271 805 301 838 q 241 724 241 772 q 266 642 241 674 q 352 578 290 610 m 435 390 l 435 129 q 551 249 551 153 q 435 390 551 329 z "},"%":{"ha":1167,"x_min":57,"x_max":1091,"o":"m 282 484 q 118 550 179 484 q 57 727 57 616 q 122 917 57 848 q 296 987 186 987 q 461 922 403 987 q 520 741 520 858 q 454 554 520 625 q 282 484 389 484 m 292 892 q 204 849 236 892 q 172 732 172 806 q 203 618 172 659 q 290 577 235 577 q 376 620 345 577 q 407 737 407 662 q 376 851 407 810 q 292 892 345 892 m 941 972 l 317 -7 l 220 -7 l 843 972 l 941 972 m 853 -15 q 689 51 750 -15 q 628 228 628 117 q 693 418 628 349 q 867 488 758 488 q 1033 423 974 488 q 1091 242 1091 359 q 1025 55 1091 125 q 853 -15 960 -15 m 863 393 q 775 350 807 393 q 743 233 743 307 q 774 119 743 159 q 861 78 806 78 q 947 120 916 78 q 978 238 978 163 q 947 352 978 311 q 863 393 916 393 z "},"&":{"ha":994,"x_min":68,"x_max":986,"o":"m 786 -1 l 697 94 q 632 47 668 68 q 557 12 597 26 q 475 -9 517 -2 q 389 -17 432 -17 q 256 2 315 -17 q 156 56 197 21 q 91 140 114 91 q 68 248 68 189 q 291 530 68 416 q 189 755 189 657 q 209 849 189 806 q 264 923 229 892 q 350 971 300 954 q 459 989 400 989 q 561 973 515 989 q 640 930 607 958 q 690 864 672 902 q 707 781 707 825 q 696 701 707 736 q 660 634 685 665 q 595 574 635 603 q 496 517 555 546 q 605 403 550 460 q 715 288 659 346 q 742 337 730 310 q 762 394 753 364 q 775 456 770 424 q 780 518 780 488 l 918 518 q 800 192 918 332 q 877 112 830 159 q 986 -1 923 64 l 786 -1 m 566 768 q 557 810 566 791 q 534 845 549 830 q 501 868 520 859 q 460 876 482 876 q 409 868 432 876 q 369 843 385 859 q 343 806 352 827 q 334 758 334 784 q 422 596 334 695 q 566 768 566 669 m 615 182 q 367 446 536 264 q 259 363 292 408 q 227 260 227 319 q 240 196 227 224 q 276 146 253 167 q 331 115 299 126 q 399 104 362 104 q 615 182 526 104 z "},"'":{"ha":359,"x_min":117,"x_max":241,"o":"m 241 978 l 241 675 l 117 675 l 117 978 l 241 978 z "},"(":{"ha":461,"x_min":100,"x_max":448,"o":"m 448 -221 l 315 -221 q 100 371 100 19 q 315 972 100 724 l 448 972 q 238 372 238 715 q 448 -221 238 33 z "},")":{"ha":461,"x_min":14,"x_max":363,"o":"m 147 -221 l 14 -221 q 224 372 224 33 q 14 972 224 715 l 148 972 q 363 371 363 724 q 147 -221 363 19 z "},"*":{"ha":603,"x_min":50,"x_max":555,"o":"m 555 733 l 369 701 l 499 546 l 403 479 l 302 656 l 202 479 l 105 546 l 236 701 l 50 733 l 88 842 l 262 772 l 241 972 l 364 972 l 342 772 l 517 842 l 555 733 z "},"+":{"ha":964,"x_min":159,"x_max":807,"o":"m 807 346 l 539 346 l 539 78 l 427 78 l 427 346 l 159 346 l 159 458 l 427 458 l 427 726 l 539 726 l 539 458 l 807 458 l 807 346 z "},",":{"ha":335,"x_min":26,"x_max":250,"o":"m 250 162 l 144 -176 l 26 -176 l 101 162 l 250 162 z "},"-":{"ha":558,"x_min":98,"x_max":468,"o":"m 468 321 l 98 321 l 98 437 l 468 437 l 468 321 z "},".":{"ha":335,"x_min":70,"x_max":267,"o":"m 168 -15 q 98 12 127 -15 q 70 76 70 39 q 98 141 70 114 q 168 168 127 168 q 238 141 209 168 q 267 76 267 114 q 238 12 267 39 q 168 -15 209 -15 z "},"/":{"ha":574,"x_min":-25,"x_max":588,"o":"m 588 972 l 118 -161 l -25 -161 l 443 972 l 588 972 z "},":":{"ha":335,"x_min":70,"x_max":267,"o":"m 168 -15 q 98 12 127 -15 q 70 76 70 39 q 98 141 70 114 q 168 168 127 168 q 238 141 209 168 q 267 76 267 114 q 238 12 267 39 q 168 -15 209 -15 m 168 522 q 98 548 127 522 q 70 612 70 575 q 98 677 70 650 q 168 705 127 705 q 238 677 209 705 q 267 612 267 650 q 238 548 267 575 q 168 522 209 522 z "},";":{"ha":335,"x_min":26,"x_max":262,"o":"m 168 523 q 100 550 127 523 q 73 616 73 578 q 100 680 73 654 q 168 707 127 707 q 234 680 206 707 q 262 616 262 654 q 234 550 262 578 q 168 523 206 523 m 250 162 l 146 -179 l 26 -179 l 100 162 l 250 162 z "},"<":{"ha":964,"x_min":180,"x_max":786,"o":"m 786 66 l 180 357 l 180 429 l 786 745 l 786 616 l 343 397 l 343 394 l 786 195 l 786 66 z "},"=":{"ha":964,"x_min":159,"x_max":807,"o":"m 807 491 l 159 491 l 159 603 l 807 603 l 807 491 m 807 200 l 159 200 l 159 311 l 807 311 l 807 200 z "},">":{"ha":964,"x_min":180,"x_max":786,"o":"m 786 361 l 180 71 l 180 199 l 624 396 l 624 400 l 180 620 l 180 749 l 786 433 l 786 361 z "},"?":{"ha":616,"x_min":67,"x_max":566,"o":"m 205 275 q 195 319 199 292 q 190 372 190 346 q 207 447 190 414 q 248 510 223 481 q 301 566 273 539 q 355 619 330 593 q 396 673 380 645 q 413 736 413 702 q 401 789 413 766 q 367 827 389 812 q 318 850 346 842 q 260 857 291 857 q 67 767 159 857 l 67 924 q 298 989 178 989 q 401 975 353 989 q 487 932 450 960 q 545 863 524 905 q 566 767 566 822 q 548 674 566 715 q 504 599 530 633 q 446 538 477 565 q 388 486 415 512 q 344 431 361 459 q 326 368 326 402 q 334 315 326 338 q 349 275 341 291 l 205 275 m 283 -12 q 214 14 244 -12 q 186 78 186 40 q 214 142 186 117 q 283 169 243 169 q 351 142 321 169 q 379 78 379 117 q 351 14 379 40 q 283 -12 321 -12 z "},"@":{"ha":1326,"x_min":105,"x_max":1223,"o":"m 778 269 l 774 269 q 583 123 726 123 q 437 192 492 123 q 381 375 381 260 q 457 629 381 528 q 659 730 534 730 q 743 704 706 730 q 791 641 781 677 l 793 641 q 804 719 795 660 l 916 719 q 884 354 884 361 q 954 220 884 220 q 1060 295 1018 220 q 1102 489 1102 370 q 988 777 1102 665 q 673 888 875 888 q 353 753 480 888 q 227 416 227 618 q 349 93 227 216 q 677 -30 471 -30 q 956 26 840 -30 l 956 -79 q 660 -129 838 -129 q 258 20 410 -129 q 105 411 105 170 q 267 823 105 659 q 679 986 428 986 q 1068 849 914 986 q 1223 492 1223 712 q 1139 227 1223 330 q 935 123 1055 123 q 778 269 779 123 m 670 633 q 550 560 595 633 q 504 378 504 487 q 535 262 504 304 q 617 220 566 220 q 735 297 692 220 q 779 500 779 374 q 670 633 779 633 z "},"A":{"ha":932,"x_min":12,"x_max":919,"o":"m 919 0 l 742 0 l 654 248 l 272 248 l 188 0 l 12 0 l 376 972 l 557 972 l 919 0 m 612 379 l 477 767 q 464 828 471 786 l 461 828 q 448 767 455 789 l 314 379 l 612 379 z "},"B":{"ha":839,"x_min":120,"x_max":779,"o":"m 120 0 l 120 972 l 429 972 q 652 911 570 972 q 734 750 734 849 q 688 606 734 667 q 558 519 641 545 l 558 517 q 719 443 659 505 q 779 279 779 380 q 680 77 779 155 q 432 0 582 0 l 120 0 m 281 843 l 281 566 l 385 566 q 517 606 469 566 q 565 718 565 646 q 398 843 565 843 l 281 843 m 281 437 l 281 129 l 418 129 q 558 171 509 129 q 607 286 607 212 q 397 437 607 437 l 281 437 z "},"C":{"ha":863,"x_min":58,"x_max":798,"o":"m 798 41 q 525 -16 688 -16 q 186 117 313 -16 q 58 468 58 251 q 202 845 58 701 q 564 989 345 989 q 798 949 705 989 l 798 789 q 581 847 700 847 q 325 746 423 847 q 227 476 227 645 q 319 220 227 315 q 559 125 410 125 q 798 190 697 125 l 798 41 z "},"D":{"ha":996,"x_min":120,"x_max":939,"o":"m 120 0 l 120 972 l 401 972 q 939 498 939 972 q 789 137 939 273 q 389 0 640 0 l 120 0 m 281 836 l 281 136 l 410 136 q 674 230 580 136 q 769 494 769 323 q 416 836 769 836 l 281 836 z "},"E":{"ha":719,"x_min":120,"x_max":666,"o":"m 666 0 l 120 0 l 120 972 l 644 972 l 644 836 l 281 836 l 281 560 l 616 560 l 616 424 l 281 424 l 281 136 l 666 136 l 666 0 z "},"F":{"ha":698,"x_min":120,"x_max":645,"o":"m 645 836 l 281 836 l 281 543 l 616 543 l 616 407 l 281 407 l 281 0 l 120 0 l 120 972 l 645 972 l 645 836 z "},"G":{"ha":968,"x_min":58,"x_max":879,"o":"m 879 66 q 541 -16 727 -16 q 191 118 325 -16 q 58 473 58 252 q 204 844 58 699 q 575 989 350 989 q 848 941 737 989 l 848 775 q 581 850 736 850 q 327 747 426 850 q 227 482 227 645 q 313 219 227 315 q 545 123 398 123 q 718 161 645 123 l 718 393 l 513 393 l 513 528 l 879 528 l 879 66 z "},"H":{"ha":1021,"x_min":120,"x_max":901,"o":"m 901 0 l 739 0 l 739 422 l 281 422 l 281 0 l 120 0 l 120 972 l 281 972 l 281 564 l 739 564 l 739 972 l 901 972 l 901 0 z "},"I":{"ha":405,"x_min":119,"x_max":286,"o":"m 286 0 l 119 0 l 119 972 l 286 972 l 286 0 z "},"J":{"ha":551,"x_min":17,"x_max":439,"o":"m 439 349 q 354 80 439 176 q 126 -16 269 -16 q 17 -1 60 -16 l 17 151 q 117 125 56 125 q 278 374 278 125 l 278 972 l 439 972 l 439 349 z "},"K":{"ha":848,"x_min":120,"x_max":856,"o":"m 856 0 l 646 0 l 307 445 q 284 479 288 470 l 281 479 l 281 0 l 120 0 l 120 972 l 281 972 l 281 515 l 284 515 q 307 549 292 530 l 633 972 l 827 972 l 445 506 l 856 0 z "},"L":{"ha":679,"x_min":120,"x_max":659,"o":"m 659 0 l 120 0 l 120 972 l 281 972 l 281 136 l 659 136 l 659 0 z "},"M":{"ha":1284,"x_min":120,"x_max":1164,"o":"m 1164 0 l 1004 0 l 1004 629 q 1014 819 1004 707 l 1011 819 q 985 727 996 755 l 694 0 l 583 0 l 292 722 q 267 819 280 753 l 264 819 q 269 628 269 760 l 269 0 l 120 0 l 120 972 l 347 972 l 603 325 q 641 214 632 250 l 644 214 q 685 328 669 290 l 945 972 l 1164 972 l 1164 0 z "},"N":{"ha":1065,"x_min":120,"x_max":945,"o":"m 945 0 l 768 0 l 304 715 q 275 771 286 742 l 271 771 q 276 637 276 740 l 276 0 l 120 0 l 120 972 l 308 972 l 757 275 q 793 215 785 231 l 796 215 q 789 346 789 254 l 789 972 l 945 972 l 945 0 z "},"O":{"ha":1050,"x_min":58,"x_max":991,"o":"m 521 -16 q 184 120 311 -16 q 58 475 58 256 q 186 849 58 709 q 536 989 315 989 q 866 853 741 989 q 991 498 991 718 q 863 122 991 260 q 521 -16 735 -16 m 528 847 q 311 747 395 847 q 227 485 227 648 q 309 224 227 323 q 522 125 390 125 q 742 219 661 125 q 823 483 823 313 q 744 752 823 657 q 528 847 666 847 z "},"P":{"ha":812,"x_min":120,"x_max":767,"o":"m 281 353 l 281 0 l 120 0 l 120 972 l 415 972 q 675 895 583 972 q 767 675 767 817 q 671 443 767 533 q 410 353 574 353 l 281 353 m 281 840 l 281 484 l 385 484 q 543 532 489 484 q 597 668 597 581 q 398 840 597 840 l 281 840 z "},"Q":{"ha":1050,"x_min":58,"x_max":1090,"o":"m 521 -16 q 330 20 416 -16 q 184 120 245 56 q 91 275 124 185 q 58 475 58 366 q 91 686 58 591 q 187 848 125 781 q 338 952 249 916 q 536 989 427 989 q 722 953 638 989 q 866 852 806 917 q 959 697 926 787 q 991 498 991 607 q 943 247 991 355 q 808 73 895 138 l 1090 -131 l 844 -131 l 671 4 q 599 -11 636 -5 q 521 -16 562 -16 m 528 847 q 407 821 462 847 q 311 747 351 795 q 249 633 271 699 q 227 485 227 566 q 249 338 227 404 q 309 224 270 271 q 401 151 347 177 q 522 125 456 125 q 647 149 591 125 q 742 219 703 174 q 802 332 781 265 q 823 483 823 398 q 802 637 823 570 q 744 752 782 705 q 651 823 706 798 q 528 847 597 847 z "},"R":{"ha":865,"x_min":120,"x_max":871,"o":"m 871 0 l 683 0 l 528 260 q 487 322 507 296 q 446 363 467 347 q 401 387 425 380 q 346 395 376 395 l 281 395 l 281 0 l 120 0 l 120 972 l 440 972 q 566 956 509 972 q 667 907 624 940 q 733 825 709 874 q 758 710 758 776 q 742 615 758 659 q 699 539 727 572 q 631 481 671 505 q 542 445 591 458 l 542 442 q 588 409 568 427 q 625 372 608 391 q 660 329 643 353 q 699 273 677 305 l 871 0 m 281 842 l 281 526 l 415 526 q 484 537 452 526 q 538 570 515 549 q 574 623 562 592 q 587 693 587 654 q 543 802 587 763 q 416 842 499 842 l 281 842 z "},"S":{"ha":756,"x_min":75,"x_max":698,"o":"m 75 39 l 75 205 q 129 168 98 184 q 194 141 159 152 q 263 123 229 130 q 327 117 298 117 q 478 151 429 117 q 528 250 528 185 q 512 310 528 284 q 465 356 495 335 q 395 396 435 377 q 309 437 355 416 q 216 490 259 463 q 142 550 174 517 q 93 625 111 583 q 75 722 75 666 q 105 841 75 790 q 187 924 136 891 q 302 973 237 957 q 433 989 366 989 q 656 954 586 989 l 656 795 q 443 854 573 854 q 371 848 407 854 q 308 825 336 841 q 262 785 279 810 q 244 726 244 761 q 258 670 244 694 q 297 627 271 646 q 361 588 323 607 q 448 548 399 570 q 544 492 499 522 q 624 428 589 463 q 678 350 658 393 q 698 252 698 307 q 668 127 698 178 q 588 44 638 76 q 471 -2 537 12 q 332 -16 406 -16 q 272 -13 308 -16 q 199 -2 237 -9 q 129 16 162 5 q 75 39 96 26 z "},"T":{"ha":766,"x_min":24,"x_max":744,"o":"m 744 836 l 465 836 l 465 0 l 303 0 l 303 836 l 24 836 l 24 972 l 744 972 l 744 836 z "},"U":{"ha":977,"x_min":109,"x_max":868,"o":"m 868 393 q 480 -16 868 -16 q 109 378 109 -16 l 109 972 l 270 972 l 270 411 q 492 125 270 125 q 707 401 707 125 l 707 972 l 868 972 l 868 393 z "},"V":{"ha":891,"x_min":9,"x_max":882,"o":"m 882 972 l 533 0 l 353 0 l 9 972 l 186 972 l 426 235 q 444 153 437 199 l 446 153 q 466 236 451 191 l 711 972 l 882 972 z "},"W":{"ha":1341,"x_min":15,"x_max":1326,"o":"m 1326 972 l 1060 0 l 878 0 l 692 680 q 678 775 681 724 l 675 775 q 659 682 672 727 l 473 0 l 287 0 l 15 972 l 192 972 l 368 260 q 382 167 379 216 l 385 167 q 404 260 388 201 l 604 972 l 770 972 l 954 255 q 968 168 964 218 l 971 168 q 987 258 973 202 l 1160 972 l 1326 972 z "},"X":{"ha":860,"x_min":12,"x_max":847,"o":"m 847 0 l 654 0 l 454 357 q 435 403 446 373 l 432 403 q 412 357 426 388 l 206 0 l 12 0 l 330 489 l 37 972 l 235 972 l 410 644 q 441 579 427 612 l 443 579 q 477 647 463 622 l 659 972 l 841 972 l 541 490 l 847 0 z "},"Y":{"ha":802,"x_min":7,"x_max":798,"o":"m 798 972 l 479 353 l 479 0 l 317 0 l 317 350 l 7 972 l 191 972 l 382 555 q 402 499 385 548 l 404 499 q 427 555 410 521 l 627 972 l 798 972 z "},"Z":{"ha":815,"x_min":24,"x_max":783,"o":"m 783 902 l 250 136 l 777 136 l 777 0 l 24 0 l 24 74 l 559 836 l 66 836 l 66 972 l 783 972 l 783 902 z "},"[":{"ha":461,"x_min":141,"x_max":421,"o":"m 421 -221 l 141 -221 l 141 972 l 421 972 l 421 867 l 275 867 l 275 -115 l 421 -115 l 421 -221 z "},"\\":{"ha":562,"x_min":-9,"x_max":589,"o":"m 589 -163 l 450 -163 l -9 972 l 134 972 l 589 -163 z "},"]":{"ha":461,"x_min":41,"x_max":321,"o":"m 321 -221 l 41 -221 l 41 -115 l 188 -115 l 188 867 l 41 867 l 41 972 l 321 972 l 321 -221 z "},"^":{"ha":964,"x_min":148,"x_max":819,"o":"m 819 419 l 689 419 l 477 829 l 473 829 l 276 419 l 148 419 l 436 989 l 510 989 l 819 419 z "},"_":{"ha":576,"x_min":0,"x_max":576,"o":"m 576 -201 l 0 -201 l 0 -121 l 576 -121 l 576 -201 z "},"`":{"ha":401,"x_min":62,"x_max":357,"o":"m 357 817 l 240 817 l 62 1039 l 208 1039 l 357 817 z "},"a":{"ha":725,"x_min":51,"x_max":635,"o":"m 635 0 l 483 0 l 483 109 l 480 109 q 269 -16 408 -16 q 109 39 167 -16 q 51 186 51 95 q 277 416 51 383 l 484 445 q 342 593 484 593 q 119 508 218 593 l 119 646 q 372 711 229 711 q 635 452 635 711 l 635 0 m 484 341 l 338 321 q 236 288 270 312 q 201 203 201 264 q 233 131 201 159 q 317 103 264 103 q 436 154 389 103 q 484 281 484 204 l 484 341 z "},"b":{"ha":837,"x_min":102,"x_max":779,"o":"m 262 100 l 260 100 l 260 0 l 102 0 l 102 1028 l 260 1028 l 260 572 l 262 572 q 498 711 343 711 q 704 617 630 711 q 779 368 779 524 q 695 89 779 193 q 467 -16 612 -16 q 262 100 332 -16 m 258 376 l 258 290 q 307 161 258 214 q 430 109 355 109 q 567 177 517 109 q 617 367 617 245 q 571 527 617 469 q 445 585 524 585 q 310 526 361 585 q 258 376 258 466 z "},"c":{"ha":653,"x_min":58,"x_max":600,"o":"m 600 32 q 402 -16 516 -16 q 153 80 248 -16 q 58 331 58 177 q 160 607 58 503 q 433 711 262 711 q 600 677 528 711 l 600 531 q 446 585 528 585 q 282 518 346 585 q 218 341 218 450 q 278 171 218 233 q 439 109 338 109 q 600 169 524 109 l 600 32 z "},"d":{"ha":837,"x_min":58,"x_max":734,"o":"m 734 0 l 576 0 l 576 118 l 574 118 q 340 -16 498 -16 q 135 77 212 -16 q 58 331 58 170 q 143 607 58 503 q 370 711 228 711 q 574 598 510 711 l 576 598 l 576 1028 l 734 1028 l 734 0 m 578 317 l 578 408 q 530 534 578 482 q 408 585 482 585 q 269 519 319 585 q 218 337 218 454 q 267 170 218 231 q 397 109 315 109 q 528 168 478 109 q 578 317 578 227 z "},"e":{"ha":738,"x_min":58,"x_max":690,"o":"m 690 304 l 217 304 q 276 156 220 208 q 432 104 333 104 q 636 170 543 104 l 636 43 q 385 -16 541 -16 q 145 78 232 -16 q 58 345 58 173 q 154 609 58 507 q 392 711 250 711 q 612 619 534 711 q 690 365 690 528 l 690 304 m 538 416 q 498 548 538 500 q 390 595 459 595 q 275 545 322 595 q 217 416 228 496 l 538 416 z "},"f":{"ha":479,"x_min":33,"x_max":495,"o":"m 495 900 q 422 918 463 918 q 308 789 308 918 l 308 694 l 469 694 l 469 571 l 309 571 l 309 0 l 151 0 l 151 571 l 33 571 l 33 694 l 151 694 l 151 807 q 223 980 151 917 q 403 1044 295 1044 q 495 1031 461 1044 l 495 900 z "},"g":{"ha":837,"x_min":58,"x_max":734,"o":"m 734 56 q 350 -327 734 -327 q 113 -281 214 -327 l 113 -138 q 330 -203 227 -203 q 577 41 577 -203 l 577 117 l 574 117 q 340 -16 496 -16 q 135 76 213 -16 q 58 325 58 169 q 141 606 58 502 q 370 711 224 711 q 574 598 508 711 l 577 598 l 577 694 l 734 694 l 734 56 m 578 318 l 578 408 q 530 533 578 481 q 409 585 481 585 q 269 519 319 585 q 218 334 218 453 q 267 171 218 232 q 395 109 315 109 q 528 168 477 109 q 578 318 578 227 z "},"h":{"ha":808,"x_min":102,"x_max":720,"o":"m 720 0 l 562 0 l 562 380 q 425 586 562 586 q 308 526 355 586 q 260 374 260 467 l 260 0 l 102 0 l 102 1028 l 260 1028 l 260 579 l 263 579 q 488 711 342 711 q 720 428 720 711 l 720 0 z "},"i":{"ha":363,"x_min":88,"x_max":277,"o":"m 182 840 q 116 865 143 840 q 88 929 88 890 q 116 994 88 968 q 182 1019 143 1019 q 250 994 222 1019 q 277 929 277 968 q 250 866 277 892 q 182 840 222 840 m 260 0 l 102 0 l 102 694 l 260 694 l 260 0 z "},"j":{"ha":363,"x_min":-114,"x_max":277,"o":"m 260 29 q 188 -234 260 -142 q -18 -327 116 -327 q -114 -305 -67 -327 l -114 -170 q -31 -201 -70 -201 q 102 34 102 -201 l 102 694 l 260 694 l 260 29 m 182 840 q 116 865 144 840 q 89 929 89 890 q 116 994 89 968 q 182 1019 144 1019 q 250 994 222 1019 q 277 929 277 968 q 250 866 277 892 q 182 840 222 840 z "},"k":{"ha":729,"x_min":102,"x_max":732,"o":"m 732 0 l 533 0 l 263 334 l 260 334 l 260 0 l 102 0 l 102 1028 l 260 1028 l 260 376 l 263 376 l 518 694 l 707 694 l 420 359 l 732 0 z "},"l":{"ha":363,"x_min":102,"x_max":260,"o":"m 260 0 l 102 0 l 102 1028 l 260 1028 l 260 0 z "},"m":{"ha":1230,"x_min":102,"x_max":1141,"o":"m 1141 0 l 983 0 l 983 378 q 952 536 983 488 q 848 585 922 585 q 744 524 787 585 q 701 376 701 462 l 701 0 l 543 0 l 543 391 q 406 585 543 585 q 301 527 342 585 q 260 376 260 469 l 260 0 l 102 0 l 102 694 l 260 694 l 260 585 l 262 585 q 481 711 338 711 q 607 671 553 711 q 681 567 661 631 q 911 711 758 711 q 1141 428 1141 711 l 1141 0 z "},"n":{"ha":810,"x_min":102,"x_max":721,"o":"m 721 0 l 564 0 l 564 391 q 426 586 564 586 q 307 532 354 586 q 260 396 260 478 l 260 0 l 102 0 l 102 694 l 260 694 l 260 579 l 263 579 q 488 711 341 711 q 661 637 602 711 q 721 425 721 564 l 721 0 z "},"o":{"ha":829,"x_min":58,"x_max":772,"o":"m 410 -16 q 154 81 250 -16 q 58 339 58 178 q 158 612 58 514 q 427 711 258 711 q 681 615 590 711 q 772 350 772 519 q 674 84 772 184 q 410 -16 576 -16 m 418 585 q 272 521 326 585 q 218 343 218 456 q 273 171 218 234 q 418 109 327 109 q 561 170 511 109 q 610 346 610 232 q 561 523 610 460 q 418 585 511 585 z "},"p":{"ha":837,"x_min":102,"x_max":779,"o":"m 262 102 l 260 102 l 260 -319 l 102 -319 l 102 694 l 260 694 l 260 572 l 262 572 q 498 711 343 711 q 705 618 631 711 q 779 368 779 525 q 695 90 779 195 q 467 -14 612 -14 q 262 102 334 -14 m 258 376 l 258 290 q 307 161 258 214 q 430 109 355 109 q 567 177 517 109 q 617 367 617 245 q 571 527 617 469 q 445 585 524 585 q 310 526 361 585 q 258 376 258 466 z "},"q":{"ha":837,"x_min":58,"x_max":734,"o":"m 734 -319 l 576 -319 l 576 119 l 574 119 q 341 -16 503 -16 q 135 77 213 -16 q 58 331 58 170 q 143 607 58 504 q 372 711 228 711 q 574 598 511 711 l 576 598 l 576 694 l 734 694 l 734 -319 m 578 316 l 578 406 q 530 533 578 481 q 407 585 481 585 q 269 520 319 585 q 218 335 218 454 q 267 169 218 229 q 393 109 316 109 q 528 168 478 109 q 578 316 578 227 z "},"r":{"ha":514,"x_min":102,"x_max":505,"o":"m 505 545 q 423 567 477 567 q 307 504 353 567 q 260 332 260 441 l 260 0 l 102 0 l 102 694 l 260 694 l 260 551 l 262 551 q 333 666 286 625 q 440 707 381 707 q 505 694 483 707 l 505 545 z "},"s":{"ha":599,"x_min":59,"x_max":552,"o":"m 59 22 l 59 168 q 254 100 147 100 q 396 184 396 100 q 384 225 396 208 q 351 254 372 241 q 302 277 330 267 q 239 300 274 288 q 162 336 197 317 q 105 379 128 355 q 71 434 83 404 q 60 505 60 465 q 83 594 60 555 q 147 658 107 632 q 238 697 187 684 q 343 711 289 711 q 515 682 439 711 l 515 544 q 347 594 442 594 q 293 588 317 594 q 252 571 269 582 q 226 545 235 560 q 216 511 216 530 q 226 473 216 489 q 254 446 235 458 q 299 424 273 434 q 359 403 325 414 q 439 366 404 385 q 500 322 475 347 q 538 267 525 298 q 552 192 552 235 q 528 100 552 139 q 463 35 503 60 q 369 -4 422 9 q 256 -16 315 -16 q 59 22 142 -16 z "},"t":{"ha":502,"x_min":29,"x_max":469,"o":"m 469 7 q 347 -16 422 -16 q 145 178 145 -16 l 145 571 l 29 571 l 29 694 l 145 694 l 145 855 l 302 900 l 302 694 l 469 694 l 469 571 l 302 571 l 302 224 q 325 136 302 162 q 399 109 347 109 q 469 132 439 109 l 469 7 z "},"u":{"ha":810,"x_min":89,"x_max":708,"o":"m 708 0 l 551 0 l 551 110 l 548 110 q 335 -16 479 -16 q 89 279 89 -16 l 89 694 l 246 694 l 246 296 q 391 109 246 109 q 506 160 460 109 q 551 295 551 212 l 551 694 l 708 694 l 708 0 z "},"v":{"ha":705,"x_min":6,"x_max":701,"o":"m 701 694 l 432 0 l 262 0 l 6 694 l 177 694 l 331 209 q 353 115 349 155 l 355 115 q 374 206 361 165 l 535 694 l 701 694 z "},"w":{"ha":1050,"x_min":14,"x_max":1036,"o":"m 1036 694 l 831 0 l 667 0 l 541 471 q 531 532 533 498 l 528 532 q 516 472 527 509 l 379 0 l 218 0 l 14 694 l 176 694 l 302 194 q 311 134 309 172 l 315 134 q 326 195 317 163 l 467 694 l 614 694 l 739 192 q 748 132 745 168 l 753 132 q 763 192 754 157 l 886 694 l 1036 694 z "},"x":{"ha":696,"x_min":12,"x_max":683,"o":"m 683 694 l 452 343 l 680 0 l 498 0 l 376 215 q 349 265 364 235 l 346 265 q 317 215 343 259 l 193 0 l 12 0 l 248 340 l 24 694 l 207 694 l 327 469 q 353 417 340 444 l 355 417 l 511 694 l 683 694 z "},"y":{"ha":706,"x_min":4,"x_max":704,"o":"m 704 694 l 391 -111 q 117 -327 293 -327 q 34 -318 67 -327 l 34 -187 q 102 -199 71 -199 q 233 -113 190 -199 l 280 1 l 4 694 l 178 694 l 344 190 q 356 140 347 180 l 359 140 q 372 189 363 155 l 545 694 l 704 694 z "},"z":{"ha":645,"x_min":20,"x_max":615,"o":"m 615 629 l 240 123 l 614 123 l 614 0 l 20 0 l 20 59 l 403 572 l 56 572 l 56 694 l 615 694 l 615 629 z "},"{":{"ha":461,"x_min":65,"x_max":412,"o":"m 412 -221 q 171 -15 171 -218 l 171 185 q 65 326 171 319 l 65 425 q 171 569 171 432 l 171 764 q 412 972 171 970 l 412 867 q 304 738 304 865 l 304 547 q 170 378 304 410 l 170 376 q 304 208 304 346 l 304 19 q 329 -84 304 -54 q 412 -117 353 -115 l 412 -221 z "},"|":{"ha":387,"x_min":128,"x_max":260,"o":"m 260 -327 l 128 -327 l 128 1062 l 260 1062 l 260 -327 z "},"}":{"ha":461,"x_min":50,"x_max":395,"o":"m 395 326 q 290 185 290 319 l 290 -15 q 50 -221 290 -218 l 50 -117 q 134 -84 109 -115 q 159 19 159 -53 l 159 208 q 292 376 159 346 l 292 378 q 159 547 159 410 l 159 738 q 50 867 159 865 l 50 972 q 290 764 290 970 l 290 569 q 395 425 290 432 l 395 326 z "},"~":{"ha":964,"x_min":138,"x_max":827,"o":"m 827 515 q 773 348 823 407 q 637 288 723 288 q 457 355 564 288 q 349 400 391 400 q 250 286 254 400 l 138 286 q 192 452 141 391 q 328 513 242 513 q 488 461 405 513 q 622 399 578 399 q 688 431 663 399 q 715 515 713 463 l 827 515 z "},"Ä":{"ha":932,"x_min":12,"x_max":919,"o":"m 919 0 l 742 0 l 654 248 l 272 248 l 188 0 l 12 0 l 376 972 l 557 972 l 919 0 m 612 379 l 477 767 q 464 828 471 786 l 461 828 q 448 767 455 789 l 314 379 l 612 379 m 601 1061 q 542 1084 567 1061 q 517 1141 517 1106 q 541 1196 517 1174 q 599 1219 565 1219 q 660 1196 635 1219 q 684 1141 684 1173 q 661 1084 684 1107 q 601 1061 637 1061 m 319 1061 q 258 1085 283 1061 q 233 1141 233 1108 q 257 1196 233 1174 q 316 1219 281 1219 q 376 1196 351 1219 q 401 1141 401 1173 q 377 1084 401 1107 q 319 1061 353 1061 z "},"Å":{"ha":932,"x_min":12,"x_max":919,"o":"m 919 0 l 742 0 l 654 248 l 272 248 l 188 0 l 12 0 l 376 972 l 557 972 l 919 0 m 612 379 l 477 767 q 464 828 471 786 l 461 828 q 448 767 455 789 l 314 379 l 612 379 m 460 904 q 355 941 397 904 q 313 1037 313 977 q 356 1143 313 1103 q 465 1182 399 1182 q 572 1142 530 1182 q 614 1041 614 1103 q 569 943 614 982 q 460 904 525 904 m 460 1114 q 410 1094 430 1114 q 390 1044 390 1074 q 460 973 390 973 q 514 993 493 973 q 536 1044 536 1013 q 514 1094 536 1074 q 460 1114 493 1114 z "},"Ç":{"ha":863,"x_min":58,"x_max":798,"o":"m 798 41 q 525 -16 688 -16 q 186 117 313 -16 q 58 468 58 251 q 202 845 58 701 q 564 989 345 989 q 798 949 705 989 l 798 789 q 581 847 700 847 q 325 746 423 847 q 227 476 227 645 q 319 220 227 315 q 559 125 410 125 q 798 190 697 125 l 798 41 m 667 -168 q 472 -300 667 -300 q 417 -298 440 -300 l 417 -222 q 465 -227 447 -227 q 555 -171 555 -227 q 473 -121 555 -121 q 447 -123 467 -121 l 447 0 l 539 0 l 539 -64 q 633 -91 598 -64 q 667 -168 667 -119 z "},"É":{"ha":719,"x_min":120,"x_max":666,"o":"m 666 0 l 120 0 l 120 972 l 644 972 l 644 836 l 281 836 l 281 560 l 616 560 l 616 424 l 281 424 l 281 136 l 666 136 l 666 0 m 592 1294 l 398 1072 l 281 1072 l 446 1294 l 592 1294 z "},"Ñ":{"ha":1065,"x_min":120,"x_max":945,"o":"m 945 0 l 768 0 l 304 715 q 275 771 286 742 l 271 771 q 276 637 276 740 l 276 0 l 120 0 l 120 972 l 308 972 l 757 275 q 793 215 785 231 l 796 215 q 789 346 789 254 l 789 972 l 945 972 l 945 0 m 783 1245 q 748 1117 783 1166 q 653 1067 713 1067 q 541 1099 604 1067 q 459 1130 488 1130 q 402 1055 402 1130 l 324 1055 q 359 1184 324 1135 q 456 1232 393 1232 q 562 1198 502 1232 q 647 1168 611 1168 q 702 1245 702 1168 l 783 1245 z "},"Ö":{"ha":1050,"x_min":58,"x_max":991,"o":"m 521 -16 q 184 120 311 -16 q 58 475 58 256 q 186 849 58 709 q 536 989 315 989 q 866 853 741 989 q 991 498 991 718 q 863 122 991 260 q 521 -16 735 -16 m 528 847 q 311 747 395 847 q 227 485 227 648 q 309 224 227 323 q 522 125 390 125 q 742 219 661 125 q 823 483 823 313 q 744 752 823 657 q 528 847 666 847 m 667 1061 q 608 1083 633 1061 q 583 1140 583 1105 q 607 1196 583 1173 q 665 1218 631 1218 q 725 1195 701 1218 q 750 1140 750 1173 q 726 1084 750 1107 q 667 1061 703 1061 m 385 1061 q 324 1084 349 1061 q 299 1140 299 1107 q 323 1196 299 1173 q 382 1218 347 1218 q 442 1195 416 1218 q 467 1140 467 1173 q 443 1084 467 1107 q 385 1061 418 1061 z "},"Ü":{"ha":977,"x_min":109,"x_max":868,"o":"m 868 393 q 480 -16 868 -16 q 109 378 109 -16 l 109 972 l 270 972 l 270 411 q 492 125 270 125 q 707 401 707 125 l 707 972 l 868 972 l 868 393 m 629 1062 q 570 1084 595 1062 q 545 1141 545 1107 q 569 1197 545 1175 q 627 1219 593 1219 q 687 1197 663 1219 q 712 1141 712 1174 q 688 1085 712 1108 q 629 1062 665 1062 m 347 1062 q 286 1085 311 1062 q 261 1141 261 1109 q 285 1197 261 1175 q 344 1219 309 1219 q 404 1197 378 1219 q 429 1141 429 1174 q 405 1085 429 1108 q 347 1062 380 1062 z "},"á":{"ha":725,"x_min":51,"x_max":635,"o":"m 635 0 l 483 0 l 483 109 l 480 109 q 269 -16 408 -16 q 109 39 167 -16 q 51 186 51 95 q 277 416 51 383 l 484 445 q 342 593 484 593 q 119 508 218 593 l 119 646 q 372 711 229 711 q 635 452 635 711 l 635 0 m 484 341 l 338 321 q 236 288 270 312 q 201 203 201 264 q 233 131 201 159 q 317 103 264 103 q 436 154 389 103 q 484 281 484 204 l 484 341 m 562 1048 l 368 826 l 251 826 l 415 1048 l 562 1048 z "},"à":{"ha":725,"x_min":51,"x_max":635,"o":"m 635 0 l 483 0 l 483 109 l 480 109 q 269 -16 408 -16 q 109 39 167 -16 q 51 186 51 95 q 277 416 51 383 l 484 445 q 342 593 484 593 q 119 508 218 593 l 119 646 q 372 711 229 711 q 635 452 635 711 l 635 0 m 484 341 l 338 321 q 236 288 270 312 q 201 203 201 264 q 233 131 201 159 q 317 103 264 103 q 436 154 389 103 q 484 281 484 204 l 484 341 m 488 817 l 370 817 l 193 1039 l 338 1039 l 488 817 z "},"â":{"ha":725,"x_min":51,"x_max":635,"o":"m 635 0 l 483 0 l 483 109 l 480 109 q 269 -16 408 -16 q 109 39 167 -16 q 51 186 51 95 q 277 416 51 383 l 484 445 q 342 593 484 593 q 119 508 218 593 l 119 646 q 372 711 229 711 q 635 452 635 711 l 635 0 m 484 341 l 338 321 q 236 288 270 312 q 201 203 201 264 q 233 131 201 159 q 317 103 264 103 q 436 154 389 103 q 484 281 484 204 l 484 341 m 579 817 l 471 817 l 361 960 l 255 817 l 150 817 l 302 1039 l 427 1039 l 579 817 z "},"ä":{"ha":725,"x_min":51,"x_max":635,"o":"m 635 0 l 483 0 l 483 109 l 480 109 q 269 -16 408 -16 q 109 39 167 -16 q 51 186 51 95 q 277 416 51 383 l 484 445 q 342 593 484 593 q 119 508 218 593 l 119 646 q 372 711 229 711 q 635 452 635 711 l 635 0 m 484 341 l 338 321 q 236 288 270 312 q 201 203 201 264 q 233 131 201 159 q 317 103 264 103 q 436 154 389 103 q 484 281 484 204 l 484 341 m 503 816 q 445 838 469 816 q 420 895 420 861 q 444 951 420 928 q 501 973 467 973 q 562 950 537 973 q 587 895 587 928 q 563 839 587 862 q 503 816 539 816 m 221 816 q 161 839 186 816 q 136 895 136 863 q 160 951 136 928 q 218 973 184 973 q 278 950 253 973 q 304 895 304 928 q 279 839 304 862 q 221 816 255 816 z "},"ã":{"ha":725,"x_min":51,"x_max":635,"o":"m 635 0 l 483 0 l 483 109 l 480 109 q 269 -16 408 -16 q 109 39 167 -16 q 51 186 51 95 q 277 416 51 383 l 484 445 q 342 593 484 593 q 119 508 218 593 l 119 646 q 372 711 229 711 q 635 452 635 711 l 635 0 m 484 341 l 338 321 q 236 288 270 312 q 201 203 201 264 q 233 131 201 159 q 317 103 264 103 q 436 154 389 103 q 484 281 484 204 l 484 341 m 591 1000 q 556 872 591 922 q 462 822 522 822 q 350 854 413 822 q 268 885 297 885 q 211 810 211 885 l 133 810 q 168 939 133 890 q 264 987 202 987 q 371 953 311 987 q 456 923 420 923 q 511 1000 511 923 l 591 1000 z "},"å":{"ha":725,"x_min":51,"x_max":635,"o":"m 635 0 l 483 0 l 483 109 l 480 109 q 269 -16 408 -16 q 109 39 167 -16 q 51 186 51 95 q 277 416 51 383 l 484 445 q 342 593 484 593 q 119 508 218 593 l 119 646 q 372 711 229 711 q 635 452 635 711 l 635 0 m 484 341 l 338 321 q 236 288 270 312 q 201 203 201 264 q 233 131 201 159 q 317 103 264 103 q 436 154 389 103 q 484 281 484 204 l 484 341 m 367 800 q 261 837 303 800 q 220 933 220 873 q 262 1039 220 1000 q 372 1078 305 1078 q 478 1039 437 1078 q 520 937 520 999 q 476 839 520 878 q 367 800 431 800 m 367 1010 q 316 990 336 1010 q 296 940 296 970 q 367 869 296 869 q 421 889 399 869 q 442 940 442 909 q 421 990 442 970 q 367 1010 399 1010 z "},"ç":{"ha":653,"x_min":58,"x_max":600,"o":"m 600 32 q 402 -16 516 -16 q 153 80 248 -16 q 58 331 58 177 q 160 607 58 503 q 433 711 262 711 q 600 677 528 711 l 600 531 q 446 585 528 585 q 282 518 346 585 q 218 341 218 450 q 278 171 218 233 q 439 109 338 109 q 600 169 524 109 l 600 32 m 543 -168 q 348 -300 543 -300 q 293 -298 316 -300 l 293 -222 q 341 -227 323 -227 q 431 -171 431 -227 q 349 -121 431 -121 q 323 -123 342 -121 l 323 0 l 415 0 l 415 -64 q 509 -91 474 -64 q 543 -168 543 -119 z "},"é":{"ha":738,"x_min":58,"x_max":690,"o":"m 690 304 l 217 304 q 276 156 220 208 q 432 104 333 104 q 636 170 543 104 l 636 43 q 385 -16 541 -16 q 145 78 232 -16 q 58 345 58 173 q 154 609 58 507 q 392 711 250 711 q 612 619 534 711 q 690 365 690 528 l 690 304 m 538 416 q 498 548 538 500 q 390 595 459 595 q 275 545 322 595 q 217 416 228 496 l 538 416 m 585 1048 l 391 826 l 275 826 l 439 1048 l 585 1048 z "},"è":{"ha":738,"x_min":58,"x_max":690,"o":"m 690 304 l 217 304 q 276 156 220 208 q 432 104 333 104 q 636 170 543 104 l 636 43 q 385 -16 541 -16 q 145 78 232 -16 q 58 345 58 173 q 154 609 58 507 q 392 711 250 711 q 612 619 534 711 q 690 365 690 528 l 690 304 m 538 416 q 498 548 538 500 q 390 595 459 595 q 275 545 322 595 q 217 416 228 496 l 538 416 m 513 817 l 395 817 l 218 1039 l 363 1039 l 513 817 z "},"ê":{"ha":738,"x_min":58,"x_max":690,"o":"m 690 304 l 217 304 q 276 156 220 208 q 432 104 333 104 q 636 170 543 104 l 636 43 q 385 -16 541 -16 q 145 78 232 -16 q 58 345 58 173 q 154 609 58 507 q 392 711 250 711 q 612 619 534 711 q 690 365 690 528 l 690 304 m 538 416 q 498 548 538 500 q 390 595 459 595 q 275 545 322 595 q 217 416 228 496 l 538 416 m 602 817 l 494 817 l 385 960 l 278 817 l 173 817 l 325 1039 l 450 1039 l 602 817 z "},"ë":{"ha":738,"x_min":58,"x_max":690,"o":"m 690 304 l 217 304 q 276 156 220 208 q 432 104 333 104 q 636 170 543 104 l 636 43 q 385 -16 541 -16 q 145 78 232 -16 q 58 345 58 173 q 154 609 58 507 q 392 711 250 711 q 612 619 534 711 q 690 365 690 528 l 690 304 m 538 416 q 498 548 538 500 q 390 595 459 595 q 275 545 322 595 q 217 416 228 496 l 538 416 m 524 816 q 466 838 490 816 q 441 895 441 861 q 465 951 441 928 q 522 973 488 973 q 583 950 558 973 q 608 895 608 928 q 584 839 608 862 q 524 816 560 816 m 242 816 q 182 839 207 816 q 157 895 157 863 q 181 951 157 928 q 239 973 205 973 q 299 950 274 973 q 325 895 325 928 q 300 839 325 862 q 242 816 276 816 z "},"í":{"ha":363,"x_min":63,"x_max":374,"o":"m 260 0 l 102 0 l 102 694 l 260 694 l 260 0 m 374 1048 l 180 826 l 63 826 l 227 1048 l 374 1048 z "},"ì":{"ha":363,"x_min":0,"x_max":295,"o":"m 260 0 l 102 0 l 102 694 l 260 694 l 260 0 m 295 817 l 178 817 l 0 1039 l 145 1039 l 295 817 z "},"î":{"ha":363,"x_min":-35,"x_max":395,"o":"m 260 0 l 102 0 l 102 694 l 260 694 l 260 0 m 395 817 l 286 817 l 177 960 l 71 817 l -35 817 l 117 1039 l 242 1039 l 395 817 z "},"ï":{"ha":363,"x_min":-46,"x_max":405,"o":"m 260 0 l 102 0 l 102 694 l 260 694 l 260 0 m 321 816 q 263 838 288 816 q 238 895 238 861 q 262 951 238 928 q 319 973 286 973 q 380 950 355 973 q 405 895 405 928 q 381 839 405 862 q 321 816 357 816 m 39 816 q -21 839 4 816 q -46 895 -46 863 q -22 951 -46 928 q 37 973 2 973 q 97 950 71 973 q 122 895 122 928 q 98 839 122 862 q 39 816 73 816 z "},"ñ":{"ha":810,"x_min":102,"x_max":721,"o":"m 721 0 l 564 0 l 564 391 q 426 586 564 586 q 307 532 354 586 q 260 396 260 478 l 260 0 l 102 0 l 102 694 l 260 694 l 260 579 l 263 579 q 488 711 341 711 q 661 637 602 711 q 721 425 721 564 l 721 0 m 638 1000 q 603 872 638 922 q 509 822 568 822 q 397 854 460 822 q 315 885 344 885 q 258 810 258 885 l 180 810 q 214 939 180 890 q 311 987 249 987 q 418 953 357 987 q 503 923 467 923 q 557 1000 557 923 l 638 1000 z "},"ó":{"ha":829,"x_min":58,"x_max":772,"o":"m 410 -16 q 154 81 250 -16 q 58 339 58 178 q 158 612 58 514 q 427 711 258 711 q 681 615 590 711 q 772 350 772 519 q 674 84 772 184 q 410 -16 576 -16 m 418 585 q 272 521 326 585 q 218 343 218 456 q 273 171 218 234 q 418 109 327 109 q 561 170 511 109 q 610 346 610 232 q 561 523 610 460 q 418 585 511 585 m 618 1048 l 425 826 l 308 826 l 472 1048 l 618 1048 z "},"ò":{"ha":829,"x_min":58,"x_max":772,"o":"m 410 -16 q 154 81 250 -16 q 58 339 58 178 q 158 612 58 514 q 427 711 258 711 q 681 615 590 711 q 772 350 772 519 q 674 84 772 184 q 410 -16 576 -16 m 418 585 q 272 521 326 585 q 218 343 218 456 q 273 171 218 234 q 418 109 327 109 q 561 170 511 109 q 610 346 610 232 q 561 523 610 460 q 418 585 511 585 m 538 817 l 421 817 l 243 1039 l 389 1039 l 538 817 z "},"ô":{"ha":829,"x_min":58,"x_max":772,"o":"m 410 -16 q 154 81 250 -16 q 58 339 58 178 q 158 612 58 514 q 427 711 258 711 q 681 615 590 711 q 772 350 772 519 q 674 84 772 184 q 410 -16 576 -16 m 418 585 q 272 521 326 585 q 218 343 218 456 q 273 171 218 234 q 418 109 327 109 q 561 170 511 109 q 610 346 610 232 q 561 523 610 460 q 418 585 511 585 m 631 817 l 523 817 l 414 960 l 307 817 l 202 817 l 354 1039 l 479 1039 l 631 817 z "},"ö":{"ha":829,"x_min":58,"x_max":772,"o":"m 410 -16 q 154 81 250 -16 q 58 339 58 178 q 158 612 58 514 q 427 711 258 711 q 681 615 590 711 q 772 350 772 519 q 674 84 772 184 q 410 -16 576 -16 m 418 585 q 272 521 326 585 q 218 343 218 456 q 273 171 218 234 q 418 109 327 109 q 561 170 511 109 q 610 346 610 232 q 561 523 610 460 q 418 585 511 585 m 557 816 q 499 838 524 816 q 474 895 474 861 q 498 951 474 928 q 555 973 522 973 q 616 950 591 973 q 641 895 641 928 q 617 839 641 862 q 557 816 593 816 m 275 816 q 215 839 240 816 q 190 895 190 863 q 214 951 190 928 q 273 973 238 973 q 333 950 307 973 q 358 895 358 928 q 334 839 358 862 q 275 816 309 816 z "},"õ":{"ha":829,"x_min":58,"x_max":772,"o":"m 410 -16 q 154 81 250 -16 q 58 339 58 178 q 158 612 58 514 q 427 711 258 711 q 681 615 590 711 q 772 350 772 519 q 674 84 772 184 q 410 -16 576 -16 m 418 585 q 272 521 326 585 q 218 343 218 456 q 273 171 218 234 q 418 109 327 109 q 561 170 511 109 q 610 346 610 232 q 561 523 610 460 q 418 585 511 585 m 648 1000 q 613 872 648 922 q 518 822 578 822 q 406 854 469 822 q 324 885 353 885 q 267 810 267 885 l 189 810 q 224 939 189 890 q 321 987 258 987 q 427 953 367 987 q 512 923 476 923 q 567 1000 567 923 l 648 1000 z "},"ú":{"ha":810,"x_min":89,"x_max":708,"o":"m 708 0 l 551 0 l 551 110 l 548 110 q 335 -16 479 -16 q 89 279 89 -16 l 89 694 l 246 694 l 246 296 q 391 109 246 109 q 506 160 460 109 q 551 295 551 212 l 551 694 l 708 694 l 708 0 m 619 1048 l 425 826 l 309 826 l 473 1048 l 619 1048 z "},"ù":{"ha":810,"x_min":89,"x_max":708,"o":"m 708 0 l 551 0 l 551 110 l 548 110 q 335 -16 479 -16 q 89 279 89 -16 l 89 694 l 246 694 l 246 296 q 391 109 246 109 q 506 160 460 109 q 551 295 551 212 l 551 694 l 708 694 l 708 0 m 502 817 l 385 817 l 207 1039 l 352 1039 l 502 817 z "},"û":{"ha":810,"x_min":89,"x_max":708,"o":"m 708 0 l 551 0 l 551 110 l 548 110 q 335 -16 479 -16 q 89 279 89 -16 l 89 694 l 246 694 l 246 296 q 391 109 246 109 q 506 160 460 109 q 551 295 551 212 l 551 694 l 708 694 l 708 0 m 614 817 l 505 817 l 396 960 l 290 817 l 184 817 l 336 1039 l 461 1039 l 614 817 z "},"ü":{"ha":810,"x_min":89,"x_max":708,"o":"m 708 0 l 551 0 l 551 110 l 548 110 q 335 -16 479 -16 q 89 279 89 -16 l 89 694 l 246 694 l 246 296 q 391 109 246 109 q 506 160 460 109 q 551 295 551 212 l 551 694 l 708 694 l 708 0 m 544 816 q 485 838 510 816 q 460 895 460 861 q 484 951 460 928 q 542 973 508 973 q 603 950 578 973 q 627 895 627 928 q 604 839 627 862 q 544 816 580 816 m 262 816 q 201 839 227 816 q 176 895 176 863 q 200 951 176 928 q 259 973 224 973 q 319 950 294 973 q 345 895 345 928 q 320 839 345 862 q 262 816 296 816 z "},"†":{"ha":541,"x_min":44,"x_max":494,"o":"m 494 663 l 324 663 l 324 165 l 214 165 l 214 663 l 44 663 l 44 757 l 214 757 l 214 972 l 324 972 l 324 757 l 494 757 l 494 663 z "},"°":{"ha":526,"x_min":75,"x_max":456,"o":"m 266 608 q 131 663 186 608 q 75 799 75 719 q 130 932 75 878 q 264 986 185 986 q 400 931 344 986 q 456 799 456 877 q 400 663 456 719 q 266 608 345 608 m 266 896 q 196 867 225 896 q 168 798 168 839 q 196 727 168 757 q 264 698 224 698 q 334 728 304 698 q 363 798 363 758 q 335 868 363 840 q 266 896 306 896 z "},"¢":{"ha":771,"x_min":120,"x_max":661,"o":"m 661 141 q 524 95 602 102 l 524 -33 l 428 -33 l 428 96 q 203 205 287 111 q 120 440 120 300 q 203 689 120 589 q 428 814 287 789 l 428 959 l 524 959 l 524 821 q 661 786 600 820 l 661 642 q 524 692 598 687 l 524 224 q 661 282 600 232 l 661 141 m 428 230 l 428 684 q 314 605 355 666 q 273 454 273 543 q 315 305 273 364 q 428 230 356 246 z "},"£":{"ha":771,"x_min":83,"x_max":715,"o":"m 715 0 l 83 0 l 83 119 q 223 310 223 161 l 223 424 l 98 424 l 98 543 l 223 543 l 223 709 q 301 910 223 831 q 505 989 380 989 q 658 961 589 989 l 658 825 q 522 863 593 863 q 374 682 374 863 l 374 543 l 566 543 l 566 424 l 374 424 l 374 330 q 243 126 374 184 l 715 126 l 715 0 z "},"§":{"ha":646,"x_min":89,"x_max":576,"o":"m 473 288 q 534 159 534 237 q 461 12 534 68 q 276 -45 389 -45 q 103 -7 181 -45 l 103 126 q 275 73 193 73 q 364 97 332 73 q 395 158 395 121 q 371 212 395 190 q 248 282 347 235 q 89 494 89 363 q 187 658 89 604 q 115 811 115 715 q 183 955 115 899 q 360 1011 250 1011 q 518 982 454 1011 l 518 852 q 368 895 450 895 q 256 808 256 895 q 283 748 256 775 q 423 674 311 721 q 576 475 576 602 q 473 288 576 359 m 287 600 q 222 504 222 569 q 258 428 222 460 q 384 357 294 395 q 440 460 440 398 q 407 534 440 504 q 287 600 373 565 z "},"•":{"ha":574,"x_min":116,"x_max":458,"o":"m 288 245 q 167 295 218 245 q 116 415 116 345 q 167 536 116 485 q 288 587 218 587 q 408 536 359 587 q 458 415 458 486 q 408 295 458 345 q 288 245 359 245 z "},"¶":{"ha":668,"x_min":57,"x_max":600,"o":"m 600 884 l 516 884 l 516 0 l 424 0 l 424 884 l 329 884 l 329 0 l 235 0 l 235 593 q 107 647 158 593 q 57 784 57 701 q 111 920 57 867 q 242 972 165 972 l 600 972 l 600 884 z "},"ß":{"ha":808,"x_min":102,"x_max":762,"o":"m 338 1 l 338 141 q 445 109 385 109 q 557 152 514 109 q 601 269 601 196 q 536 414 601 358 q 357 481 471 469 l 357 597 q 479 660 431 609 q 528 779 528 710 q 494 881 528 845 q 401 918 460 918 q 260 728 260 918 l 260 0 l 102 0 l 102 735 q 186 959 102 875 q 412 1043 270 1043 q 613 978 538 1043 q 689 806 689 913 q 640 650 689 719 q 511 554 590 581 l 511 551 q 762 264 762 500 q 681 64 762 145 q 467 -16 600 -16 q 338 1 394 -16 z "},"­":{"ha":558,"x_min":98,"x_max":468,"o":"m 468 321 l 98 321 l 98 437 l 468 437 l 468 321 z "},"®":{"ha":1226,"x_min":202,"x_max":1024,"o":"m 613 173 q 322 292 443 173 q 202 578 202 410 q 322 866 202 746 q 613 986 443 986 q 903 866 783 986 q 1024 578 1024 746 q 903 292 1024 410 q 613 173 783 173 m 614 918 q 375 818 474 918 q 275 578 275 718 q 375 339 275 438 q 614 241 474 241 q 852 339 754 241 q 951 578 951 438 q 852 818 951 718 q 614 918 754 918 m 823 328 l 703 328 l 654 446 q 572 534 616 534 l 542 534 l 542 328 l 444 328 l 444 838 l 597 838 q 745 800 693 838 q 796 699 796 763 q 765 609 796 646 q 671 559 733 572 l 671 557 q 756 463 714 549 l 823 328 m 542 756 l 542 611 l 597 611 q 692 684 692 611 q 666 739 692 722 q 587 756 641 756 l 542 756 z "},"©":{"ha":1226,"x_min":100,"x_max":1126,"o":"m 614 -20 q 251 129 401 -20 q 100 486 100 277 q 251 844 100 696 q 614 992 401 992 q 976 844 826 992 q 1126 486 1126 696 q 976 129 1126 277 q 614 -20 826 -20 m 614 925 q 302 797 431 925 q 174 486 174 668 q 302 176 174 304 q 614 47 431 47 q 925 176 796 47 q 1053 486 1053 304 q 925 797 1053 668 q 614 925 796 925 m 818 186 q 636 142 741 142 q 400 236 496 142 q 305 470 305 330 q 402 731 305 633 q 656 828 500 828 q 815 793 745 828 l 815 665 q 656 713 755 713 q 495 650 559 713 q 432 481 432 587 q 497 316 432 378 q 661 254 562 254 q 818 307 753 254 l 818 186 z "},"™":{"ha":1072,"x_min":52,"x_max":947,"o":"m 947 524 l 861 524 l 861 838 l 858 838 l 727 524 l 664 524 l 539 838 l 536 838 l 536 524 l 453 524 l 453 972 l 567 972 l 699 649 l 701 649 l 838 972 l 947 972 l 947 524 m 402 899 l 269 899 l 269 524 l 181 524 l 181 899 l 52 899 l 52 972 l 402 972 l 402 899 z "},"´":{"ha":405,"x_min":75,"x_max":385,"o":"m 385 1048 l 191 826 l 75 826 l 239 1048 l 385 1048 z "},"¨":{"ha":605,"x_min":73,"x_max":524,"o":"m 440 816 q 381 838 406 816 q 357 895 357 861 q 380 951 357 928 q 438 973 404 973 q 499 950 474 973 q 524 895 524 928 q 500 839 524 862 q 440 816 476 816 m 158 816 q 98 839 123 816 q 73 895 73 863 q 97 951 73 928 q 155 973 121 973 q 215 950 190 973 q 241 895 241 928 q 216 839 241 862 q 158 816 192 816 z "},"≠":{"ha":964,"x_min":159,"x_max":807,"o":"m 807 200 l 438 200 l 335 0 l 208 0 l 311 200 l 159 200 l 159 311 l 370 311 l 463 491 l 159 491 l 159 603 l 521 603 l 624 806 l 751 806 l 648 603 l 807 603 l 807 491 l 589 491 l 496 311 l 807 311 l 807 200 z "},"Æ":{"ha":1242,"x_min":4,"x_max":1186,"o":"m 1186 0 l 641 0 l 641 248 l 307 248 l 191 0 l 4 0 l 486 972 l 1164 972 l 1164 836 l 802 836 l 802 560 l 1139 560 l 1139 424 l 802 424 l 802 136 l 1186 136 l 1186 0 m 641 379 l 641 836 l 582 836 l 367 379 l 641 379 z "},"Ø":{"ha":1050,"x_min":58,"x_max":992,"o":"m 227 82 l 127 -38 l 60 18 l 164 143 q 58 475 58 274 q 186 848 58 707 q 537 989 315 989 q 809 904 695 989 l 899 1010 l 966 956 l 873 846 q 992 498 992 714 q 864 122 992 260 q 521 -16 736 -16 q 227 82 344 -16 m 717 794 q 530 855 642 855 q 306 752 391 855 q 220 485 220 650 q 271 267 220 355 l 717 794 m 770 725 l 323 196 q 521 117 401 117 q 747 213 665 117 q 830 483 830 310 q 770 725 830 633 z "},"∞":{"ha":1132,"x_min":52,"x_max":1082,"o":"m 567 313 q 308 137 453 137 q 123 211 195 137 q 52 404 52 284 q 126 592 52 513 q 308 671 201 671 q 568 492 467 671 q 827 668 680 668 q 1011 594 941 668 q 1082 402 1082 521 q 1009 213 1082 292 q 827 134 935 134 q 567 313 674 134 m 623 402 q 827 246 707 246 q 925 289 888 246 q 962 403 962 332 q 924 514 962 470 q 827 558 886 558 q 623 402 717 558 m 511 405 q 308 562 427 562 q 208 517 245 562 q 171 403 171 473 q 212 293 171 336 q 317 249 253 249 q 511 405 424 249 z "},"±":{"ha":964,"x_min":159,"x_max":807,"o":"m 807 455 l 539 455 l 539 186 l 429 186 l 429 455 l 160 455 l 160 566 l 429 566 l 429 836 l 539 836 l 539 566 l 807 566 l 807 455 m 806 0 l 159 0 l 159 111 l 806 111 l 806 0 z "},"≤":{"ha":966,"x_min":159,"x_max":806,"o":"m 787 170 l 180 454 l 180 529 l 787 836 l 787 707 l 343 494 l 343 492 l 787 300 l 787 170 m 806 0 l 159 0 l 159 111 l 806 111 l 806 0 z "},"≥":{"ha":966,"x_min":159,"x_max":806,"o":"m 787 455 l 180 171 l 180 300 l 624 490 l 624 494 l 180 708 l 180 836 l 787 530 l 787 455 m 806 0 l 159 0 l 159 111 l 806 111 l 806 0 z "},"¥":{"ha":771,"x_min":37,"x_max":741,"o":"m 741 972 l 500 532 l 684 532 l 684 422 l 466 422 l 466 298 l 684 298 l 684 189 l 466 189 l 466 0 l 311 0 l 311 189 l 87 189 l 87 298 l 311 298 l 311 422 l 87 422 l 87 532 l 273 532 l 37 972 l 207 972 l 363 637 q 393 565 381 600 l 395 565 q 426 642 404 592 l 581 972 l 741 972 z "},"µ":{"ha":824,"x_min":102,"x_max":745,"o":"m 745 0 l 583 0 q 567 109 567 47 l 564 109 q 398 -16 514 -16 q 262 50 302 -16 l 260 50 l 260 -268 l 102 -268 l 102 694 l 260 694 l 260 281 q 300 160 260 205 q 404 115 340 115 q 518 168 474 115 q 562 310 562 220 l 562 694 l 721 694 l 721 180 q 745 0 721 52 z "},"∂":{"ha":770,"x_min":43,"x_max":734,"o":"m 573 585 l 576 585 q 401 887 593 887 q 227 836 314 887 l 261 970 q 437 1013 345 1013 q 660 922 586 1013 q 734 629 734 831 q 687 318 734 480 q 542 70 640 157 q 310 -16 444 -16 q 116 57 189 -16 q 43 254 43 130 q 142 567 43 435 q 395 699 242 699 q 573 585 516 699 m 556 451 q 423 580 523 580 q 266 485 329 580 q 203 264 203 391 q 236 150 203 192 q 326 109 269 109 q 477 203 414 109 q 556 451 541 298 z "},"∑":{"ha":873,"x_min":35,"x_max":839,"o":"m 839 -318 l 35 -318 l 35 -235 l 471 334 l 56 882 l 56 972 l 814 972 l 814 835 l 286 835 l 661 338 l 267 -181 l 839 -181 l 839 -318 z "},"∏":{"ha":1070,"x_min":120,"x_max":958,"o":"m 958 -319 l 797 -319 l 797 830 l 281 830 l 281 -319 l 120 -319 l 120 972 l 958 972 l 958 -319 z "},"∫":{"ha":772,"x_min":121,"x_max":652,"o":"m 652 900 q 578 918 620 918 q 465 774 465 918 l 465 -101 q 393 -268 465 -205 q 213 -330 320 -330 q 121 -317 155 -330 l 121 -187 q 193 -205 153 -205 q 307 -61 307 -205 l 307 813 q 379 981 307 919 q 558 1044 451 1044 q 652 1027 618 1044 l 652 900 z "},"ª":{"ha":556,"x_min":52,"x_max":482,"o":"m 482 486 l 369 486 l 369 554 l 366 554 q 214 473 314 473 q 97 514 141 473 q 52 618 52 555 q 217 779 52 757 l 369 800 q 271 897 369 897 q 100 842 180 897 l 100 943 q 288 987 178 987 q 431 938 379 987 q 482 802 482 890 l 482 486 m 369 723 l 264 708 q 166 629 166 694 q 189 579 166 598 q 251 559 212 559 q 333 596 298 559 q 369 683 369 632 l 369 723 z "},"º":{"ha":614,"x_min":50,"x_max":562,"o":"m 302 472 q 117 541 184 472 q 50 728 50 610 q 122 918 50 849 q 313 986 194 986 q 495 919 428 986 q 562 736 562 852 q 491 544 562 615 q 302 472 421 472 m 307 892 q 208 848 245 892 q 172 728 172 804 q 207 610 172 652 q 307 567 241 567 q 405 611 368 567 q 441 730 441 655 q 405 849 441 806 q 307 892 370 892 z "},"Ω":{"ha":1055,"x_min":62,"x_max":994,"o":"m 994 0 l 616 0 l 616 134 q 825 530 825 294 q 743 763 825 677 q 530 849 661 849 q 315 763 399 849 q 231 528 231 677 q 439 134 231 293 l 439 0 l 62 0 l 62 134 l 296 134 q 63 546 63 286 q 191 870 63 752 q 526 989 318 989 q 866 871 739 989 q 994 547 994 754 q 758 134 994 288 l 994 134 l 994 0 z "},"æ":{"ha":1153,"x_min":51,"x_max":1105,"o":"m 1105 304 l 631 304 q 689 156 633 208 q 842 103 745 103 q 1052 170 958 103 l 1052 44 q 803 -16 960 -16 q 538 123 616 -16 l 536 123 q 283 -16 441 -16 q 113 40 175 -16 q 51 189 51 96 q 308 414 51 397 l 484 425 q 347 594 484 594 q 119 516 227 594 l 119 649 q 361 711 222 711 q 572 595 524 711 l 575 595 q 812 711 652 711 q 1028 619 951 711 q 1105 363 1105 527 l 1105 304 m 954 416 q 913 548 952 502 q 805 595 875 595 q 691 546 739 595 q 632 416 643 497 l 954 416 m 484 279 l 484 317 l 363 309 q 241 280 281 304 q 201 199 201 256 q 232 130 201 156 q 317 103 264 103 q 435 153 387 103 q 484 279 484 203 z "},"ø":{"ha":829,"x_min":30,"x_max":806,"o":"m 806 699 l 701 587 q 772 354 772 494 q 673 83 772 183 q 410 -16 574 -16 q 192 48 279 -16 l 97 -54 l 30 7 l 127 112 q 58 343 58 205 q 157 614 58 517 q 425 711 257 711 q 635 650 551 711 l 738 760 l 806 699 m 541 553 q 418 593 496 593 q 268 527 323 593 q 212 345 212 461 q 236 224 212 274 l 541 553 m 595 475 l 286 144 q 417 102 337 102 q 567 166 515 102 q 618 347 618 231 q 595 475 618 422 z "},"¿":{"ha":616,"x_min":69,"x_max":568,"o":"m 430 421 q 441 378 436 404 q 446 325 446 351 q 429 251 446 284 q 389 189 413 218 q 336 134 364 160 q 283 80 307 107 q 242 23 258 53 q 226 -43 226 -7 q 237 -93 226 -71 q 266 -130 248 -115 q 309 -153 284 -145 q 360 -160 333 -160 q 568 -71 479 -160 l 568 -228 q 341 -292 458 -292 q 236 -277 285 -292 q 150 -234 186 -262 q 91 -163 113 -205 q 69 -64 69 -120 q 87 25 69 -14 q 131 97 104 64 q 189 158 158 130 q 247 214 220 186 q 292 272 274 241 q 309 338 309 302 q 303 385 309 364 q 290 421 296 406 l 430 421 m 352 710 q 421 684 391 710 q 450 618 450 658 q 421 554 450 581 q 352 527 392 527 q 284 554 313 527 q 255 618 255 581 q 284 684 255 658 q 352 710 313 710 z "}," ":{"ha":382,"x_min":0,"x_max":0,"o":""},"¡":{"ha":422,"x_min":113,"x_max":308,"o":"m 211 528 q 142 554 170 528 q 113 618 113 581 q 142 683 113 656 q 212 710 171 710 q 279 683 251 710 q 308 618 308 656 q 279 554 308 581 q 211 528 250 528 m 295 -275 l 130 -275 l 148 410 l 276 410 l 295 -275 z "},"¬":{"ha":964,"x_min":159,"x_max":807,"o":"m 807 176 l 696 176 l 696 455 l 159 455 l 159 566 l 807 566 l 807 176 z "},"√":{"ha":903,"x_min":73,"x_max":781,"o":"m 781 1028 l 511 0 l 409 0 l 193 503 l 73 503 l 73 598 l 279 598 l 455 178 l 675 1028 l 781 1028 z "},"ƒ":{"ha":771,"x_min":59,"x_max":673,"o":"m 673 831 q 593 850 637 850 q 484 748 499 850 l 466 629 l 576 629 l 576 512 l 448 512 l 382 81 q 129 -197 340 -197 q 59 -184 105 -197 l 59 -57 q 115 -71 82 -71 q 237 112 212 -71 l 297 512 l 227 512 l 227 629 l 317 629 l 330 729 q 411 908 344 841 q 582 976 478 976 q 673 960 632 976 l 673 831 z "},"≈":{"ha":966,"x_min":137,"x_max":828,"o":"m 828 662 q 771 495 823 555 q 628 436 718 436 q 450 505 555 436 q 344 548 385 548 q 250 434 254 548 l 137 434 q 194 600 140 540 q 338 660 248 660 q 496 604 410 660 q 627 547 584 547 q 690 579 667 547 q 715 662 714 610 l 828 662 m 828 372 q 771 205 823 264 q 628 145 718 145 q 448 214 554 145 q 340 257 384 257 q 250 143 253 257 l 137 143 q 194 309 140 248 q 338 370 248 370 q 496 314 410 370 q 627 256 584 256 q 690 289 667 256 q 715 372 714 321 l 828 372 z "},"Δ":{"ha":932,"x_min":30,"x_max":895,"o":"m 895 0 l 30 0 l 30 66 l 372 972 l 554 972 l 895 66 l 895 0 m 698 136 l 484 739 q 461 827 464 793 l 458 827 q 435 739 455 798 l 223 136 l 698 136 z "},"«":{"ha":749,"x_min":50,"x_max":700,"o":"m 700 136 l 555 136 l 344 363 l 555 597 l 700 597 l 484 363 l 700 136 m 406 136 l 262 136 l 50 363 l 262 597 l 406 597 l 191 363 l 406 136 z "},"»":{"ha":749,"x_min":50,"x_max":701,"o":"m 701 365 l 488 136 l 345 136 l 559 365 l 345 597 l 488 597 l 701 365 m 407 365 l 195 136 l 50 136 l 267 365 l 50 597 l 195 597 l 407 365 z "},"…":{"ha":1130,"x_min":92,"x_max":1039,"o":"m 941 -14 q 902 -6 920 -14 q 872 13 885 1 q 852 42 859 26 q 845 77 845 59 q 852 114 845 97 q 873 143 860 131 q 903 162 886 155 q 941 170 921 170 q 980 163 962 170 q 1011 144 998 156 q 1031 115 1024 132 q 1039 77 1039 98 q 1031 41 1039 58 q 1011 12 1024 24 q 980 -7 998 0 q 941 -14 962 -14 m 564 -14 q 526 -6 543 -14 q 495 13 508 1 q 475 42 482 25 q 467 77 467 58 q 475 115 467 98 q 495 144 482 132 q 526 163 509 156 q 564 170 544 170 q 603 162 585 170 q 634 143 621 155 q 654 114 647 130 q 662 77 662 97 q 654 42 662 58 q 634 13 647 25 q 603 -6 621 1 q 564 -14 585 -14 m 186 -14 q 149 -6 166 -14 q 118 13 131 1 q 99 42 106 26 q 92 77 92 59 q 99 114 92 97 q 118 143 106 130 q 149 162 131 155 q 187 170 166 170 q 225 162 208 170 q 257 143 243 155 q 277 114 270 130 q 285 77 285 97 q 277 42 285 58 q 257 13 270 25 q 225 -6 243 1 q 186 -14 208 -14 z "},"À":{"ha":932,"x_min":12,"x_max":919,"o":"m 919 0 l 742 0 l 654 248 l 272 248 l 188 0 l 12 0 l 376 972 l 557 972 l 919 0 m 612 379 l 477 767 q 464 828 471 786 l 461 828 q 448 767 455 789 l 314 379 l 612 379 m 562 1062 l 444 1062 l 267 1284 l 412 1284 l 562 1062 z "},"Ã":{"ha":932,"x_min":12,"x_max":919,"o":"m 919 0 l 742 0 l 654 248 l 272 248 l 188 0 l 12 0 l 376 972 l 557 972 l 919 0 m 612 379 l 477 767 q 464 828 471 786 l 461 828 q 448 767 455 789 l 314 379 l 612 379 m 692 1245 q 657 1117 692 1166 q 563 1067 623 1067 q 451 1099 514 1067 q 369 1130 398 1130 q 312 1055 312 1130 l 234 1055 q 269 1184 234 1135 q 366 1232 303 1232 q 472 1198 412 1232 q 557 1168 521 1168 q 612 1245 612 1168 l 692 1245 z "},"Õ":{"ha":1050,"x_min":58,"x_max":991,"o":"m 521 -16 q 184 120 311 -16 q 58 475 58 256 q 186 849 58 709 q 536 989 315 989 q 866 853 741 989 q 991 498 991 718 q 863 122 991 260 q 521 -16 735 -16 m 528 847 q 311 747 395 847 q 227 485 227 648 q 309 224 227 323 q 522 125 390 125 q 742 219 661 125 q 823 483 823 313 q 744 752 823 657 q 528 847 666 847 m 761 1244 q 726 1116 761 1166 q 631 1066 691 1066 q 519 1099 583 1066 q 437 1129 467 1129 q 380 1054 380 1129 l 302 1054 q 337 1183 302 1135 q 434 1232 372 1232 q 541 1197 480 1232 q 625 1167 589 1167 q 680 1244 680 1167 l 761 1244 z "},"Œ":{"ha":1299,"x_min":58,"x_max":1242,"o":"m 1242 0 l 744 0 q 648 -9 732 0 q 522 -16 581 -16 q 183 120 308 -16 q 58 475 58 256 q 188 849 58 709 q 542 989 318 989 q 665 982 604 989 q 744 972 743 972 l 1221 972 l 1221 836 l 858 836 l 858 559 l 1194 559 l 1194 422 l 858 422 l 858 136 l 1242 136 l 1242 0 m 694 153 l 694 821 q 530 847 596 847 q 312 745 395 847 q 228 485 228 644 q 310 226 228 327 q 526 125 393 125 q 694 153 597 125 z "},"œ":{"ha":1286,"x_min":58,"x_max":1241,"o":"m 1241 304 l 766 304 q 824 155 768 208 q 977 103 880 103 q 1186 170 1092 103 l 1186 43 q 947 -16 1095 -16 q 686 129 762 -16 l 683 129 q 403 -16 595 -16 q 151 81 244 -16 q 58 338 58 178 q 156 612 58 513 q 420 711 254 711 q 687 570 615 711 l 690 570 q 957 711 772 711 q 1166 618 1091 711 q 1241 366 1241 526 l 1241 304 m 1088 415 q 1048 547 1087 500 q 941 594 1009 594 q 824 543 872 594 q 767 415 777 492 l 1088 415 m 418 585 q 272 520 326 585 q 218 340 218 455 q 272 171 218 233 q 417 109 326 109 q 560 171 509 109 q 610 345 610 232 q 560 523 610 460 q 418 585 510 585 z "},"–":{"ha":694,"x_min":0,"x_max":694,"o":"m 694 321 l 0 321 l 0 437 l 694 437 l 694 321 z "},"—":{"ha":1389,"x_min":0,"x_max":1389,"o":"m 1389 321 l 0 321 l 0 437 l 1389 437 l 1389 321 z "},"“":{"ha":596,"x_min":68,"x_max":523,"o":"m 523 991 l 447 690 l 309 690 l 420 991 l 523 991 m 283 991 l 209 690 l 68 690 l 179 991 l 283 991 z "},"”":{"ha":596,"x_min":75,"x_max":530,"o":"m 530 991 l 420 690 l 315 690 l 391 991 l 530 991 m 290 991 l 179 690 l 75 690 l 152 991 l 290 991 z "},"‘":{"ha":356,"x_min":68,"x_max":283,"o":"m 283 991 l 209 690 l 68 690 l 179 991 l 283 991 z "},"’":{"ha":356,"x_min":75,"x_max":290,"o":"m 290 991 l 179 690 l 75 690 l 152 991 l 290 991 z "},"÷":{"ha":964,"x_min":159,"x_max":807,"o":"m 490 582 q 430 605 454 582 q 405 663 405 629 q 428 723 405 698 q 487 747 450 747 q 567 664 567 747 q 544 605 567 628 q 490 582 522 582 m 807 345 l 159 345 l 159 457 l 807 457 l 807 345 m 484 56 q 426 79 450 56 q 401 136 401 102 q 425 196 401 170 q 484 221 448 221 q 564 137 564 221 q 541 79 564 102 q 484 56 518 56 z "},"◊":{"ha":813,"x_min":62,"x_max":750,"o":"m 750 486 l 437 0 l 374 0 l 62 485 l 374 972 l 437 972 l 750 486 m 630 486 l 406 844 l 182 486 l 406 127 l 630 486 z "},"ÿ":{"ha":706,"x_min":4,"x_max":704,"o":"m 704 694 l 391 -111 q 117 -327 293 -327 q 34 -318 67 -327 l 34 -187 q 102 -199 71 -199 q 233 -113 190 -199 l 280 1 l 4 694 l 178 694 l 344 190 q 356 140 347 180 l 359 140 q 372 189 363 155 l 545 694 l 704 694 m 498 816 q 440 838 465 816 q 415 895 415 861 q 439 951 415 928 q 496 973 463 973 q 557 950 532 973 q 582 895 582 928 q 558 839 582 862 q 498 816 534 816 m 216 816 q 156 839 181 816 q 131 895 131 863 q 155 951 131 928 q 214 973 179 973 q 274 950 248 973 q 299 895 299 928 q 275 839 299 862 q 216 816 250 816 z "},"Ÿ":{"ha":802,"x_min":7,"x_max":798,"o":"m 798 972 l 479 353 l 479 0 l 317 0 l 317 350 l 7 972 l 191 972 l 382 555 q 402 499 385 548 l 404 499 q 427 555 410 521 l 627 972 l 798 972 m 544 1061 q 485 1084 510 1061 q 460 1141 460 1106 q 484 1196 460 1174 q 542 1219 508 1219 q 603 1196 578 1219 q 627 1141 627 1173 q 604 1084 627 1107 q 544 1061 580 1061 m 262 1061 q 201 1085 227 1061 q 176 1141 176 1108 q 200 1196 176 1174 q 259 1219 224 1219 q 319 1196 294 1219 q 345 1141 345 1173 q 320 1084 345 1107 q 262 1061 296 1061 z "},"⁄":{"ha":351,"x_min":-178,"x_max":543,"o":"m 543 972 l -50 0 l -178 0 l 414 972 l 543 972 z "},"€":{"ha":771,"x_min":71,"x_max":712,"o":"m 712 34 q 513 -16 618 -16 q 153 317 211 -16 l 71 317 l 71 428 l 140 428 q 138 475 138 447 q 142 540 138 503 l 71 540 l 71 649 l 157 649 q 293 899 193 808 q 538 989 394 989 q 712 951 635 989 l 712 814 q 543 867 637 867 q 398 808 461 867 q 310 649 335 749 l 625 649 l 625 540 l 292 540 q 292 428 287 480 l 625 428 l 625 317 l 307 317 q 535 104 353 104 q 712 163 620 104 l 712 34 z "},"‹":{"ha":456,"x_min":50,"x_max":407,"o":"m 406 136 l 262 136 l 50 363 l 262 597 l 407 597 l 191 363 l 406 136 z "},"›":{"ha":456,"x_min":50,"x_max":407,"o":"m 407 365 l 195 136 l 50 136 l 266 365 l 51 597 l 195 597 l 407 365 z "},"ﬁ":{"ha":840,"x_min":32,"x_max":757,"o":"m 494 900 q 422 918 463 918 q 307 789 307 918 l 307 694 l 469 694 l 469 571 l 308 571 l 308 0 l 151 0 l 151 571 l 32 571 l 32 694 l 151 694 l 151 807 q 222 980 151 917 q 402 1044 294 1044 q 494 1031 460 1044 l 494 900 m 661 840 q 595 865 623 840 q 568 929 568 890 q 595 994 568 968 q 661 1019 623 1019 q 729 994 701 1019 q 757 929 757 968 q 729 866 757 892 q 661 840 701 840 m 739 0 l 582 0 l 582 694 l 739 694 l 739 0 z "},"ﬂ":{"ha":840,"x_min":33,"x_max":740,"o":"m 495 900 q 422 918 463 918 q 308 789 308 918 l 308 694 l 469 694 l 469 571 l 309 571 l 309 0 l 151 0 l 151 571 l 33 571 l 33 694 l 151 694 l 151 807 q 223 980 151 917 q 403 1044 295 1044 q 495 1031 461 1044 l 495 900 m 740 0 l 582 0 l 582 1028 l 740 1028 l 740 0 z "},"‡":{"ha":541,"x_min":44,"x_max":494,"o":"m 494 385 l 324 385 l 324 165 l 214 165 l 214 385 l 44 385 l 44 477 l 214 477 l 214 665 l 44 665 l 44 760 l 214 760 l 214 971 l 324 971 l 324 760 l 494 760 l 494 665 l 324 665 l 324 477 l 494 477 l 494 385 z "},"·":{"ha":335,"x_min":70,"x_max":267,"o":"m 166 338 q 98 366 126 338 q 70 431 70 393 q 99 496 70 469 q 168 523 127 523 q 238 496 209 523 q 267 431 267 469 q 237 366 267 393 q 166 338 208 338 z "},"‚":{"ha":356,"x_min":60,"x_max":275,"o":"m 275 148 l 163 -154 l 60 -154 l 136 148 l 275 148 z "},"„":{"ha":596,"x_min":60,"x_max":515,"o":"m 515 148 l 404 -154 l 300 -154 l 375 148 l 515 148 m 275 148 l 163 -154 l 60 -154 l 136 148 l 275 148 z "},"‰":{"ha":1710,"x_min":57,"x_max":1651,"o":"m 282 482 q 118 549 179 482 q 57 726 57 615 q 122 917 57 847 q 296 987 186 987 q 461 922 403 987 q 520 741 520 857 q 454 553 520 623 q 282 482 389 482 m 292 892 q 204 849 236 892 q 172 732 172 806 q 203 618 172 659 q 290 577 235 577 q 376 620 345 577 q 407 737 407 662 q 376 851 407 810 q 292 892 345 892 m 960 972 l 331 -3 l 203 -3 l 831 972 l 960 972 m 1413 -14 q 1249 52 1310 -14 q 1188 229 1188 119 q 1254 420 1188 349 q 1428 490 1320 490 q 1593 426 1534 490 q 1651 243 1651 361 q 1586 56 1651 126 q 1413 -14 1520 -14 m 1423 395 q 1335 352 1367 395 q 1303 235 1303 309 q 1335 121 1303 162 q 1421 81 1367 81 q 1508 123 1476 81 q 1539 241 1539 166 q 1508 354 1539 314 q 1423 395 1476 395 m 873 -14 q 709 52 770 -14 q 648 229 648 119 q 714 420 648 350 q 887 490 779 490 q 1052 425 993 490 q 1111 243 1111 360 q 1045 56 1111 126 q 873 -14 979 -14 m 883 395 q 794 352 827 395 q 762 235 762 310 q 794 122 762 163 q 880 81 826 81 q 967 123 936 81 q 998 241 998 166 q 967 355 998 315 q 883 395 937 395 z "},"Â":{"ha":932,"x_min":12,"x_max":919,"o":"m 919 0 l 742 0 l 654 248 l 272 248 l 188 0 l 12 0 l 376 972 l 557 972 l 919 0 m 612 379 l 477 767 q 464 828 471 786 l 461 828 q 448 767 455 789 l 314 379 l 612 379 m 674 1062 l 566 1062 l 456 1205 l 350 1062 l 245 1062 l 397 1284 l 522 1284 l 674 1062 z "},"Ê":{"ha":719,"x_min":120,"x_max":666,"o":"m 666 0 l 120 0 l 120 972 l 644 972 l 644 836 l 281 836 l 281 560 l 616 560 l 616 424 l 281 424 l 281 136 l 666 136 l 666 0 m 592 1063 l 484 1063 l 374 1206 l 268 1063 l 163 1063 l 315 1285 l 439 1285 l 592 1063 z "},"Á":{"ha":932,"x_min":12,"x_max":919,"o":"m 919 0 l 742 0 l 654 248 l 272 248 l 188 0 l 12 0 l 376 972 l 557 972 l 919 0 m 612 379 l 477 767 q 464 828 471 786 l 461 828 q 448 767 455 789 l 314 379 l 612 379 m 647 1294 l 453 1072 l 336 1072 l 500 1294 l 647 1294 z "},"Ë":{"ha":719,"x_min":120,"x_max":666,"o":"m 666 0 l 120 0 l 120 972 l 644 972 l 644 836 l 281 836 l 281 560 l 616 560 l 616 424 l 281 424 l 281 136 l 666 136 l 666 0 m 526 1061 q 468 1084 492 1061 q 443 1141 443 1106 q 467 1196 443 1174 q 524 1219 490 1219 q 585 1196 560 1219 q 610 1141 610 1173 q 586 1084 610 1107 q 526 1061 562 1061 m 244 1061 q 184 1085 209 1061 q 159 1141 159 1108 q 183 1196 159 1174 q 241 1219 207 1219 q 301 1196 276 1219 q 327 1141 327 1173 q 302 1084 327 1107 q 244 1061 278 1061 z "},"È":{"ha":719,"x_min":120,"x_max":666,"o":"m 666 0 l 120 0 l 120 972 l 644 972 l 644 836 l 281 836 l 281 560 l 616 560 l 616 424 l 281 424 l 281 136 l 666 136 l 666 0 m 496 1062 l 378 1062 l 201 1284 l 346 1284 l 496 1062 z "},"Í":{"ha":405,"x_min":85,"x_max":396,"o":"m 286 0 l 119 0 l 119 972 l 286 972 l 286 0 m 396 1294 l 202 1072 l 85 1072 l 250 1294 l 396 1294 z "},"Î":{"ha":405,"x_min":-9,"x_max":420,"o":"m 286 0 l 119 0 l 119 972 l 286 972 l 286 0 m 420 1063 l 312 1063 l 203 1206 l 96 1063 l -9 1063 l 143 1285 l 268 1285 l 420 1063 z "},"Ï":{"ha":405,"x_min":-21,"x_max":430,"o":"m 286 0 l 119 0 l 119 972 l 286 972 l 286 0 m 347 1061 q 288 1084 313 1061 q 263 1141 263 1106 q 287 1196 263 1174 q 345 1219 311 1219 q 405 1196 380 1219 q 430 1141 430 1173 q 406 1084 430 1107 q 347 1061 382 1061 m 64 1061 q 4 1085 29 1061 q -21 1141 -21 1108 q 3 1196 -21 1174 q 62 1219 27 1219 q 122 1196 96 1219 q 147 1141 147 1173 q 123 1084 147 1107 q 64 1061 98 1061 z "},"Ì":{"ha":405,"x_min":23,"x_max":318,"o":"m 286 0 l 119 0 l 119 972 l 286 972 l 286 0 m 318 1062 l 201 1062 l 23 1284 l 168 1284 l 318 1062 z "},"Ó":{"ha":1050,"x_min":58,"x_max":991,"o":"m 521 -16 q 184 120 311 -16 q 58 475 58 256 q 186 849 58 709 q 536 989 315 989 q 866 853 741 989 q 991 498 991 718 q 863 122 991 260 q 521 -16 735 -16 m 528 847 q 311 747 395 847 q 227 485 227 648 q 309 224 227 323 q 522 125 390 125 q 742 219 661 125 q 823 483 823 313 q 744 752 823 657 q 528 847 666 847 m 730 1294 l 536 1072 l 419 1072 l 583 1294 l 730 1294 z "},"Ô":{"ha":1050,"x_min":58,"x_max":991,"o":"m 521 -16 q 184 120 311 -16 q 58 475 58 256 q 186 849 58 709 q 536 989 315 989 q 866 853 741 989 q 991 498 991 718 q 863 122 991 260 q 521 -16 735 -16 m 528 847 q 311 747 395 847 q 227 485 227 648 q 309 224 227 323 q 522 125 390 125 q 742 219 661 125 q 823 483 823 313 q 744 752 823 657 q 528 847 666 847 m 747 1062 l 638 1062 l 529 1205 l 422 1062 l 317 1062 l 469 1284 l 594 1284 l 747 1062 z "},"Ò":{"ha":1050,"x_min":58,"x_max":991,"o":"m 521 -16 q 184 120 311 -16 q 58 475 58 256 q 186 849 58 709 q 536 989 315 989 q 866 853 741 989 q 991 498 991 718 q 863 122 991 260 q 521 -16 735 -16 m 528 847 q 311 747 395 847 q 227 485 227 648 q 309 224 227 323 q 522 125 390 125 q 742 219 661 125 q 823 483 823 313 q 744 752 823 657 q 528 847 666 847 m 624 1062 l 507 1062 l 329 1284 l 474 1284 l 624 1062 z "},"Ú":{"ha":977,"x_min":109,"x_max":868,"o":"m 868 393 q 480 -16 868 -16 q 109 378 109 -16 l 109 972 l 270 972 l 270 411 q 492 125 270 125 q 707 401 707 125 l 707 972 l 868 972 l 868 393 m 698 1294 l 504 1072 l 387 1072 l 551 1294 l 698 1294 z "},"Û":{"ha":977,"x_min":109,"x_max":868,"o":"m 868 393 q 480 -16 868 -16 q 109 378 109 -16 l 109 972 l 270 972 l 270 411 q 492 125 270 125 q 707 401 707 125 l 707 972 l 868 972 l 868 393 m 703 1063 l 595 1063 l 486 1206 l 379 1063 l 274 1063 l 426 1285 l 551 1285 l 703 1063 z "},"Ù":{"ha":977,"x_min":109,"x_max":868,"o":"m 868 393 q 480 -16 868 -16 q 109 378 109 -16 l 109 972 l 270 972 l 270 411 q 492 125 270 125 q 707 401 707 125 l 707 972 l 868 972 l 868 393 m 590 1062 l 473 1062 l 295 1284 l 440 1284 l 590 1062 z "},"ı":{"ha":363,"x_min":102,"x_max":260,"o":"m 260 0 l 102 0 l 102 694 l 260 694 l 260 0 z "},"ˆ":{"ha":523,"x_min":44,"x_max":473,"o":"m 473 817 l 365 817 l 256 960 l 149 817 l 44 817 l 196 1039 l 321 1039 l 473 817 z "},"˜":{"ha":497,"x_min":24,"x_max":482,"o":"m 482 1000 q 447 872 482 922 q 353 822 412 822 q 241 854 304 822 q 159 885 188 885 q 102 810 102 885 l 24 810 q 58 939 24 890 q 155 987 93 987 q 262 953 201 987 q 347 923 311 923 q 401 1000 401 923 l 482 1000 z "},"ˉ":{"ha":448,"x_min":39,"x_max":407,"o":"m 407 817 l 39 817 l 39 909 l 407 909 l 407 817 z "},"˘":{"ha":448,"x_min":19,"x_max":430,"o":"m 430 1004 q 364 868 422 920 q 222 817 305 817 q 78 868 134 817 q 19 1004 23 919 l 111 1004 q 224 905 119 905 q 299 931 268 905 q 337 1004 330 958 l 430 1004 z "},"˙":{"ha":312,"x_min":73,"x_max":239,"o":"m 156 816 q 97 839 122 816 q 73 895 73 861 q 97 949 73 927 q 156 972 121 972 q 215 950 191 972 q 239 895 239 928 q 215 839 239 862 q 156 816 191 816 z "},"˚":{"ha":383,"x_min":42,"x_max":342,"o":"m 189 800 q 84 837 125 800 q 42 933 42 873 q 85 1039 42 1000 q 194 1078 127 1078 q 301 1039 259 1078 q 342 937 342 999 q 298 839 342 878 q 189 800 254 800 m 189 1010 q 139 990 159 1010 q 119 940 119 970 q 189 869 119 869 q 243 889 222 869 q 264 940 264 909 q 243 990 264 970 q 189 1010 222 1010 z "},"¸":{"ha":291,"x_min":35,"x_max":285,"o":"m 285 -168 q 90 -300 285 -300 q 35 -298 58 -300 l 35 -222 q 83 -227 64 -227 q 173 -171 173 -227 q 91 -121 173 -121 q 64 -123 84 -121 l 64 0 l 157 0 l 157 -64 q 250 -91 216 -64 q 285 -168 285 -119 z "},"˝":{"ha":502,"x_min":34,"x_max":507,"o":"m 507 1032 l 338 817 l 238 817 l 381 1032 l 507 1032 m 299 1032 l 134 817 l 34 817 l 175 1032 l 299 1032 z "},"˛":{"ha":308,"x_min":53,"x_max":254,"o":"m 254 0 q 151 -146 151 -93 q 195 -193 151 -193 q 241 -184 220 -193 l 241 -266 q 170 -277 216 -277 q 85 -248 117 -277 q 53 -170 53 -220 q 162 0 53 -87 l 254 0 z "},"ˇ":{"ha":523,"x_min":48,"x_max":477,"o":"m 477 1038 l 326 817 l 200 817 l 48 1038 l 153 1038 l 262 896 l 371 1038 l 477 1038 z "},"Ł":{"ha":679,"x_min":13,"x_max":659,"o":"m 659 0 l 120 0 l 120 347 l 13 284 l 13 421 l 120 483 l 120 972 l 281 972 l 281 570 l 490 691 l 490 553 l 281 433 l 281 136 l 659 136 l 659 0 z "},"ł":{"ha":406,"x_min":17,"x_max":384,"o":"m 384 532 l 277 460 l 277 0 l 120 0 l 120 359 l 17 290 l 17 427 l 120 496 l 120 1028 l 277 1028 l 277 597 l 384 669 l 384 532 z "},"Š":{"ha":756,"x_min":75,"x_max":698,"o":"m 75 39 l 75 205 q 129 168 98 184 q 194 141 159 152 q 263 123 229 130 q 327 117 298 117 q 478 151 429 117 q 528 250 528 185 q 512 310 528 284 q 465 356 495 335 q 395 396 435 377 q 309 437 355 416 q 216 490 259 463 q 142 550 174 517 q 93 625 111 583 q 75 722 75 666 q 105 841 75 790 q 187 924 136 891 q 302 973 237 957 q 433 989 366 989 q 656 954 586 989 l 656 795 q 443 854 573 854 q 371 848 407 854 q 308 825 336 841 q 262 785 279 810 q 244 726 244 761 q 258 670 244 694 q 297 627 271 646 q 361 588 323 607 q 448 548 399 570 q 544 492 499 522 q 624 428 589 463 q 678 350 658 393 q 698 252 698 307 q 668 127 698 178 q 588 44 638 76 q 471 -2 537 12 q 332 -16 406 -16 q 272 -13 308 -16 q 199 -2 237 -9 q 129 16 162 5 q 75 39 96 26 m 604 1276 l 452 1054 l 327 1054 l 175 1276 l 280 1276 l 389 1133 l 498 1276 l 604 1276 z "},"š":{"ha":599,"x_min":59,"x_max":552,"o":"m 59 22 l 59 168 q 254 100 147 100 q 396 184 396 100 q 384 225 396 208 q 351 254 372 241 q 302 277 330 267 q 239 300 274 288 q 162 336 197 317 q 105 379 128 355 q 71 434 83 404 q 60 505 60 465 q 83 594 60 555 q 147 658 107 632 q 238 697 187 684 q 343 711 289 711 q 515 682 439 711 l 515 544 q 347 594 442 594 q 293 588 317 594 q 252 571 269 582 q 226 545 235 560 q 216 511 216 530 q 226 473 216 489 q 254 446 235 458 q 299 424 273 434 q 359 403 325 414 q 439 366 404 385 q 500 322 475 347 q 538 267 525 298 q 552 192 552 235 q 528 100 552 139 q 463 35 503 60 q 369 -4 422 9 q 256 -16 315 -16 q 59 22 142 -16 m 537 1038 l 385 817 l 260 817 l 108 1038 l 213 1038 l 321 896 l 431 1038 l 537 1038 z "},"Ž":{"ha":815,"x_min":24,"x_max":783,"o":"m 783 902 l 250 136 l 777 136 l 777 0 l 24 0 l 24 74 l 559 836 l 66 836 l 66 972 l 783 972 l 783 902 m 637 1274 l 486 1052 l 360 1052 l 208 1274 l 313 1274 l 422 1131 l 531 1274 l 637 1274 z "},"ž":{"ha":645,"x_min":20,"x_max":615,"o":"m 615 629 l 240 123 l 614 123 l 614 0 l 20 0 l 20 59 l 403 572 l 56 572 l 56 694 l 615 694 l 615 629 m 557 1038 l 406 817 l 280 817 l 128 1038 l 233 1038 l 342 896 l 451 1038 l 557 1038 z "},"¦":{"ha":387,"x_min":128,"x_max":260,"o":"m 260 475 l 128 475 l 128 1062 l 260 1062 l 260 475 m 260 -327 l 128 -327 l 128 264 l 260 264 l 260 -327 z "},"Ð":{"ha":996,"x_min":10,"x_max":939,"o":"m 120 0 l 120 418 l 10 418 l 10 557 l 120 557 l 120 972 l 401 972 q 939 498 939 972 q 789 136 939 272 q 389 0 640 0 l 120 0 m 281 836 l 281 557 l 489 557 l 489 418 l 281 418 l 281 136 l 410 136 q 674 230 580 136 q 769 496 769 323 q 416 836 769 836 l 281 836 z "},"ð":{"ha":798,"x_min":58,"x_max":739,"o":"m 524 655 l 526 657 q 393 829 465 762 l 193 728 l 149 808 l 323 892 q 142 1028 242 963 l 332 1028 q 436 947 378 998 l 627 1042 l 671 965 l 507 884 q 739 368 739 676 q 647 93 739 200 q 396 -15 555 -15 q 147 81 237 -15 q 58 343 58 177 q 145 606 58 505 q 382 707 233 707 q 524 655 465 707 m 404 585 q 268 521 317 585 q 218 345 218 456 q 267 172 218 236 q 401 109 315 109 q 531 174 483 109 q 578 349 578 239 q 404 585 578 585 z "},"Ý":{"ha":802,"x_min":7,"x_max":798,"o":"m 798 972 l 479 353 l 479 0 l 317 0 l 317 350 l 7 972 l 191 972 l 382 555 q 402 499 385 548 l 404 499 q 427 555 410 521 l 627 972 l 798 972 m 616 1284 l 422 1062 l 305 1062 l 469 1284 l 616 1284 z "},"ý":{"ha":706,"x_min":4,"x_max":704,"o":"m 704 694 l 391 -111 q 117 -327 293 -327 q 34 -318 67 -327 l 34 -187 q 102 -199 71 -199 q 233 -113 190 -199 l 280 1 l 4 694 l 178 694 l 344 190 q 356 140 347 180 l 359 140 q 372 189 363 155 l 545 694 l 704 694 m 573 1048 l 379 826 l 262 826 l 427 1048 l 573 1048 z "},"Þ":{"ha":812,"x_min":120,"x_max":767,"o":"m 281 204 l 281 0 l 120 0 l 120 972 l 281 972 l 281 824 l 422 824 q 677 746 588 824 q 767 525 767 668 q 670 294 767 383 q 409 204 573 204 l 281 204 m 281 692 l 281 336 l 386 336 q 543 383 488 336 q 597 517 597 430 q 398 692 597 692 l 281 692 z "},"þ":{"ha":837,"x_min":102,"x_max":779,"o":"m 260 91 l 260 -319 l 102 -319 l 102 1028 l 260 1028 l 260 580 l 262 580 q 495 711 342 711 q 704 617 629 711 q 779 368 779 524 q 694 89 779 193 q 463 -16 610 -16 q 260 91 332 -16 m 258 374 l 258 295 q 307 163 258 217 q 429 109 355 109 q 567 178 517 109 q 617 370 617 247 q 570 528 617 471 q 444 585 524 585 q 309 525 360 585 q 258 374 258 465 z "},"−":{"ha":964,"x_min":159,"x_max":807,"o":"m 807 346 l 159 346 l 159 458 l 807 458 l 807 346 z "},"×":{"ha":964,"x_min":174,"x_max":792,"o":"m 792 172 l 713 93 l 483 323 l 253 93 l 174 172 l 404 401 l 174 631 l 252 711 l 483 480 l 714 711 l 791 630 l 562 401 l 792 172 z "},"½":{"ha":1314,"x_min":57,"x_max":1214,"o":"m 208 397 l 208 854 q 166 822 189 837 q 123 795 144 807 q 85 775 102 783 q 57 764 67 767 l 57 865 q 115 889 85 875 q 172 919 144 903 q 224 952 200 935 q 268 987 249 970 l 323 987 l 323 397 l 208 397 m 1214 1 l 823 1 l 823 60 q 842 134 823 102 q 890 194 861 167 q 952 245 919 221 q 1015 294 986 269 q 1063 346 1044 319 q 1082 408 1082 374 q 1060 465 1082 443 q 1000 486 1037 486 q 854 417 920 486 l 854 538 q 1019 591 914 591 q 1096 579 1061 591 q 1154 545 1130 567 q 1191 492 1178 524 q 1204 422 1204 461 q 1185 336 1204 375 q 1139 264 1166 296 q 1079 207 1112 232 q 1019 162 1046 181 q 973 129 991 142 q 954 105 954 115 l 954 100 l 1214 100 l 1214 1 m 980 972 l 387 0 l 258 0 l 850 972 l 980 972 z "},"¼":{"ha":1287,"x_min":57,"x_max":1200,"o":"m 208 397 l 208 854 q 166 822 189 837 q 123 795 144 807 q 85 775 102 783 q 57 764 67 767 l 57 865 q 115 889 85 875 q 172 919 144 903 q 224 952 200 935 q 268 987 249 970 l 323 987 l 323 397 l 208 397 m 981 972 l 388 0 l 260 0 l 852 972 l 981 972 m 1200 130 l 1125 130 l 1125 1 l 1010 1 l 1010 130 l 743 130 l 743 214 q 807 293 777 253 q 868 376 838 332 q 927 469 898 420 q 988 577 957 519 l 1125 577 l 1125 218 l 1200 218 l 1200 130 m 1010 218 l 1010 457 q 981 403 1000 435 q 939 337 962 371 q 893 271 917 303 q 851 218 870 239 l 1010 218 z "},"¾":{"ha":1339,"x_min":88,"x_max":1238,"o":"m 88 418 l 88 526 q 237 477 159 477 q 317 499 288 477 q 347 559 347 522 q 201 644 347 644 l 145 644 l 145 739 l 198 739 q 328 818 328 739 q 239 890 328 890 q 109 844 173 890 l 109 949 q 261 986 171 986 q 393 945 344 986 q 441 838 441 904 q 344 703 441 739 l 344 700 q 462 564 462 671 q 401 433 462 484 q 237 382 340 382 q 88 418 142 382 m 1025 972 l 431 0 l 303 0 l 895 972 l 1025 972 m 1238 130 l 1163 130 l 1163 1 l 1048 1 l 1048 130 l 781 130 l 781 214 q 845 293 814 253 q 906 376 876 332 q 965 469 936 420 q 1026 577 995 519 l 1163 577 l 1163 218 l 1238 218 l 1238 130 m 1048 218 l 1048 457 q 1019 403 1038 435 q 977 337 1000 371 q 931 271 955 303 q 889 218 908 239 l 1048 218 z "},"₣":{"ha":698,"x_min":10,"x_max":644,"o":"m 455 161 l 281 161 l 281 0 l 120 0 l 120 161 l 10 161 l 10 281 l 120 281 l 120 972 l 644 972 l 644 836 l 281 836 l 281 543 l 616 543 l 616 406 l 281 406 l 281 281 l 455 281 l 455 161 z "},"Ğ":{"ha":968,"x_min":58,"x_max":879,"o":"m 879 66 q 541 -16 727 -16 q 191 118 325 -16 q 58 473 58 252 q 204 844 58 699 q 575 989 350 989 q 848 941 737 989 l 848 775 q 581 850 736 850 q 327 747 426 850 q 227 482 227 645 q 313 219 227 315 q 545 123 398 123 q 718 161 645 123 l 718 393 l 513 393 l 513 528 l 879 528 l 879 66 m 747 1249 q 681 1114 740 1165 q 539 1062 623 1062 q 396 1113 451 1062 q 336 1249 340 1164 l 429 1249 q 541 1150 437 1150 q 616 1177 585 1150 q 654 1249 648 1204 l 747 1249 z "},"ğ":{"ha":837,"x_min":58,"x_max":734,"o":"m 734 56 q 350 -327 734 -327 q 113 -281 214 -327 l 113 -138 q 330 -203 227 -203 q 577 41 577 -203 l 577 117 l 574 117 q 340 -16 496 -16 q 135 76 213 -16 q 58 325 58 169 q 141 606 58 502 q 370 711 224 711 q 574 598 508 711 l 577 598 l 577 694 l 734 694 l 734 56 m 578 318 l 578 408 q 530 533 578 481 q 409 585 481 585 q 269 519 319 585 q 218 334 218 453 q 267 171 218 232 q 395 109 315 109 q 528 168 477 109 q 578 318 578 227 m 620 1004 q 554 868 612 920 q 412 817 495 817 q 268 868 323 817 q 209 1004 213 919 l 301 1004 q 414 905 309 905 q 489 931 458 905 q 527 1004 520 958 l 620 1004 z "},"İ":{"ha":405,"x_min":117,"x_max":286,"o":"m 286 0 l 119 0 l 119 972 l 286 972 l 286 0 m 200 1062 q 141 1085 166 1062 q 117 1141 117 1107 q 141 1196 117 1173 q 200 1218 165 1218 q 259 1196 235 1218 q 283 1141 283 1174 q 259 1085 283 1108 q 200 1062 235 1062 z "},"Ş":{"ha":756,"x_min":75,"x_max":698,"o":"m 75 39 l 75 205 q 129 168 98 184 q 194 141 159 152 q 263 123 229 130 q 327 117 298 117 q 478 151 429 117 q 528 250 528 185 q 512 310 528 284 q 465 356 495 335 q 395 396 435 377 q 309 437 355 416 q 216 490 259 463 q 142 550 174 517 q 93 625 111 583 q 75 722 75 666 q 105 841 75 790 q 187 924 136 891 q 302 973 237 957 q 433 989 366 989 q 656 954 586 989 l 656 795 q 443 854 573 854 q 371 848 407 854 q 308 825 336 841 q 262 785 279 810 q 244 726 244 761 q 258 670 244 694 q 297 627 271 646 q 361 588 323 607 q 448 548 399 570 q 544 492 499 522 q 624 428 589 463 q 678 350 658 393 q 698 252 698 307 q 668 127 698 178 q 588 44 638 76 q 471 -2 537 12 q 332 -16 406 -16 q 272 -13 308 -16 q 199 -2 237 -9 q 129 16 162 5 q 75 39 96 26 m 536 -168 q 340 -300 536 -300 q 286 -298 309 -300 l 286 -222 q 334 -227 315 -227 q 424 -171 424 -227 q 342 -121 424 -121 q 315 -123 335 -121 l 315 0 l 408 0 l 408 -64 q 501 -91 467 -64 q 536 -168 536 -119 z "},"ş":{"ha":599,"x_min":59,"x_max":552,"o":"m 59 22 l 59 168 q 254 100 147 100 q 396 184 396 100 q 384 225 396 208 q 351 254 372 241 q 302 277 330 267 q 239 300 274 288 q 162 336 197 317 q 105 379 128 355 q 71 434 83 404 q 60 505 60 465 q 83 594 60 555 q 147 658 107 632 q 238 697 187 684 q 343 711 289 711 q 515 682 439 711 l 515 544 q 347 594 442 594 q 293 588 317 594 q 252 571 269 582 q 226 545 235 560 q 216 511 216 530 q 226 473 216 489 q 254 446 235 458 q 299 424 273 434 q 359 403 325 414 q 439 366 404 385 q 500 322 475 347 q 538 267 525 298 q 552 192 552 235 q 528 100 552 139 q 463 35 503 60 q 369 -4 422 9 q 256 -16 315 -16 q 59 22 142 -16 m 451 -168 q 256 -300 451 -300 q 201 -298 224 -300 l 201 -222 q 249 -227 231 -227 q 339 -171 339 -227 q 257 -121 339 -121 q 231 -123 250 -121 l 231 0 l 323 0 l 323 -64 q 416 -91 382 -64 q 451 -168 451 -119 z "},"Ć":{"ha":863,"x_min":58,"x_max":798,"o":"m 798 41 q 525 -16 688 -16 q 186 117 313 -16 q 58 468 58 251 q 202 845 58 701 q 564 989 345 989 q 798 949 705 989 l 798 789 q 581 847 700 847 q 325 746 423 847 q 227 476 227 645 q 319 220 227 315 q 559 125 410 125 q 798 190 697 125 l 798 41 m 732 1294 l 538 1072 l 421 1072 l 585 1294 l 732 1294 z "},"ć":{"ha":653,"x_min":58,"x_max":600,"o":"m 600 32 q 402 -16 516 -16 q 153 80 248 -16 q 58 331 58 177 q 160 607 58 503 q 433 711 262 711 q 600 677 528 711 l 600 531 q 446 585 528 585 q 282 518 346 585 q 218 341 218 450 q 278 171 218 233 q 439 109 338 109 q 600 169 524 109 l 600 32 m 594 1048 l 400 826 l 283 826 l 448 1048 l 594 1048 z "},"Č":{"ha":863,"x_min":58,"x_max":798,"o":"m 798 41 q 525 -16 688 -16 q 186 117 313 -16 q 58 468 58 251 q 202 845 58 701 q 564 989 345 989 q 798 949 705 989 l 798 789 q 581 847 700 847 q 325 746 423 847 q 227 476 227 645 q 319 220 227 315 q 559 125 410 125 q 798 190 697 125 l 798 41 m 747 1284 l 595 1062 l 470 1062 l 318 1284 l 423 1284 l 532 1141 l 641 1284 l 747 1284 z "},"č":{"ha":653,"x_min":58,"x_max":609,"o":"m 600 32 q 402 -16 516 -16 q 153 80 248 -16 q 58 331 58 177 q 160 607 58 503 q 433 711 262 711 q 600 677 528 711 l 600 531 q 446 585 528 585 q 282 518 346 585 q 218 341 218 450 q 278 171 218 233 q 439 109 338 109 q 600 169 524 109 l 600 32 m 609 1038 l 457 817 l 332 817 l 180 1038 l 285 1038 l 393 896 l 503 1038 l 609 1038 z "},"đ":{"ha":845,"x_min":58,"x_max":828,"o":"m 734 0 l 576 0 l 576 108 l 574 108 q 350 -16 501 -16 q 137 77 217 -16 q 58 331 58 170 q 144 607 58 503 q 375 711 231 711 q 574 606 510 711 l 576 606 l 576 806 l 352 806 l 352 918 l 576 918 l 576 1028 l 734 1028 l 734 918 l 828 918 l 828 806 l 734 806 l 734 0 m 578 320 l 578 404 q 530 533 578 480 q 406 585 481 585 q 269 519 319 585 q 218 336 218 453 q 267 170 218 231 q 397 109 315 109 q 528 169 477 109 q 578 320 578 229 z "},"¯":{"ha":576,"x_min":0,"x_max":576,"o":"m 576 947 l 0 947 l 0 1028 l 576 1028 l 576 947 z "},"∙":{"ha":335,"x_min":70,"x_max":267,"o":"m 166 338 q 98 366 126 338 q 70 431 70 393 q 99 496 70 469 q 168 523 127 523 q 238 496 209 523 q 267 431 267 469 q 237 366 267 393 q 166 338 208 338 z "},"Ă":{"ha":932,"x_min":12,"x_max":919,"o":"m 919 0 l 742 0 l 654 248 l 272 248 l 188 0 l 12 0 l 376 972 l 557 972 l 919 0 m 612 379 l 477 767 q 464 828 471 786 l 461 828 q 448 767 455 789 l 314 379 l 612 379 m 670 1250 q 604 1114 663 1166 q 462 1063 545 1063 q 318 1114 374 1063 q 259 1250 263 1165 l 351 1250 q 464 1151 359 1151 q 539 1178 508 1151 q 577 1250 570 1204 l 670 1250 z "},"ă":{"ha":725,"x_min":51,"x_max":635,"o":"m 635 0 l 483 0 l 483 109 l 480 109 q 269 -16 408 -16 q 109 39 167 -16 q 51 186 51 95 q 277 416 51 383 l 484 445 q 342 593 484 593 q 119 508 218 593 l 119 646 q 372 711 229 711 q 635 452 635 711 l 635 0 m 484 341 l 338 321 q 236 288 270 312 q 201 203 201 264 q 233 131 201 159 q 317 103 264 103 q 436 154 389 103 q 484 281 484 204 l 484 341 m 577 1004 q 511 868 570 920 q 369 817 452 817 q 225 868 281 817 q 166 1004 170 919 l 258 1004 q 371 905 267 905 q 446 931 415 905 q 484 1004 477 958 l 577 1004 z "},"Ą":{"ha":932,"x_min":12,"x_max":919,"o":"m 919 0 l 742 0 l 654 248 l 272 248 l 188 0 l 12 0 l 376 972 l 557 972 l 919 0 m 612 379 l 477 767 q 464 828 471 786 l 461 828 q 448 767 455 789 l 314 379 l 612 379 m 832 0 q 730 -146 730 -93 q 774 -193 730 -193 q 820 -184 798 -193 l 820 -266 q 749 -277 794 -277 q 664 -248 696 -277 q 631 -170 631 -220 q 741 0 631 -87 l 832 0 z "},"ą":{"ha":725,"x_min":51,"x_max":635,"o":"m 635 0 l 483 0 l 483 109 l 480 109 q 269 -16 408 -16 q 109 39 167 -16 q 51 186 51 95 q 277 416 51 383 l 484 445 q 342 593 484 593 q 119 508 218 593 l 119 646 q 372 711 229 711 q 635 452 635 711 l 635 0 m 484 341 l 338 321 q 236 288 270 312 q 201 203 201 264 q 233 131 201 159 q 317 103 264 103 q 436 154 389 103 q 484 281 484 204 l 484 341 m 573 0 q 471 -146 471 -93 q 515 -193 471 -193 q 561 -184 539 -193 l 561 -266 q 490 -277 535 -277 q 405 -248 437 -277 q 372 -170 372 -220 q 481 0 372 -87 l 573 0 z "},"Ď":{"ha":996,"x_min":120,"x_max":939,"o":"m 120 0 l 120 972 l 401 972 q 939 498 939 972 q 789 137 939 273 q 389 0 640 0 l 120 0 m 281 836 l 281 136 l 410 136 q 674 230 580 136 q 769 494 769 323 q 416 836 769 836 l 281 836 m 687 1284 l 535 1062 l 410 1062 l 258 1284 l 363 1284 l 471 1141 l 581 1284 l 687 1284 z "},"ď":{"ha":978,"x_min":58,"x_max":1026,"o":"m 734 0 l 576 0 l 576 118 l 574 118 q 340 -16 498 -16 q 135 77 212 -16 q 58 331 58 170 q 143 607 58 503 q 370 711 228 711 q 574 598 510 711 l 576 598 l 576 1028 l 734 1028 l 734 0 m 578 317 l 578 408 q 530 534 578 482 q 408 585 482 585 q 269 519 319 585 q 218 337 218 454 q 267 170 218 231 q 397 109 315 109 q 528 168 478 109 q 578 317 578 227 m 1026 1028 l 913 823 l 808 823 l 879 1028 l 1026 1028 z "},"Đ":{"ha":996,"x_min":10,"x_max":939,"o":"m 120 0 l 120 418 l 10 418 l 10 557 l 120 557 l 120 972 l 401 972 q 939 498 939 972 q 789 136 939 272 q 389 0 640 0 l 120 0 m 281 836 l 281 557 l 489 557 l 489 418 l 281 418 l 281 136 l 410 136 q 674 230 580 136 q 769 496 769 323 q 416 836 769 836 l 281 836 z "},"Ę":{"ha":719,"x_min":120,"x_max":666,"o":"m 666 0 l 120 0 l 120 972 l 644 972 l 644 836 l 281 836 l 281 560 l 616 560 l 616 424 l 281 424 l 281 136 l 666 136 l 666 0 m 605 0 q 503 -146 503 -93 q 547 -193 503 -193 q 593 -184 571 -193 l 593 -266 q 522 -277 567 -277 q 436 -248 469 -277 q 404 -170 404 -220 q 513 0 404 -87 l 605 0 z "},"ę":{"ha":738,"x_min":58,"x_max":690,"o":"m 690 304 l 217 304 q 276 156 220 208 q 432 104 333 104 q 636 170 543 104 l 636 43 q 385 -16 541 -16 q 145 78 232 -16 q 58 345 58 173 q 154 609 58 507 q 392 711 250 711 q 612 619 534 711 q 690 365 690 528 l 690 304 m 538 416 q 498 548 538 500 q 390 595 459 595 q 275 545 322 595 q 217 416 228 496 l 538 416 m 530 0 q 428 -146 428 -93 q 472 -193 428 -193 q 518 -184 496 -193 l 518 -266 q 447 -277 492 -277 q 362 -248 394 -277 q 330 -170 330 -220 q 439 0 330 -87 l 530 0 z "},"Ě":{"ha":719,"x_min":120,"x_max":666,"o":"m 666 0 l 120 0 l 120 972 l 644 972 l 644 836 l 281 836 l 281 560 l 616 560 l 616 424 l 281 424 l 281 136 l 666 136 l 666 0 m 604 1284 l 452 1062 l 327 1062 l 175 1284 l 280 1284 l 389 1141 l 498 1284 l 604 1284 z "},"ě":{"ha":738,"x_min":58,"x_max":690,"o":"m 690 304 l 217 304 q 276 156 220 208 q 432 104 333 104 q 636 170 543 104 l 636 43 q 385 -16 541 -16 q 145 78 232 -16 q 58 345 58 173 q 154 609 58 507 q 392 711 250 711 q 612 619 534 711 q 690 365 690 528 l 690 304 m 538 416 q 498 548 538 500 q 390 595 459 595 q 275 545 322 595 q 217 416 228 496 l 538 416 m 600 1038 l 448 817 l 322 817 l 170 1038 l 275 1038 l 384 896 l 493 1038 l 600 1038 z "},"Ĺ":{"ha":679,"x_min":120,"x_max":659,"o":"m 659 0 l 120 0 l 120 972 l 281 972 l 281 136 l 659 136 l 659 0 m 602 1294 l 408 1072 l 292 1072 l 456 1294 l 602 1294 z "},"ĺ":{"ha":363,"x_min":94,"x_max":405,"o":"m 260 0 l 102 0 l 102 1028 l 260 1028 l 260 0 m 405 1351 l 211 1128 l 94 1128 l 258 1351 l 405 1351 z "},"Ľ":{"ha":679,"x_min":120,"x_max":659,"o":"m 659 0 l 120 0 l 120 972 l 281 972 l 281 136 l 659 136 l 659 0 m 659 973 l 546 768 l 441 768 l 512 973 l 659 973 z "},"ľ":{"ha":463,"x_min":102,"x_max":543,"o":"m 260 0 l 102 0 l 102 1028 l 260 1028 l 260 0 m 543 1025 l 430 821 l 325 821 l 396 1025 l 543 1025 z "},"Ŀ":{"ha":679,"x_min":120,"x_max":659,"o":"m 659 0 l 120 0 l 120 972 l 281 972 l 281 136 l 659 136 l 659 0 m 526 448 q 468 470 492 448 q 443 526 443 493 q 467 581 443 559 q 526 604 492 604 q 585 582 561 604 q 610 526 610 559 q 585 471 610 494 q 526 448 561 448 z "},"ŀ":{"ha":511,"x_min":102,"x_max":511,"o":"m 260 0 l 102 0 l 102 1028 l 260 1028 l 260 0 m 428 429 q 369 452 394 429 q 345 508 345 475 q 369 563 345 541 q 428 585 393 585 q 487 563 463 585 q 511 508 511 541 q 487 452 511 475 q 428 429 463 429 z "},"Ń":{"ha":1065,"x_min":120,"x_max":945,"o":"m 945 0 l 768 0 l 304 715 q 275 771 286 742 l 271 771 q 276 637 276 740 l 276 0 l 120 0 l 120 972 l 308 972 l 757 275 q 793 215 785 231 l 796 215 q 789 346 789 254 l 789 972 l 945 972 l 945 0 m 753 1294 l 559 1072 l 442 1072 l 606 1294 l 753 1294 z "},"ń":{"ha":810,"x_min":102,"x_max":721,"o":"m 721 0 l 564 0 l 564 391 q 426 586 564 586 q 307 532 354 586 q 260 396 260 478 l 260 0 l 102 0 l 102 694 l 260 694 l 260 579 l 263 579 q 488 711 341 711 q 661 637 602 711 q 721 425 721 564 l 721 0 m 616 1048 l 422 826 l 305 826 l 469 1048 l 616 1048 z "},"Ň":{"ha":1065,"x_min":120,"x_max":945,"o":"m 945 0 l 768 0 l 304 715 q 275 771 286 742 l 271 771 q 276 637 276 740 l 276 0 l 120 0 l 120 972 l 308 972 l 757 275 q 793 215 785 231 l 796 215 q 789 346 789 254 l 789 972 l 945 972 l 945 0 m 747 1284 l 595 1062 l 469 1062 l 317 1284 l 422 1284 l 531 1141 l 640 1284 l 747 1284 z "},"ň":{"ha":810,"x_min":102,"x_max":721,"o":"m 721 0 l 564 0 l 564 391 q 426 586 564 586 q 307 532 354 586 q 260 396 260 478 l 260 0 l 102 0 l 102 694 l 260 694 l 260 579 l 263 579 q 488 711 341 711 q 661 637 602 711 q 721 425 721 564 l 721 0 m 634 1038 l 482 817 l 357 817 l 205 1038 l 310 1038 l 418 896 l 528 1038 l 634 1038 z "},"Ő":{"ha":1050,"x_min":58,"x_max":991,"o":"m 521 -16 q 184 120 311 -16 q 58 475 58 256 q 186 849 58 709 q 536 989 315 989 q 866 853 741 989 q 991 498 991 718 q 863 122 991 260 q 521 -16 735 -16 m 528 847 q 311 747 395 847 q 227 485 227 648 q 309 224 227 323 q 522 125 390 125 q 742 219 661 125 q 823 483 823 313 q 744 752 823 657 q 528 847 666 847 m 810 1278 l 642 1063 l 541 1063 l 684 1278 l 810 1278 m 602 1278 l 437 1063 l 337 1063 l 478 1278 l 602 1278 z "},"ő":{"ha":829,"x_min":58,"x_max":772,"o":"m 410 -16 q 154 81 250 -16 q 58 339 58 178 q 158 612 58 514 q 427 711 258 711 q 681 615 590 711 q 772 350 772 519 q 674 84 772 184 q 410 -16 576 -16 m 418 585 q 272 521 326 585 q 218 343 218 456 q 273 171 218 234 q 418 109 327 109 q 561 170 511 109 q 610 346 610 232 q 561 523 610 460 q 418 585 511 585 m 697 1032 l 529 817 l 429 817 l 572 1032 l 697 1032 m 490 1032 l 325 817 l 224 817 l 366 1032 l 490 1032 z "},"Ŕ":{"ha":865,"x_min":120,"x_max":871,"o":"m 871 0 l 683 0 l 528 260 q 487 322 507 296 q 446 363 467 347 q 401 387 425 380 q 346 395 376 395 l 281 395 l 281 0 l 120 0 l 120 972 l 440 972 q 566 956 509 972 q 667 907 624 940 q 733 825 709 874 q 758 710 758 776 q 742 615 758 659 q 699 539 727 572 q 631 481 671 505 q 542 445 591 458 l 542 442 q 588 409 568 427 q 625 372 608 391 q 660 329 643 353 q 699 273 677 305 l 871 0 m 281 842 l 281 526 l 415 526 q 484 537 452 526 q 538 570 515 549 q 574 623 562 592 q 587 693 587 654 q 543 802 587 763 q 416 842 499 842 l 281 842 m 633 1294 l 439 1072 l 322 1072 l 486 1294 l 633 1294 z "},"ŕ":{"ha":514,"x_min":102,"x_max":505,"o":"m 505 545 q 423 567 477 567 q 307 504 353 567 q 260 332 260 441 l 260 0 l 102 0 l 102 694 l 260 694 l 260 551 l 262 551 q 333 666 286 625 q 440 707 381 707 q 505 694 483 707 l 505 545 m 500 1048 l 306 826 l 189 826 l 353 1048 l 500 1048 z "},"Ř":{"ha":865,"x_min":120,"x_max":871,"o":"m 871 0 l 683 0 l 528 260 q 487 322 507 296 q 446 363 467 347 q 401 387 425 380 q 346 395 376 395 l 281 395 l 281 0 l 120 0 l 120 972 l 440 972 q 566 956 509 972 q 667 907 624 940 q 733 825 709 874 q 758 710 758 776 q 742 615 758 659 q 699 539 727 572 q 631 481 671 505 q 542 445 591 458 l 542 442 q 588 409 568 427 q 625 372 608 391 q 660 329 643 353 q 699 273 677 305 l 871 0 m 281 842 l 281 526 l 415 526 q 484 537 452 526 q 538 570 515 549 q 574 623 562 592 q 587 693 587 654 q 543 802 587 763 q 416 842 499 842 l 281 842 m 636 1284 l 484 1062 l 359 1062 l 207 1284 l 312 1284 l 420 1141 l 530 1284 l 636 1284 z "},"ř":{"ha":514,"x_min":77,"x_max":506,"o":"m 505 545 q 423 567 477 567 q 307 504 353 567 q 260 332 260 441 l 260 0 l 102 0 l 102 694 l 260 694 l 260 551 l 262 551 q 333 666 286 625 q 440 707 381 707 q 505 694 483 707 l 505 545 m 506 1038 l 354 817 l 229 817 l 77 1038 l 182 1038 l 290 896 l 399 1038 l 506 1038 z "},"Ś":{"ha":756,"x_min":75,"x_max":698,"o":"m 75 39 l 75 205 q 129 168 98 184 q 194 141 159 152 q 263 123 229 130 q 327 117 298 117 q 478 151 429 117 q 528 250 528 185 q 512 310 528 284 q 465 356 495 335 q 395 396 435 377 q 309 437 355 416 q 216 490 259 463 q 142 550 174 517 q 93 625 111 583 q 75 722 75 666 q 105 841 75 790 q 187 924 136 891 q 302 973 237 957 q 433 989 366 989 q 656 954 586 989 l 656 795 q 443 854 573 854 q 371 848 407 854 q 308 825 336 841 q 262 785 279 810 q 244 726 244 761 q 258 670 244 694 q 297 627 271 646 q 361 588 323 607 q 448 548 399 570 q 544 492 499 522 q 624 428 589 463 q 678 350 658 393 q 698 252 698 307 q 668 127 698 178 q 588 44 638 76 q 471 -2 537 12 q 332 -16 406 -16 q 272 -13 308 -16 q 199 -2 237 -9 q 129 16 162 5 q 75 39 96 26 m 582 1294 l 388 1072 l 271 1072 l 435 1294 l 582 1294 z "},"ś":{"ha":599,"x_min":59,"x_max":552,"o":"m 59 22 l 59 168 q 254 100 147 100 q 396 184 396 100 q 384 225 396 208 q 351 254 372 241 q 302 277 330 267 q 239 300 274 288 q 162 336 197 317 q 105 379 128 355 q 71 434 83 404 q 60 505 60 465 q 83 594 60 555 q 147 658 107 632 q 238 697 187 684 q 343 711 289 711 q 515 682 439 711 l 515 544 q 347 594 442 594 q 293 588 317 594 q 252 571 269 582 q 226 545 235 560 q 216 511 216 530 q 226 473 216 489 q 254 446 235 458 q 299 424 273 434 q 359 403 325 414 q 439 366 404 385 q 500 322 475 347 q 538 267 525 298 q 552 192 552 235 q 528 100 552 139 q 463 35 503 60 q 369 -4 422 9 q 256 -16 315 -16 q 59 22 142 -16 m 516 1048 l 322 826 l 205 826 l 370 1048 l 516 1048 z "},"Ţ":{"ha":766,"x_min":24,"x_max":744,"o":"m 744 836 l 465 836 l 465 0 l 303 0 l 303 836 l 24 836 l 24 972 l 744 972 l 744 836 m 538 -168 q 342 -300 538 -300 q 288 -298 311 -300 l 288 -222 q 336 -227 317 -227 q 426 -171 426 -227 q 344 -121 426 -121 q 317 -123 337 -121 l 317 0 l 410 0 l 410 -64 q 503 -91 469 -64 q 538 -168 538 -119 z "},"ţ":{"ha":502,"x_min":29,"x_max":475,"o":"m 469 7 q 347 -16 422 -16 q 145 178 145 -16 l 145 571 l 29 571 l 29 694 l 145 694 l 145 855 l 302 900 l 302 694 l 469 694 l 469 571 l 302 571 l 302 224 q 325 136 302 162 q 399 109 347 109 q 469 132 439 109 l 469 7 m 475 -168 q 279 -300 475 -300 q 224 -298 248 -300 l 224 -222 q 273 -227 254 -227 q 363 -171 363 -227 q 281 -121 363 -121 q 254 -123 274 -121 l 254 0 l 347 0 l 347 -64 q 440 -91 406 -64 q 475 -168 475 -119 z "},"Ť":{"ha":766,"x_min":24,"x_max":744,"o":"m 744 836 l 465 836 l 465 0 l 303 0 l 303 836 l 24 836 l 24 972 l 744 972 l 744 836 m 599 1284 l 447 1062 l 321 1062 l 170 1284 l 275 1284 l 383 1141 l 492 1284 l 599 1284 z "},"ť":{"ha":574,"x_min":29,"x_max":650,"o":"m 469 7 q 347 -16 422 -16 q 145 178 145 -16 l 145 571 l 29 571 l 29 694 l 145 694 l 145 855 l 302 900 l 302 694 l 469 694 l 469 571 l 302 571 l 302 224 q 325 136 302 162 q 399 109 347 109 q 469 132 439 109 l 469 7 m 650 972 l 537 768 l 432 768 l 503 972 l 650 972 z "},"Ů":{"ha":977,"x_min":109,"x_max":868,"o":"m 868 393 q 480 -16 868 -16 q 109 378 109 -16 l 109 972 l 270 972 l 270 411 q 492 125 270 125 q 707 401 707 125 l 707 972 l 868 972 l 868 393 m 478 1062 q 373 1099 414 1062 q 331 1195 331 1135 q 374 1301 331 1261 q 483 1340 416 1340 q 590 1300 548 1340 q 631 1199 631 1261 q 587 1101 631 1140 q 478 1062 543 1062 m 478 1272 q 428 1252 448 1272 q 408 1202 408 1232 q 478 1131 408 1131 q 532 1151 511 1131 q 553 1202 553 1171 q 532 1252 553 1232 q 478 1272 511 1272 z "},"ů":{"ha":810,"x_min":89,"x_max":708,"o":"m 708 0 l 551 0 l 551 110 l 548 110 q 335 -16 479 -16 q 89 279 89 -16 l 89 694 l 246 694 l 246 296 q 391 109 246 109 q 506 160 460 109 q 551 295 551 212 l 551 694 l 708 694 l 708 0 m 397 800 q 292 837 334 800 q 250 933 250 873 q 293 1039 250 1000 q 402 1078 336 1078 q 509 1039 467 1078 q 551 937 551 999 q 506 839 551 878 q 397 800 462 800 m 397 1010 q 347 990 367 1010 q 327 940 327 970 q 397 869 327 869 q 451 889 430 869 q 473 940 473 909 q 451 990 473 970 q 397 1010 430 1010 z "},"Ű":{"ha":977,"x_min":109,"x_max":868,"o":"m 868 393 q 480 -16 868 -16 q 109 378 109 -16 l 109 972 l 270 972 l 270 411 q 492 125 270 125 q 707 401 707 125 l 707 972 l 868 972 l 868 393 m 787 1278 l 618 1062 l 518 1062 l 661 1278 l 787 1278 m 579 1278 l 414 1062 l 314 1062 l 455 1278 l 579 1278 z "},"ű":{"ha":810,"x_min":89,"x_max":708,"o":"m 708 0 l 551 0 l 551 110 l 548 110 q 335 -16 479 -16 q 89 279 89 -16 l 89 694 l 246 694 l 246 296 q 391 109 246 109 q 506 160 460 109 q 551 295 551 212 l 551 694 l 708 694 l 708 0 m 686 1032 l 518 817 l 418 817 l 561 1032 l 686 1032 m 479 1032 l 314 817 l 214 817 l 355 1032 l 479 1032 z "},"Ź":{"ha":815,"x_min":24,"x_max":783,"o":"m 783 902 l 250 136 l 777 136 l 777 0 l 24 0 l 24 74 l 559 836 l 66 836 l 66 972 l 783 972 l 783 902 m 637 1295 l 444 1072 l 327 1072 l 491 1295 l 637 1295 z "},"ź":{"ha":645,"x_min":20,"x_max":615,"o":"m 615 629 l 240 123 l 614 123 l 614 0 l 20 0 l 20 59 l 403 572 l 56 572 l 56 694 l 615 694 l 615 629 m 553 1048 l 359 826 l 242 826 l 406 1048 l 553 1048 z "},"Ż":{"ha":815,"x_min":24,"x_max":783,"o":"m 783 902 l 250 136 l 777 136 l 777 0 l 24 0 l 24 74 l 559 836 l 66 836 l 66 972 l 783 972 l 783 902 m 416 1061 q 358 1084 382 1061 q 333 1140 333 1107 q 357 1195 333 1173 q 416 1217 382 1217 q 475 1195 451 1217 q 500 1140 500 1173 q 475 1084 500 1107 q 416 1061 451 1061 z "},"ż":{"ha":645,"x_min":20,"x_max":615,"o":"m 615 629 l 240 123 l 614 123 l 614 0 l 20 0 l 20 59 l 403 572 l 56 572 l 56 694 l 615 694 l 615 629 m 336 816 q 278 839 302 816 q 253 895 253 861 q 277 949 253 927 q 336 972 302 972 q 395 950 371 972 q 420 895 420 928 q 395 839 420 862 q 336 816 371 816 z "},"Γ":{"ha":680,"x_min":120,"x_max":659,"o":"m 659 833 l 281 833 l 281 0 l 120 0 l 120 972 l 659 972 l 659 833 z "},"Θ":{"ha":1050,"x_min":58,"x_max":992,"o":"m 521 -16 q 184 119 311 -16 q 58 475 58 254 q 186 848 58 707 q 536 989 314 989 q 867 853 741 989 q 992 498 992 718 q 864 122 992 260 q 521 -16 736 -16 m 529 847 q 312 747 395 847 q 228 486 228 647 q 309 224 228 323 q 522 125 391 125 q 742 220 662 125 q 822 484 822 314 q 744 751 822 655 q 529 847 667 847 m 694 419 l 356 419 l 356 552 l 694 552 l 694 419 z "},"Φ":{"ha":1086,"x_min":59,"x_max":1026,"o":"m 618 123 l 618 -12 l 468 -12 l 468 123 l 439 123 q 164 231 269 123 q 59 511 59 339 q 163 780 59 679 q 440 882 268 882 l 468 882 l 468 983 l 618 983 l 618 882 l 646 882 q 922 780 819 882 q 1026 512 1026 678 q 921 231 1026 339 q 648 123 815 123 l 618 123 m 618 755 l 618 255 l 644 255 q 809 322 749 255 q 869 509 869 389 q 808 688 869 621 q 642 755 747 755 l 618 755 m 469 255 l 469 755 l 445 755 q 278 689 340 755 q 216 509 216 623 q 276 322 216 389 q 444 255 336 255 l 469 255 z "},"α":{"ha":867,"x_min":56,"x_max":850,"o":"m 849 5 q 768 -7 804 -7 q 608 172 649 -7 l 604 172 q 336 -16 509 -16 q 132 81 209 -16 q 56 327 56 178 q 143 604 56 496 q 380 711 231 711 q 524 666 460 711 q 619 540 587 621 l 622 540 l 673 694 l 835 694 l 696 349 q 745 173 719 220 q 812 127 770 127 q 850 134 834 127 l 849 5 m 568 354 q 501 527 546 467 q 393 587 456 587 q 263 514 311 587 q 214 336 214 442 q 256 176 214 241 q 369 112 298 112 q 478 167 429 112 q 559 328 527 222 l 568 354 z "},"δ":{"ha":829,"x_min":56,"x_max":772,"o":"m 687 994 l 687 834 q 459 911 574 911 q 365 891 400 911 q 329 839 329 871 q 360 780 329 811 q 463 707 391 749 q 641 586 576 639 q 739 468 705 533 q 772 326 772 402 q 673 76 772 168 q 406 -17 574 -17 q 154 74 251 -17 q 56 310 56 164 q 123 498 56 412 q 319 642 191 583 q 168 851 168 741 q 242 991 168 942 q 447 1040 317 1040 q 687 994 563 1040 m 427 570 q 220 311 220 480 q 273 164 220 218 q 415 109 326 109 q 559 166 506 109 q 613 318 613 223 q 570 448 613 389 q 427 570 526 506 z "},"ε":{"ha":624,"x_min":51,"x_max":578,"o":"m 578 14 q 347 -17 486 -17 q 130 38 210 -17 q 51 186 51 94 q 96 296 51 250 q 215 357 141 342 l 215 359 q 118 416 159 372 q 77 516 77 460 q 152 660 77 608 q 354 711 228 711 q 547 682 456 711 l 547 549 q 364 594 460 594 q 237 509 237 594 q 284 438 237 465 q 406 411 332 411 q 486 414 456 411 l 486 297 q 389 300 437 300 q 211 197 211 300 q 253 126 211 153 q 372 100 295 100 q 578 147 483 100 l 578 14 z "},"σ":{"ha":823,"x_min":58,"x_max":808,"o":"m 808 575 l 644 575 q 730 332 730 465 q 640 81 730 178 q 399 -16 550 -16 q 150 81 243 -16 q 58 340 58 178 q 419 694 58 694 l 808 694 l 808 575 m 500 575 l 431 575 q 220 336 220 575 q 269 171 220 233 q 399 109 317 109 q 523 172 477 109 q 569 339 569 235 q 500 575 569 471 z "},"τ":{"ha":715,"x_min":23,"x_max":688,"o":"m 688 576 l 433 576 l 433 207 q 509 121 433 121 q 581 134 545 121 l 581 9 q 467 -10 526 -10 q 275 195 275 -10 l 275 576 l 191 576 q 23 511 104 576 l 23 644 q 206 694 81 694 l 688 694 l 688 576 z "},"φ":{"ha":1004,"x_min":58,"x_max":945,"o":"m 594 -16 q 571 -16 583 -16 l 571 -326 l 429 -326 l 429 -16 q 410 -16 420 -16 q 153 81 249 -16 q 58 346 58 179 q 188 694 58 559 l 360 694 q 212 348 212 550 q 267 172 212 235 q 411 109 322 109 l 429 109 l 429 449 q 645 711 429 711 q 862 610 779 711 q 945 338 945 509 q 849 82 945 180 q 594 -16 753 -16 m 571 109 l 591 109 q 735 173 679 109 q 791 347 791 237 q 749 519 791 454 q 648 585 707 585 q 571 508 571 585 l 571 109 z "},"‗":{"ha":576,"x_min":0,"x_max":576,"o":"m 0 -188 l 0 -107 l 576 -107 l 576 -188 l 0 -188 m 0 -349 l 0 -268 l 576 -268 l 576 -349 l 0 -349 z "},"‼":{"ha":729,"x_min":113,"x_max":615,"o":"m 286 972 l 273 286 l 144 286 l 127 972 l 286 972 m 211 -14 q 142 13 170 -14 q 113 76 113 39 q 142 142 113 115 q 211 169 170 169 q 279 142 250 169 q 308 76 308 115 q 279 13 308 39 q 211 -14 250 -14 m 593 972 l 581 286 l 452 286 l 434 972 l 593 972 m 518 -14 q 449 13 477 -14 q 420 76 420 39 q 449 142 420 115 q 518 169 477 169 q 586 142 557 169 q 615 76 615 115 q 586 13 615 39 q 518 -14 557 -14 z "},"ⁿ":{"ha":578,"x_min":75,"x_max":508,"o":"m 186 486 l 75 486 l 75 974 l 185 974 l 185 895 l 188 895 q 333 987 234 987 q 462 937 416 987 q 508 795 508 886 l 508 486 l 395 486 l 395 789 q 304 897 395 897 q 222 858 258 897 q 186 762 186 818 l 186 486 z "},"₧":{"ha":1666,"x_min":120,"x_max":1609,"o":"m 281 353 l 281 0 l 120 0 l 120 972 l 366 972 q 703 673 703 972 q 608 440 703 528 q 343 353 513 353 l 281 353 m 281 840 l 281 484 l 336 484 q 534 667 534 484 q 338 840 534 840 l 281 840 m 1132 7 q 1010 -16 1086 -16 q 866 31 911 -16 q 822 182 822 78 l 822 486 l 728 486 l 728 603 l 822 603 l 822 772 l 973 809 l 973 603 l 1132 603 l 1132 486 l 973 486 l 973 223 q 1061 101 973 101 q 1132 124 1101 101 l 1132 7 m 1175 22 l 1175 161 q 1361 94 1263 94 q 1461 165 1461 94 q 1438 209 1461 191 q 1257 296 1416 227 q 1176 422 1176 333 q 1242 560 1176 508 q 1414 612 1309 612 q 1573 583 1513 612 l 1573 454 q 1418 501 1502 501 q 1352 483 1377 501 q 1326 436 1326 465 q 1406 372 1326 400 q 1515 324 1470 346 q 1585 266 1560 302 q 1609 180 1609 230 q 1549 37 1609 89 q 1382 -16 1488 -16 q 1175 22 1252 -16 z "},"Ĳ":{"ha":952,"x_min":119,"x_max":842,"o":"m 286 0 l 119 0 l 119 972 l 286 972 l 286 0 m 842 349 q 756 80 842 176 q 528 -16 671 -16 q 419 -1 462 -16 l 419 151 q 519 125 458 125 q 680 374 680 125 l 680 972 l 842 972 l 842 349 z "},"ĳ":{"ha":756,"x_min":88,"x_max":671,"o":"m 182 840 q 116 865 143 840 q 88 929 88 890 q 116 994 88 968 q 182 1019 143 1019 q 250 994 222 1019 q 277 929 277 968 q 250 866 277 892 q 182 840 222 840 m 260 0 l 102 0 l 102 694 l 260 694 l 260 0 m 653 29 q 581 -234 653 -142 q 376 -327 509 -327 q 279 -305 326 -327 l 279 -170 q 363 -201 323 -201 q 496 34 496 -201 l 496 694 l 653 694 l 653 29 m 576 840 q 510 865 537 840 q 482 929 482 890 q 510 994 482 968 q 576 1019 537 1019 q 643 994 615 1019 q 671 929 671 968 q 643 866 671 892 q 576 840 615 840 z "},"ŉ":{"ha":842,"x_min":-52,"x_max":752,"o":"m 162 991 l 52 690 l -52 690 l 24 991 l 162 991 m 752 0 l 595 0 l 595 391 q 457 586 595 586 q 338 532 385 586 q 292 396 292 478 l 292 0 l 134 0 l 134 694 l 292 694 l 292 579 l 294 579 q 519 711 372 711 q 692 637 633 711 q 752 425 752 564 l 752 0 z "},"′":{"ha":358,"x_min":95,"x_max":276,"o":"m 276 978 l 199 676 l 95 676 l 146 978 l 276 978 z "},"″":{"ha":596,"x_min":101,"x_max":509,"o":"m 509 978 l 431 675 l 327 675 l 378 978 l 509 978 m 283 978 l 205 676 l 101 676 l 153 978 l 283 978 z "},"℅":{"ha":1157,"x_min":91,"x_max":1072,"o":"m 515 852 q 408 891 465 891 q 288 830 334 891 q 243 691 243 770 q 346 575 243 575 q 469 617 397 575 l 447 516 q 311 480 375 480 q 173 534 222 480 q 124 680 124 589 q 204 899 124 811 q 412 986 283 986 q 539 955 490 986 l 515 852 m 1057 972 l 220 0 l 91 0 l 927 972 l 1057 972 m 806 -14 q 652 43 705 -14 q 599 191 599 100 q 676 401 599 311 q 870 490 753 490 q 1017 436 963 490 q 1072 288 1072 382 q 996 76 1072 166 q 806 -14 920 -14 m 866 396 q 759 332 802 396 q 715 191 715 267 q 809 81 715 81 q 913 142 871 81 q 956 288 956 204 q 866 396 956 396 z "},"ℓ":{"ha":449,"x_min":9,"x_max":437,"o":"m 9 286 l 130 446 l 130 754 q 172 959 130 907 q 289 1011 214 1011 q 397 965 357 1011 q 437 849 437 920 q 244 452 437 717 l 244 170 q 254 95 244 109 q 283 81 263 81 q 418 153 316 81 l 418 43 q 265 -16 342 -16 q 130 147 130 -16 l 130 300 l 76 233 l 9 286 m 244 610 q 331 775 318 736 q 343 849 343 813 q 292 929 343 929 q 258 908 272 929 q 244 764 244 887 l 244 610 z "},"□":{"ha":839,"x_min":98,"x_max":739,"o":"m 98 640 l 739 640 l 739 0 l 98 0 l 98 640 m 150 589 l 150 52 l 688 52 l 688 589 l 150 589 z "},"▪":{"ha":492,"x_min":89,"x_max":403,"o":"m 403 615 l 403 301 l 89 301 l 89 615 l 403 615 z "},"▫":{"ha":492,"x_min":89,"x_max":403,"o":"m 89 615 l 403 615 l 403 301 l 89 301 l 89 615 m 140 564 l 140 353 l 351 353 l 351 564 l 140 564 z "},"●":{"ha":839,"x_min":121,"x_max":718,"o":"m 718 392 q 695 277 718 331 q 631 181 671 222 q 536 117 591 140 q 420 93 482 93 q 304 116 359 93 q 209 180 250 140 q 144 275 168 220 q 121 392 121 330 q 133 479 121 439 q 166 552 145 519 q 217 611 188 585 q 279 654 245 637 q 348 681 312 672 q 419 690 384 690 q 538 665 484 690 q 633 598 593 640 q 696 503 673 557 q 718 392 718 449 z "},"◦":{"ha":492,"x_min":76,"x_max":416,"o":"m 246 289 q 126 339 176 289 q 76 460 76 389 q 125 579 76 530 q 246 629 176 629 q 366 579 316 629 q 416 460 416 529 q 367 338 416 388 q 246 289 317 289 m 245 578 q 162 543 197 578 q 127 460 127 507 q 162 375 127 410 q 247 340 198 340 q 331 375 296 340 q 365 460 365 410 q 331 543 365 507 q 245 578 296 578 z "},"Ā":{"ha":932,"x_min":12,"x_max":919,"o":"m 919 0 l 742 0 l 654 248 l 272 248 l 188 0 l 12 0 l 376 972 l 557 972 l 919 0 m 612 379 l 477 767 q 464 828 471 786 l 461 828 q 448 767 455 789 l 314 379 l 612 379 m 649 1063 l 281 1063 l 281 1156 l 649 1156 l 649 1063 z "},"ā":{"ha":725,"x_min":51,"x_max":635,"o":"m 635 0 l 483 0 l 483 109 l 480 109 q 269 -16 408 -16 q 109 39 167 -16 q 51 186 51 95 q 277 416 51 383 l 484 445 q 342 593 484 593 q 119 508 218 593 l 119 646 q 372 711 229 711 q 635 452 635 711 l 635 0 m 484 341 l 338 321 q 236 288 270 312 q 201 203 201 264 q 233 131 201 159 q 317 103 264 103 q 436 154 389 103 q 484 281 484 204 l 484 341 m 562 817 l 193 817 l 193 909 l 562 909 l 562 817 z "},"Ĉ":{"ha":863,"x_min":58,"x_max":798,"o":"m 798 41 q 525 -16 688 -16 q 186 117 313 -16 q 58 468 58 251 q 202 845 58 701 q 564 989 345 989 q 798 949 705 989 l 798 789 q 581 847 700 847 q 325 746 423 847 q 227 476 227 645 q 319 220 227 315 q 559 125 410 125 q 798 190 697 125 l 798 41 m 744 1063 l 635 1063 l 526 1206 l 420 1063 l 315 1063 l 467 1285 l 591 1285 l 744 1063 z "},"ĉ":{"ha":653,"x_min":58,"x_max":604,"o":"m 600 32 q 402 -16 516 -16 q 153 80 248 -16 q 58 331 58 177 q 160 607 58 503 q 433 711 262 711 q 600 677 528 711 l 600 531 q 446 585 528 585 q 282 518 346 585 q 218 341 218 450 q 278 171 218 233 q 439 109 338 109 q 600 169 524 109 l 600 32 m 604 817 l 495 817 l 386 960 l 279 817 l 174 817 l 326 1039 l 451 1039 l 604 817 z "},"Ċ":{"ha":863,"x_min":58,"x_max":798,"o":"m 798 41 q 525 -16 688 -16 q 186 117 313 -16 q 58 468 58 251 q 202 845 58 701 q 564 989 345 989 q 798 949 705 989 l 798 789 q 581 847 700 847 q 325 746 423 847 q 227 476 227 645 q 319 220 227 315 q 559 125 410 125 q 798 190 697 125 l 798 41 m 536 1062 q 477 1085 502 1062 q 452 1141 452 1107 q 477 1196 452 1173 q 536 1218 501 1218 q 595 1196 570 1218 q 619 1141 619 1174 q 595 1085 619 1108 q 536 1062 570 1062 z "},"ċ":{"ha":653,"x_min":58,"x_max":600,"o":"m 600 32 q 402 -16 516 -16 q 153 80 248 -16 q 58 331 58 177 q 160 607 58 503 q 433 711 262 711 q 600 677 528 711 l 600 531 q 446 585 528 585 q 282 518 346 585 q 218 341 218 450 q 278 171 218 233 q 439 109 338 109 q 600 169 524 109 l 600 32 m 407 816 q 348 839 373 816 q 323 895 323 861 q 348 949 323 927 q 407 972 372 972 q 466 950 441 972 q 490 895 490 928 q 466 839 490 862 q 407 816 441 816 z "},"Ē":{"ha":719,"x_min":120,"x_max":666,"o":"m 666 0 l 120 0 l 120 972 l 644 972 l 644 836 l 281 836 l 281 560 l 616 560 l 616 424 l 281 424 l 281 136 l 666 136 l 666 0 m 570 1062 l 202 1062 l 202 1155 l 570 1155 l 570 1062 z "},"ē":{"ha":738,"x_min":58,"x_max":690,"o":"m 690 304 l 217 304 q 276 156 220 208 q 432 104 333 104 q 636 170 543 104 l 636 43 q 385 -16 541 -16 q 145 78 232 -16 q 58 345 58 173 q 154 609 58 507 q 392 711 250 711 q 612 619 534 711 q 690 365 690 528 l 690 304 m 538 416 q 498 548 538 500 q 390 595 459 595 q 275 545 322 595 q 217 416 228 496 l 538 416 m 570 817 l 202 817 l 202 909 l 570 909 l 570 817 z "},"Ĕ":{"ha":719,"x_min":120,"x_max":666,"o":"m 666 0 l 120 0 l 120 972 l 644 972 l 644 836 l 281 836 l 281 560 l 616 560 l 616 424 l 281 424 l 281 136 l 666 136 l 666 0 m 591 1250 q 525 1114 584 1166 q 383 1063 467 1063 q 240 1114 295 1063 q 180 1250 184 1165 l 273 1250 q 385 1151 281 1151 q 460 1178 429 1151 q 498 1250 492 1204 l 591 1250 z "},"ĕ":{"ha":738,"x_min":58,"x_max":690,"o":"m 690 304 l 217 304 q 276 156 220 208 q 432 104 333 104 q 636 170 543 104 l 636 43 q 385 -16 541 -16 q 145 78 232 -16 q 58 345 58 173 q 154 609 58 507 q 392 711 250 711 q 612 619 534 711 q 690 365 690 528 l 690 304 m 538 416 q 498 548 538 500 q 390 595 459 595 q 275 545 322 595 q 217 416 228 496 l 538 416 m 588 1004 q 522 868 581 920 q 380 817 463 817 q 236 868 292 817 q 177 1004 181 919 l 269 1004 q 382 905 277 905 q 457 931 426 905 q 495 1004 488 958 l 588 1004 z "},"Ė":{"ha":719,"x_min":120,"x_max":666,"o":"m 666 0 l 120 0 l 120 972 l 644 972 l 644 836 l 281 836 l 281 560 l 616 560 l 616 424 l 281 424 l 281 136 l 666 136 l 666 0 m 384 1062 q 325 1085 350 1062 q 300 1141 300 1107 q 325 1196 300 1173 q 384 1218 349 1218 q 443 1196 418 1218 q 467 1141 467 1174 q 443 1085 467 1108 q 384 1062 418 1062 z "},"ė":{"ha":738,"x_min":58,"x_max":690,"o":"m 690 304 l 217 304 q 276 156 220 208 q 432 104 333 104 q 636 170 543 104 l 636 43 q 385 -16 541 -16 q 145 78 232 -16 q 58 345 58 173 q 154 609 58 507 q 392 711 250 711 q 612 619 534 711 q 690 365 690 528 l 690 304 m 538 416 q 498 548 538 500 q 390 595 459 595 q 275 545 322 595 q 217 416 228 496 l 538 416 m 396 816 q 337 839 362 816 q 313 895 313 861 q 337 949 313 927 q 396 972 361 972 q 455 950 431 972 q 479 895 479 928 q 455 839 479 862 q 396 816 431 816 z "},"Ĝ":{"ha":968,"x_min":58,"x_max":879,"o":"m 879 66 q 541 -16 727 -16 q 191 118 325 -16 q 58 473 58 252 q 204 844 58 699 q 575 989 350 989 q 848 941 737 989 l 848 775 q 581 850 736 850 q 327 747 426 850 q 227 482 227 645 q 313 219 227 315 q 545 123 398 123 q 718 161 645 123 l 718 393 l 513 393 l 513 528 l 879 528 l 879 66 m 760 1063 l 652 1063 l 543 1206 l 436 1063 l 331 1063 l 483 1285 l 608 1285 l 760 1063 z "},"ĝ":{"ha":837,"x_min":58,"x_max":734,"o":"m 734 56 q 350 -327 734 -327 q 113 -281 214 -327 l 113 -138 q 330 -203 227 -203 q 577 41 577 -203 l 577 117 l 574 117 q 340 -16 496 -16 q 135 76 213 -16 q 58 325 58 169 q 141 606 58 502 q 370 711 224 711 q 574 598 508 711 l 577 598 l 577 694 l 734 694 l 734 56 m 578 318 l 578 408 q 530 533 578 481 q 409 585 481 585 q 269 519 319 585 q 218 334 218 453 q 267 171 218 232 q 395 109 315 109 q 528 168 477 109 q 578 318 578 227 m 625 817 l 517 817 l 408 960 l 301 817 l 196 817 l 348 1039 l 473 1039 l 625 817 z "},"Ġ":{"ha":968,"x_min":58,"x_max":879,"o":"m 879 66 q 541 -16 727 -16 q 191 118 325 -16 q 58 473 58 252 q 204 844 58 699 q 575 989 350 989 q 848 941 737 989 l 848 775 q 581 850 736 850 q 327 747 426 850 q 227 482 227 645 q 313 219 227 315 q 545 123 398 123 q 718 161 645 123 l 718 393 l 513 393 l 513 528 l 879 528 l 879 66 m 547 1062 q 488 1085 513 1062 q 463 1141 463 1107 q 488 1196 463 1173 q 547 1218 512 1218 q 606 1196 581 1218 q 630 1141 630 1174 q 606 1085 630 1108 q 547 1062 581 1062 z "},"ġ":{"ha":837,"x_min":58,"x_max":734,"o":"m 734 56 q 350 -327 734 -327 q 113 -281 214 -327 l 113 -138 q 330 -203 227 -203 q 577 41 577 -203 l 577 117 l 574 117 q 340 -16 496 -16 q 135 76 213 -16 q 58 325 58 169 q 141 606 58 502 q 370 711 224 711 q 574 598 508 711 l 577 598 l 577 694 l 734 694 l 734 56 m 578 318 l 578 408 q 530 533 578 481 q 409 585 481 585 q 269 519 319 585 q 218 334 218 453 q 267 171 218 232 q 395 109 315 109 q 528 168 477 109 q 578 318 578 227 m 407 816 q 348 839 373 816 q 323 895 323 861 q 348 949 323 927 q 407 972 372 972 q 466 950 441 972 q 490 895 490 928 q 466 839 490 862 q 407 816 441 816 z "},"Ģ":{"ha":968,"x_min":58,"x_max":879,"o":"m 879 66 q 541 -16 727 -16 q 191 118 325 -16 q 58 473 58 252 q 204 844 58 699 q 575 989 350 989 q 848 941 737 989 l 848 775 q 581 850 736 850 q 327 747 426 850 q 227 482 227 645 q 313 219 227 315 q 545 123 398 123 q 718 161 645 123 l 718 393 l 513 393 l 513 528 l 879 528 l 879 66 m 627 -80 l 513 -285 l 408 -285 l 479 -80 l 627 -80 z "},"ģ":{"ha":837,"x_min":58,"x_max":734,"o":"m 734 56 q 350 -327 734 -327 q 113 -281 214 -327 l 113 -138 q 330 -203 227 -203 q 577 41 577 -203 l 577 117 l 574 117 q 340 -16 496 -16 q 135 76 213 -16 q 58 325 58 169 q 141 606 58 502 q 370 711 224 711 q 574 598 508 711 l 577 598 l 577 694 l 734 694 l 734 56 m 578 318 l 578 408 q 530 533 578 481 q 409 585 481 585 q 269 519 319 585 q 218 334 218 453 q 267 171 218 232 q 395 109 315 109 q 528 168 477 109 q 578 318 578 227 m 315 816 l 429 1021 l 534 1021 l 463 816 l 315 816 z "},"Ĥ":{"ha":1021,"x_min":120,"x_max":901,"o":"m 901 0 l 739 0 l 739 422 l 281 422 l 281 0 l 120 0 l 120 972 l 281 972 l 281 564 l 739 564 l 739 972 l 901 972 l 901 0 m 724 1062 l 615 1062 l 506 1205 l 399 1062 l 294 1062 l 446 1284 l 571 1284 l 724 1062 z "},"ĥ":{"ha":808,"x_min":102,"x_max":720,"o":"m 720 0 l 562 0 l 562 380 q 425 586 562 586 q 308 526 355 586 q 260 374 260 467 l 260 0 l 102 0 l 102 1028 l 260 1028 l 260 579 l 263 579 q 488 711 342 711 q 720 428 720 711 l 720 0 m 648 1093 l 540 1093 l 431 1236 l 324 1093 l 219 1093 l 371 1315 l 496 1315 l 648 1093 z "},"Ħ":{"ha":1021,"x_min":10,"x_max":1010,"o":"m 901 0 l 739 0 l 739 422 l 281 422 l 281 0 l 120 0 l 120 694 l 10 694 l 10 813 l 120 813 l 120 972 l 281 972 l 281 813 l 739 813 l 739 972 l 901 972 l 901 813 l 1010 813 l 1010 694 l 901 694 l 901 0 m 281 694 l 281 563 l 739 563 l 739 694 l 281 694 z "},"ħ":{"ha":817,"x_min":20,"x_max":730,"o":"m 730 0 l 574 0 l 574 385 q 435 577 574 577 q 318 524 366 577 q 271 387 271 471 l 271 0 l 114 0 l 114 808 l 20 808 l 20 907 l 114 907 l 114 1028 l 271 1028 l 271 907 l 496 907 l 496 808 l 271 808 l 271 578 l 274 578 q 496 704 353 704 q 670 631 610 704 q 730 420 730 558 l 730 0 z "},"Ĩ":{"ha":405,"x_min":-28,"x_max":431,"o":"m 286 0 l 119 0 l 119 972 l 286 972 l 286 0 m 431 1240 q 396 1111 431 1161 q 301 1061 361 1061 q 189 1094 252 1061 q 107 1124 136 1124 q 50 1049 50 1124 l -28 1049 q 7 1178 -28 1130 q 104 1227 41 1227 q 210 1192 150 1227 q 295 1162 259 1162 q 350 1240 350 1162 l 431 1240 z "},"ĩ":{"ha":363,"x_min":-51,"x_max":408,"o":"m 260 0 l 102 0 l 102 694 l 260 694 l 260 0 m 408 1000 q 373 872 408 922 q 278 822 338 822 q 166 854 229 822 q 84 885 113 885 q 27 810 27 885 l -51 810 q -16 939 -51 890 q 81 987 18 987 q 187 953 127 987 q 272 923 236 923 q 327 1000 327 923 l 408 1000 z "},"Ī":{"ha":405,"x_min":18,"x_max":386,"o":"m 286 0 l 119 0 l 119 972 l 286 972 l 286 0 m 386 1062 l 18 1062 l 18 1155 l 386 1155 l 386 1062 z "},"ī":{"ha":363,"x_min":-6,"x_max":362,"o":"m 260 0 l 102 0 l 102 694 l 260 694 l 260 0 m 362 817 l -6 817 l -6 909 l 362 909 l 362 817 z "},"Ĭ":{"ha":405,"x_min":-3,"x_max":408,"o":"m 286 0 l 119 0 l 119 972 l 286 972 l 286 0 m 408 1249 q 341 1114 400 1165 q 199 1062 283 1062 q 56 1113 111 1062 q -3 1249 1 1164 l 89 1249 q 201 1150 97 1150 q 277 1177 245 1150 q 315 1249 308 1204 l 408 1249 z "},"ĭ":{"ha":363,"x_min":-27,"x_max":384,"o":"m 260 0 l 102 0 l 102 694 l 260 694 l 260 0 m 384 1004 q 318 868 376 920 q 176 817 259 817 q 32 868 87 817 q -27 1004 -23 919 l 65 1004 q 178 905 73 905 q 253 931 222 905 q 291 1004 284 958 l 384 1004 z "},"Į":{"ha":405,"x_min":106,"x_max":307,"o":"m 286 0 l 119 0 l 119 972 l 286 972 l 286 0 m 307 0 q 205 -146 205 -93 q 249 -193 205 -193 q 295 -184 273 -193 l 295 -266 q 224 -277 269 -277 q 139 -248 171 -277 q 106 -170 106 -220 q 216 0 106 -87 l 307 0 z "},"į":{"ha":363,"x_min":59,"x_max":277,"o":"m 182 840 q 116 865 143 840 q 88 929 88 890 q 116 994 88 968 q 182 1019 143 1019 q 250 994 222 1019 q 277 929 277 968 q 250 866 277 892 q 182 840 222 840 m 260 0 l 102 0 l 102 694 l 260 694 l 260 0 m 260 0 q 157 -146 157 -93 q 201 -193 157 -193 q 248 -184 226 -193 l 248 -266 q 176 -277 222 -277 q 91 -248 123 -277 q 59 -170 59 -220 q 168 0 59 -87 l 260 0 z "},"Ĵ":{"ha":551,"x_min":17,"x_max":573,"o":"m 439 349 q 354 80 439 176 q 126 -16 269 -16 q 17 -1 60 -16 l 17 151 q 117 125 56 125 q 278 374 278 125 l 278 972 l 439 972 l 439 349 m 573 1062 l 465 1062 l 355 1205 l 249 1062 l 144 1062 l 296 1284 l 420 1284 l 573 1062 z "},"ĵ":{"ha":363,"x_min":-114,"x_max":395,"o":"m 260 21 q 188 -236 260 -146 q -18 -326 116 -326 q -114 -305 -67 -326 l -114 -172 q -26 -201 -68 -201 q 102 4 102 -201 l 102 694 l 260 694 l 260 21 m 395 817 l 287 817 l 178 960 l 71 817 l -34 817 l 118 1039 l 243 1039 l 395 817 z "},"Ķ":{"ha":848,"x_min":120,"x_max":856,"o":"m 856 0 l 646 0 l 307 445 q 284 479 288 470 l 281 479 l 281 0 l 120 0 l 120 972 l 281 972 l 281 515 l 284 515 q 307 549 292 530 l 633 972 l 827 972 l 445 506 l 856 0 m 530 -80 l 417 -285 l 312 -285 l 383 -80 l 530 -80 z "},"ķ":{"ha":729,"x_min":102,"x_max":732,"o":"m 732 0 l 533 0 l 263 334 l 260 334 l 260 0 l 102 0 l 102 1028 l 260 1028 l 260 376 l 263 376 l 518 694 l 707 694 l 420 359 l 732 0 m 473 -80 l 360 -285 l 255 -285 l 326 -80 l 473 -80 z "},"ĸ":{"ha":729,"x_min":102,"x_max":733,"o":"m 733 0 l 533 0 l 263 338 l 260 338 l 260 0 l 102 0 l 102 694 l 260 694 l 260 375 l 263 375 l 518 694 l 711 694 l 422 363 l 733 0 z "},"Ļ":{"ha":679,"x_min":120,"x_max":659,"o":"m 659 0 l 120 0 l 120 972 l 281 972 l 281 136 l 659 136 l 659 0 m 490 -80 l 376 -285 l 271 -285 l 342 -80 l 490 -80 z "},"ļ":{"ha":363,"x_min":41,"x_max":260,"o":"m 260 0 l 102 0 l 102 1028 l 260 1028 l 260 0 m 259 -80 l 146 -285 l 41 -285 l 112 -80 l 259 -80 z "},"Ņ":{"ha":1065,"x_min":120,"x_max":945,"o":"m 945 0 l 768 0 l 304 715 q 275 771 286 742 l 271 771 q 276 637 276 740 l 276 0 l 120 0 l 120 972 l 308 972 l 757 275 q 793 215 785 231 l 796 215 q 789 346 789 254 l 789 972 l 945 972 l 945 0 m 627 -80 l 513 -285 l 408 -285 l 479 -80 l 627 -80 z "},"ņ":{"ha":810,"x_min":102,"x_max":721,"o":"m 721 0 l 564 0 l 564 391 q 426 586 564 586 q 307 532 354 586 q 260 396 260 478 l 260 0 l 102 0 l 102 694 l 260 694 l 260 579 l 263 579 q 488 711 341 711 q 661 637 602 711 q 721 425 721 564 l 721 0 m 503 -80 l 389 -285 l 284 -285 l 355 -80 l 503 -80 z "},"Ŋ":{"ha":1065,"x_min":120,"x_max":944,"o":"m 302 715 q 273 771 288 735 l 269 771 q 275 648 275 738 l 275 0 l 120 0 l 120 972 l 307 972 l 756 309 q 792 243 758 307 l 795 243 q 789 380 789 288 l 789 972 l 944 972 l 944 52 q 688 -286 944 -286 q 574 -264 625 -286 l 574 -127 q 669 -155 627 -155 q 787 1 787 -155 l 302 715 z "},"ŋ":{"ha":810,"x_min":102,"x_max":722,"o":"m 722 29 q 463 -286 722 -286 q 359 -265 406 -286 l 359 -128 q 448 -156 408 -156 q 564 16 564 -156 l 564 382 q 423 586 564 586 q 307 532 353 586 q 260 396 260 478 l 260 0 l 102 0 l 102 694 l 260 694 l 260 579 l 263 579 q 488 711 342 711 q 722 429 722 711 l 722 29 z "},"Ō":{"ha":1050,"x_min":58,"x_max":991,"o":"m 521 -16 q 184 120 311 -16 q 58 475 58 256 q 186 849 58 709 q 536 989 315 989 q 866 853 741 989 q 991 498 991 718 q 863 122 991 260 q 521 -16 735 -16 m 528 847 q 311 747 395 847 q 227 485 227 648 q 309 224 227 323 q 522 125 390 125 q 742 219 661 125 q 823 483 823 313 q 744 752 823 657 q 528 847 666 847 m 711 1062 l 342 1062 l 342 1155 l 711 1155 l 711 1062 z "},"ō":{"ha":829,"x_min":58,"x_max":772,"o":"m 410 -16 q 154 81 250 -16 q 58 339 58 178 q 158 612 58 514 q 427 711 258 711 q 681 615 590 711 q 772 350 772 519 q 674 84 772 184 q 410 -16 576 -16 m 418 585 q 272 521 326 585 q 218 343 218 456 q 273 171 218 234 q 418 109 327 109 q 561 170 511 109 q 610 346 610 232 q 561 523 610 460 q 418 585 511 585 m 602 817 l 234 817 l 234 909 l 602 909 l 602 817 z "},"Ŏ":{"ha":1050,"x_min":58,"x_max":991,"o":"m 521 -16 q 184 120 311 -16 q 58 475 58 256 q 186 849 58 709 q 536 989 315 989 q 866 853 741 989 q 991 498 991 718 q 863 122 991 260 q 521 -16 735 -16 m 528 847 q 311 747 395 847 q 227 485 227 648 q 309 224 227 323 q 522 125 390 125 q 742 219 661 125 q 823 483 823 313 q 744 752 823 657 q 528 847 666 847 m 734 1250 q 668 1114 726 1166 q 526 1063 609 1063 q 382 1114 437 1063 q 323 1250 327 1165 l 415 1250 q 528 1151 423 1151 q 603 1178 572 1151 q 641 1250 634 1204 l 734 1250 z "},"ŏ":{"ha":829,"x_min":58,"x_max":772,"o":"m 410 -16 q 154 81 250 -16 q 58 339 58 178 q 158 612 58 514 q 427 711 258 711 q 681 615 590 711 q 772 350 772 519 q 674 84 772 184 q 410 -16 576 -16 m 418 585 q 272 521 326 585 q 218 343 218 456 q 273 171 218 234 q 418 109 327 109 q 561 170 511 109 q 610 346 610 232 q 561 523 610 460 q 418 585 511 585 m 627 1004 q 561 868 620 920 q 419 817 503 817 q 276 868 331 817 q 216 1004 220 919 l 309 1004 q 421 905 317 905 q 496 931 465 905 q 534 1004 528 958 l 627 1004 z "},"Ŗ":{"ha":865,"x_min":120,"x_max":871,"o":"m 871 0 l 683 0 l 528 260 q 487 322 507 296 q 446 363 467 347 q 401 387 425 380 q 346 395 376 395 l 281 395 l 281 0 l 120 0 l 120 972 l 440 972 q 566 956 509 972 q 667 907 624 940 q 733 825 709 874 q 758 710 758 776 q 742 615 758 659 q 699 539 727 572 q 631 481 671 505 q 542 445 591 458 l 542 442 q 588 409 568 427 q 625 372 608 391 q 660 329 643 353 q 699 273 677 305 l 871 0 m 281 842 l 281 526 l 415 526 q 484 537 452 526 q 538 570 515 549 q 574 623 562 592 q 587 693 587 654 q 543 802 587 763 q 416 842 499 842 l 281 842 m 543 -80 l 430 -285 l 325 -285 l 396 -80 l 543 -80 z "},"ŗ":{"ha":514,"x_min":102,"x_max":505,"o":"m 505 545 q 423 567 477 567 q 307 504 353 567 q 260 332 260 441 l 260 0 l 102 0 l 102 694 l 260 694 l 260 551 l 262 551 q 333 666 286 625 q 440 707 381 707 q 505 694 483 707 l 505 545 m 381 -80 l 268 -285 l 163 -285 l 234 -80 l 381 -80 z "},"Ŝ":{"ha":756,"x_min":75,"x_max":698,"o":"m 75 39 l 75 205 q 129 168 98 184 q 194 141 159 152 q 263 123 229 130 q 327 117 298 117 q 478 151 429 117 q 528 250 528 185 q 512 310 528 284 q 465 356 495 335 q 395 396 435 377 q 309 437 355 416 q 216 490 259 463 q 142 550 174 517 q 93 625 111 583 q 75 722 75 666 q 105 841 75 790 q 187 924 136 891 q 302 973 237 957 q 433 989 366 989 q 656 954 586 989 l 656 795 q 443 854 573 854 q 371 848 407 854 q 308 825 336 841 q 262 785 279 810 q 244 726 244 761 q 258 670 244 694 q 297 627 271 646 q 361 588 323 607 q 448 548 399 570 q 544 492 499 522 q 624 428 589 463 q 678 350 658 393 q 698 252 698 307 q 668 127 698 178 q 588 44 638 76 q 471 -2 537 12 q 332 -16 406 -16 q 272 -13 308 -16 q 199 -2 237 -9 q 129 16 162 5 q 75 39 96 26 m 601 1062 l 492 1062 l 383 1205 l 277 1062 l 172 1062 l 323 1284 l 448 1284 l 601 1062 z "},"ŝ":{"ha":599,"x_min":59,"x_max":552,"o":"m 59 22 l 59 168 q 254 100 147 100 q 396 184 396 100 q 384 225 396 208 q 351 254 372 241 q 302 277 330 267 q 239 300 274 288 q 162 336 197 317 q 105 379 128 355 q 71 434 83 404 q 60 505 60 465 q 83 594 60 555 q 147 658 107 632 q 238 697 187 684 q 343 711 289 711 q 515 682 439 711 l 515 544 q 347 594 442 594 q 293 588 317 594 q 252 571 269 582 q 226 545 235 560 q 216 511 216 530 q 226 473 216 489 q 254 446 235 458 q 299 424 273 434 q 359 403 325 414 q 439 366 404 385 q 500 322 475 347 q 538 267 525 298 q 552 192 552 235 q 528 100 552 139 q 463 35 503 60 q 369 -4 422 9 q 256 -16 315 -16 q 59 22 142 -16 m 517 817 l 408 817 l 299 960 l 193 817 l 87 817 l 239 1039 l 364 1039 l 517 817 z "},"Ŧ":{"ha":766,"x_min":24,"x_max":744,"o":"m 744 836 l 465 836 l 465 543 l 629 543 l 629 404 l 465 404 l 465 0 l 303 0 l 303 404 l 138 404 l 138 543 l 303 543 l 303 836 l 24 836 l 24 972 l 744 972 l 744 836 z "},"ŧ":{"ha":502,"x_min":28,"x_max":468,"o":"m 461 338 l 302 338 l 302 224 q 323 136 302 162 q 397 109 345 109 q 468 131 437 109 l 468 7 q 347 -16 422 -16 q 144 178 144 -16 l 144 338 l 39 338 l 39 451 l 144 451 l 144 571 l 28 571 l 28 694 l 144 694 l 144 853 q 221 878 144 854 l 302 902 l 302 694 l 468 694 l 468 571 l 302 571 l 302 451 l 461 451 l 461 338 z "},"Ũ":{"ha":977,"x_min":109,"x_max":868,"o":"m 868 393 q 480 -16 868 -16 q 109 378 109 -16 l 109 972 l 270 972 l 270 411 q 492 125 270 125 q 707 401 707 125 l 707 972 l 868 972 l 868 393 m 718 1231 q 683 1102 718 1152 q 589 1053 648 1053 q 477 1085 540 1053 q 395 1116 424 1116 q 338 1040 338 1116 l 260 1040 q 294 1170 260 1121 q 391 1218 329 1218 q 498 1183 437 1218 q 583 1154 547 1154 q 637 1231 637 1154 l 718 1231 z "},"ũ":{"ha":810,"x_min":89,"x_max":708,"o":"m 708 0 l 551 0 l 551 110 l 548 110 q 335 -16 479 -16 q 89 279 89 -16 l 89 694 l 246 694 l 246 296 q 391 109 246 109 q 506 160 460 109 q 551 295 551 212 l 551 694 l 708 694 l 708 0 m 630 1000 q 595 872 630 922 q 500 822 560 822 q 389 854 452 822 q 307 885 336 885 q 250 810 250 885 l 172 810 q 206 939 172 890 q 303 987 241 987 q 410 953 349 987 q 494 923 458 923 q 549 1000 549 923 l 630 1000 z "},"Ū":{"ha":977,"x_min":109,"x_max":868,"o":"m 868 393 q 480 -16 868 -16 q 109 378 109 -16 l 109 972 l 270 972 l 270 411 q 492 125 270 125 q 707 401 707 125 l 707 972 l 868 972 l 868 393 m 671 1062 l 302 1062 l 302 1155 l 671 1155 l 671 1062 z "},"ū":{"ha":810,"x_min":89,"x_max":708,"o":"m 708 0 l 551 0 l 551 110 l 548 110 q 335 -16 479 -16 q 89 279 89 -16 l 89 694 l 246 694 l 246 296 q 391 109 246 109 q 506 160 460 109 q 551 295 551 212 l 551 694 l 708 694 l 708 0 m 583 817 l 215 817 l 215 909 l 583 909 l 583 817 z "},"Ŭ":{"ha":977,"x_min":109,"x_max":868,"o":"m 868 393 q 480 -16 868 -16 q 109 378 109 -16 l 109 972 l 270 972 l 270 411 q 492 125 270 125 q 707 401 707 125 l 707 972 l 868 972 l 868 393 m 692 1249 q 626 1114 684 1165 q 484 1062 567 1062 q 340 1113 395 1062 q 281 1249 285 1164 l 373 1249 q 486 1150 381 1150 q 561 1177 530 1150 q 599 1249 592 1204 l 692 1249 z "},"ŭ":{"ha":810,"x_min":89,"x_max":708,"o":"m 708 0 l 551 0 l 551 110 l 548 110 q 335 -16 479 -16 q 89 279 89 -16 l 89 694 l 246 694 l 246 296 q 391 109 246 109 q 506 160 460 109 q 551 295 551 212 l 551 694 l 708 694 l 708 0 m 604 1004 q 538 868 597 920 q 396 817 479 817 q 253 868 308 817 q 193 1004 197 919 l 286 1004 q 398 905 294 905 q 473 931 442 905 q 511 1004 505 958 l 604 1004 z "},"Ų":{"ha":977,"x_min":109,"x_max":868,"o":"m 868 393 q 480 -16 868 -16 q 109 378 109 -16 l 109 972 l 270 972 l 270 411 q 492 125 270 125 q 707 401 707 125 l 707 972 l 868 972 l 868 393 m 607 0 q 505 -146 505 -93 q 549 -193 505 -193 q 595 -184 573 -193 l 595 -266 q 524 -277 569 -277 q 438 -248 471 -277 q 406 -170 406 -220 q 515 0 406 -87 l 607 0 z "},"ų":{"ha":810,"x_min":89,"x_max":708,"o":"m 708 0 l 551 0 l 551 110 l 548 110 q 335 -16 479 -16 q 89 279 89 -16 l 89 694 l 246 694 l 246 296 q 391 109 246 109 q 506 160 460 109 q 551 295 551 212 l 551 694 l 708 694 l 708 0 m 644 0 q 541 -146 541 -93 q 585 -193 541 -193 q 631 -184 610 -193 l 631 -266 q 560 -277 606 -277 q 475 -248 507 -277 q 443 -170 443 -220 q 552 0 443 -87 l 644 0 z "},"Ŵ":{"ha":1341,"x_min":15,"x_max":1326,"o":"m 1326 972 l 1060 0 l 878 0 l 692 680 q 678 775 681 724 l 675 775 q 659 682 672 727 l 473 0 l 287 0 l 15 972 l 192 972 l 368 260 q 382 167 379 216 l 385 167 q 404 260 388 201 l 604 972 l 770 972 l 954 255 q 968 168 964 218 l 971 168 q 987 258 973 202 l 1160 972 l 1326 972 m 893 1062 l 785 1062 l 675 1205 l 569 1062 l 464 1062 l 616 1284 l 741 1284 l 893 1062 z "},"ŵ":{"ha":1050,"x_min":14,"x_max":1036,"o":"m 1036 694 l 831 0 l 667 0 l 541 471 q 531 532 533 498 l 528 532 q 516 472 527 509 l 379 0 l 218 0 l 14 694 l 176 694 l 302 194 q 311 134 309 172 l 315 134 q 326 195 317 163 l 467 694 l 614 694 l 739 192 q 748 132 745 168 l 753 132 q 763 192 754 157 l 886 694 l 1036 694 m 746 817 l 637 817 l 528 960 l 422 817 l 317 817 l 469 1039 l 593 1039 l 746 817 z "},"Ŷ":{"ha":802,"x_min":7,"x_max":798,"o":"m 798 972 l 479 353 l 479 0 l 317 0 l 317 350 l 7 972 l 191 972 l 382 555 q 402 499 385 548 l 404 499 q 427 555 410 521 l 627 972 l 798 972 m 617 1062 l 509 1062 l 399 1205 l 293 1062 l 188 1062 l 340 1284 l 465 1284 l 617 1062 z "},"ŷ":{"ha":706,"x_min":4,"x_max":704,"o":"m 704 694 l 391 -111 q 117 -327 293 -327 q 34 -318 67 -327 l 34 -187 q 102 -199 71 -199 q 233 -113 190 -199 l 280 1 l 4 694 l 178 694 l 344 190 q 356 140 347 180 l 359 140 q 372 189 363 155 l 545 694 l 704 694 m 574 817 l 466 817 l 357 960 l 250 817 l 145 817 l 297 1039 l 422 1039 l 574 817 z "},"ſ":{"ha":372,"x_min":102,"x_max":446,"o":"m 446 901 q 370 918 410 918 q 260 787 260 918 l 260 0 l 102 0 l 102 795 q 172 976 102 909 q 353 1044 242 1044 q 446 1031 409 1044 l 446 901 z "},"Ǻ":{"ha":932,"x_min":12,"x_max":919,"o":"m 919 0 l 742 0 l 654 248 l 272 248 l 188 0 l 12 0 l 376 972 l 557 972 l 919 0 m 612 379 l 477 767 q 464 828 471 786 l 461 828 q 448 767 455 789 l 314 379 l 612 379 m 460 904 q 355 941 397 904 q 313 1037 313 977 q 356 1143 313 1103 q 465 1182 399 1182 q 572 1142 530 1182 q 614 1041 614 1103 q 569 943 614 982 q 460 904 525 904 m 460 1114 q 410 1094 430 1114 q 390 1044 390 1074 q 460 973 390 973 q 514 993 493 973 q 536 1044 536 1013 q 514 1094 536 1074 q 460 1114 493 1114 m 661 1447 l 467 1224 l 350 1224 l 514 1447 l 661 1447 z "},"ǻ":{"ha":725,"x_min":51,"x_max":635,"o":"m 635 0 l 483 0 l 483 109 l 480 109 q 269 -16 408 -16 q 109 39 167 -16 q 51 186 51 95 q 277 416 51 383 l 484 445 q 342 593 484 593 q 119 508 218 593 l 119 646 q 372 711 229 711 q 635 452 635 711 l 635 0 m 484 341 l 338 321 q 236 288 270 312 q 201 203 201 264 q 233 131 201 159 q 317 103 264 103 q 436 154 389 103 q 484 281 484 204 l 484 341 m 367 762 q 261 799 303 762 q 220 895 220 836 q 262 1001 220 962 q 372 1040 305 1040 q 478 1001 437 1040 q 520 899 520 961 q 476 801 520 840 q 367 762 431 762 m 367 972 q 316 952 336 972 q 296 902 296 932 q 367 831 296 831 q 421 851 399 831 q 442 902 442 871 q 421 952 442 932 q 367 972 399 972 m 575 1322 l 381 1100 l 264 1100 l 429 1322 l 575 1322 z "},"Ǽ":{"ha":1242,"x_min":4,"x_max":1186,"o":"m 1186 0 l 641 0 l 641 248 l 307 248 l 191 0 l 4 0 l 486 972 l 1164 972 l 1164 836 l 802 836 l 802 560 l 1139 560 l 1139 424 l 802 424 l 802 136 l 1186 136 l 1186 0 m 641 379 l 641 836 l 582 836 l 367 379 l 641 379 m 973 1294 l 779 1072 l 663 1072 l 827 1294 l 973 1294 z "},"ǽ":{"ha":1153,"x_min":51,"x_max":1105,"o":"m 1105 304 l 631 304 q 689 156 633 208 q 842 103 745 103 q 1052 170 958 103 l 1052 44 q 803 -16 960 -16 q 538 123 616 -16 l 536 123 q 283 -16 441 -16 q 113 40 175 -16 q 51 189 51 96 q 308 414 51 397 l 484 425 q 347 594 484 594 q 119 516 227 594 l 119 649 q 361 711 222 711 q 572 595 524 711 l 575 595 q 812 711 652 711 q 1028 619 951 711 q 1105 363 1105 527 l 1105 304 m 954 416 q 913 548 952 502 q 805 595 875 595 q 691 546 739 595 q 632 416 643 497 l 954 416 m 484 279 l 484 317 l 363 309 q 241 280 281 304 q 201 199 201 256 q 232 130 201 156 q 317 103 264 103 q 435 153 387 103 q 484 279 484 203 m 786 1048 l 592 826 l 475 826 l 640 1048 l 786 1048 z "},"Ǿ":{"ha":1050,"x_min":58,"x_max":992,"o":"m 227 82 l 127 -38 l 60 18 l 164 143 q 58 475 58 274 q 186 848 58 707 q 537 989 315 989 q 809 904 695 989 l 899 1010 l 966 956 l 873 846 q 992 498 992 714 q 864 122 992 260 q 521 -16 736 -16 q 227 82 344 -16 m 717 794 q 530 855 642 855 q 306 752 391 855 q 220 485 220 650 q 271 267 220 355 l 717 794 m 770 725 l 323 196 q 521 117 401 117 q 747 213 665 117 q 830 483 830 310 q 770 725 830 633 m 743 1294 l 549 1072 l 432 1072 l 596 1294 l 743 1294 z "},"ǿ":{"ha":829,"x_min":30,"x_max":806,"o":"m 806 699 l 701 587 q 772 354 772 494 q 673 83 772 183 q 410 -16 574 -16 q 192 48 279 -16 l 97 -54 l 30 7 l 127 112 q 58 343 58 205 q 157 614 58 517 q 425 711 257 711 q 635 650 551 711 l 738 760 l 806 699 m 541 553 q 418 593 496 593 q 268 527 323 593 q 212 345 212 461 q 236 224 212 274 l 541 553 m 595 475 l 286 144 q 417 102 337 102 q 567 166 515 102 q 618 347 618 231 q 595 475 618 422 m 624 1048 l 430 826 l 313 826 l 477 1048 l 624 1048 z "},"·":{"ha":335,"x_min":70,"x_max":266,"o":"m 167 338 q 98 366 127 338 q 70 431 70 393 q 98 496 70 469 q 168 523 127 523 q 237 496 208 523 q 266 431 266 469 q 237 366 266 393 q 167 338 208 338 z "},"Ẁ":{"ha":1341,"x_min":15,"x_max":1326,"o":"m 1326 972 l 1060 0 l 878 0 l 692 680 q 678 775 681 724 l 675 775 q 659 682 672 727 l 473 0 l 287 0 l 15 972 l 192 972 l 368 260 q 382 167 379 216 l 385 167 q 404 260 388 201 l 604 972 l 770 972 l 954 255 q 968 168 964 218 l 971 168 q 987 258 973 202 l 1160 972 l 1326 972 m 805 1062 l 688 1062 l 510 1284 l 655 1284 l 805 1062 z "},"ẁ":{"ha":1050,"x_min":14,"x_max":1036,"o":"m 1036 694 l 831 0 l 667 0 l 541 471 q 531 532 533 498 l 528 532 q 516 472 527 509 l 379 0 l 218 0 l 14 694 l 176 694 l 302 194 q 311 134 309 172 l 315 134 q 326 195 317 163 l 467 694 l 614 694 l 739 192 q 748 132 745 168 l 753 132 q 763 192 754 157 l 886 694 l 1036 694 m 665 817 l 548 817 l 370 1039 l 515 1039 l 665 817 z "},"Ẃ":{"ha":1341,"x_min":15,"x_max":1326,"o":"m 1326 972 l 1060 0 l 878 0 l 692 680 q 678 775 681 724 l 675 775 q 659 682 672 727 l 473 0 l 287 0 l 15 972 l 192 972 l 368 260 q 382 167 379 216 l 385 167 q 404 260 388 201 l 604 972 l 770 972 l 954 255 q 968 168 964 218 l 971 168 q 987 258 973 202 l 1160 972 l 1326 972 m 869 1294 l 675 1072 l 558 1072 l 722 1294 l 869 1294 z "},"ẃ":{"ha":1050,"x_min":14,"x_max":1036,"o":"m 1036 694 l 831 0 l 667 0 l 541 471 q 531 532 533 498 l 528 532 q 516 472 527 509 l 379 0 l 218 0 l 14 694 l 176 694 l 302 194 q 311 134 309 172 l 315 134 q 326 195 317 163 l 467 694 l 614 694 l 739 192 q 748 132 745 168 l 753 132 q 763 192 754 157 l 886 694 l 1036 694 m 722 1048 l 528 826 l 411 826 l 575 1048 l 722 1048 z "},"Ẅ":{"ha":1341,"x_min":15,"x_max":1326,"o":"m 1326 972 l 1060 0 l 878 0 l 692 680 q 678 775 681 724 l 675 775 q 659 682 672 727 l 473 0 l 287 0 l 15 972 l 192 972 l 368 260 q 382 167 379 216 l 385 167 q 404 260 388 201 l 604 972 l 770 972 l 954 255 q 968 168 964 218 l 971 168 q 987 258 973 202 l 1160 972 l 1326 972 m 819 1062 q 760 1084 785 1062 q 735 1141 735 1107 q 759 1197 735 1175 q 817 1219 783 1219 q 877 1197 852 1219 q 902 1141 902 1174 q 878 1085 902 1108 q 819 1062 854 1062 m 536 1062 q 476 1085 501 1062 q 451 1141 451 1109 q 475 1197 451 1175 q 534 1219 499 1219 q 594 1197 568 1219 q 619 1141 619 1174 q 595 1085 619 1108 q 536 1062 570 1062 z "},"ẅ":{"ha":1050,"x_min":14,"x_max":1036,"o":"m 1036 694 l 831 0 l 667 0 l 541 471 q 531 532 533 498 l 528 532 q 516 472 527 509 l 379 0 l 218 0 l 14 694 l 176 694 l 302 194 q 311 134 309 172 l 315 134 q 326 195 317 163 l 467 694 l 614 694 l 739 192 q 748 132 745 168 l 753 132 q 763 192 754 157 l 886 694 l 1036 694 m 677 816 q 618 838 643 816 q 593 895 593 861 q 617 951 593 928 q 675 973 641 973 q 735 950 711 973 q 760 895 760 928 q 736 839 760 862 q 677 816 713 816 m 395 816 q 334 839 359 816 q 309 895 309 863 q 333 951 309 928 q 392 973 357 973 q 452 950 427 973 q 477 895 477 928 q 453 839 477 862 q 395 816 429 816 z "},"Ỳ":{"ha":802,"x_min":7,"x_max":798,"o":"m 798 972 l 479 353 l 479 0 l 317 0 l 317 350 l 7 972 l 191 972 l 382 555 q 402 499 385 548 l 404 499 q 427 555 410 521 l 627 972 l 798 972 m 505 1062 l 388 1062 l 210 1284 l 355 1284 l 505 1062 z "},"ỳ":{"ha":706,"x_min":4,"x_max":704,"o":"m 704 694 l 391 -111 q 117 -327 293 -327 q 34 -318 67 -327 l 34 -187 q 102 -199 71 -199 q 233 -113 190 -199 l 280 1 l 4 694 l 178 694 l 344 190 q 356 140 347 180 l 359 140 q 372 189 363 155 l 545 694 l 704 694 m 454 817 l 336 817 l 159 1039 l 304 1039 l 454 817 z "},"‛":{"ha":356,"x_min":75,"x_max":290,"o":"m 290 690 l 187 690 l 75 991 l 214 991 l 290 690 z "},"‾":{"ha":576,"x_min":0,"x_max":576,"o":"m 576 947 l 0 947 l 0 1028 l 576 1028 l 576 947 z "},"₤":{"ha":771,"x_min":83,"x_max":715,"o":"m 566 339 l 374 339 l 374 334 q 255 125 374 184 l 715 125 l 715 0 l 83 0 l 83 119 q 223 314 223 163 l 223 339 l 97 339 l 97 445 l 223 445 l 223 528 l 97 528 l 97 634 l 223 634 l 223 694 q 302 906 223 823 q 507 989 381 989 q 658 958 591 989 l 658 822 q 515 863 591 863 q 374 678 374 863 l 374 634 l 566 634 l 566 528 l 374 528 l 374 445 l 566 445 l 566 339 z "},"℮":{"ha":833,"x_min":58,"x_max":776,"o":"m 776 359 l 214 359 l 215 109 q 416 26 296 26 q 684 193 589 26 l 732 164 q 588 19 662 61 q 416 -24 513 -24 q 156 86 255 -24 q 58 359 58 195 q 158 637 58 532 q 414 743 259 743 q 663 647 560 743 q 776 359 766 551 m 618 410 l 618 611 q 413 694 530 694 q 214 611 294 694 l 214 410 l 618 410 z "},"⅛":{"ha":1308,"x_min":57,"x_max":1224,"o":"m 208 397 l 208 854 q 166 822 189 837 q 123 795 144 807 q 85 775 102 783 q 57 764 67 767 l 57 865 q 115 889 85 875 q 172 919 144 903 q 224 952 200 935 q 268 987 249 970 l 323 987 l 323 397 l 208 397 m 981 972 l 387 0 l 259 0 l 851 972 l 981 972 m 794 162 q 800 205 794 183 q 819 246 806 227 q 848 283 831 266 q 888 312 866 300 q 840 365 858 334 q 821 431 821 395 q 835 495 821 465 q 874 546 849 524 q 933 579 899 567 q 1009 591 968 591 q 1086 579 1051 591 q 1145 545 1120 567 q 1183 494 1170 524 q 1197 431 1197 465 q 1179 364 1197 394 q 1130 311 1161 334 q 1167 281 1150 298 q 1197 244 1185 264 q 1217 203 1210 224 q 1224 162 1224 182 q 1209 89 1224 121 q 1165 34 1194 57 q 1098 0 1137 12 q 1009 -12 1058 -12 q 921 0 961 -12 q 853 34 882 12 q 810 89 825 57 q 794 162 794 121 m 908 168 q 935 103 908 125 q 1009 81 962 81 q 1085 103 1057 81 q 1113 168 1113 125 q 1106 205 1113 188 q 1085 235 1099 222 q 1053 255 1072 248 q 1009 262 1034 262 q 968 256 987 262 q 937 237 950 249 q 916 207 923 224 q 908 168 908 189 m 929 430 q 935 400 929 414 q 952 374 941 385 q 978 357 963 363 q 1009 351 992 351 q 1042 357 1027 351 q 1068 375 1057 363 q 1085 400 1079 386 q 1091 430 1091 414 q 1068 481 1091 461 q 1009 501 1046 501 q 950 481 972 501 q 929 430 929 460 z "},"⅜":{"ha":1308,"x_min":88,"x_max":1251,"o":"m 88 418 l 88 526 q 237 477 159 477 q 317 499 288 477 q 347 559 347 522 q 201 644 347 644 l 145 644 l 145 739 l 198 739 q 328 818 328 739 q 239 890 328 890 q 109 844 173 890 l 109 949 q 261 986 171 986 q 393 945 344 986 q 441 838 441 904 q 344 703 441 739 l 344 700 q 462 564 462 671 q 401 433 462 484 q 237 382 340 382 q 88 418 142 382 m 1007 972 l 414 0 l 286 0 l 878 972 l 1007 972 m 821 161 q 827 204 821 182 q 845 245 833 226 q 875 282 857 265 q 915 311 892 299 q 866 364 884 334 q 848 430 848 394 q 862 494 848 465 q 900 545 876 524 q 960 578 925 566 q 1036 591 994 591 q 1112 578 1078 591 q 1172 545 1147 566 q 1210 494 1196 523 q 1223 430 1223 465 q 1205 363 1223 393 q 1156 311 1187 333 q 1194 280 1177 298 q 1224 243 1211 263 q 1243 203 1236 224 q 1251 161 1251 182 q 1235 89 1251 121 q 1192 34 1220 56 q 1124 -1 1164 11 q 1036 -13 1084 -13 q 948 -1 987 -13 q 880 34 908 11 q 836 89 852 56 q 821 161 821 121 m 935 168 q 961 102 935 125 q 1036 80 988 80 q 1111 102 1083 80 q 1139 168 1139 125 q 1132 204 1139 187 q 1112 234 1125 222 q 1079 254 1099 247 q 1036 262 1060 262 q 995 255 1013 262 q 963 236 977 248 q 942 206 949 224 q 935 168 935 189 m 956 429 q 962 399 956 414 q 979 374 968 385 q 1004 356 989 363 q 1036 350 1019 350 q 1068 356 1053 350 q 1095 374 1084 363 q 1112 399 1105 385 q 1118 429 1118 414 q 1095 480 1118 460 q 1036 500 1072 500 q 977 480 998 500 q 956 429 956 460 z "},"⅝":{"ha":1313,"x_min":94,"x_max":1252,"o":"m 94 412 l 94 519 q 229 475 170 475 q 276 482 255 475 q 313 502 298 489 q 336 532 328 515 q 344 571 344 550 q 216 663 344 663 q 157 661 186 663 q 98 656 127 659 l 138 975 l 433 975 l 433 876 l 218 876 l 203 756 q 227 758 212 757 q 250 759 241 759 q 331 747 293 759 q 398 713 370 736 q 444 656 427 690 q 460 578 460 623 q 441 491 460 528 q 389 430 421 454 q 317 394 357 406 q 235 382 277 382 q 94 412 146 382 m 1007 972 l 414 0 l 286 0 l 878 972 l 1007 972 m 822 162 q 828 205 822 183 q 846 246 834 227 q 876 283 859 266 q 916 312 894 300 q 867 365 886 334 q 849 431 849 395 q 863 495 849 465 q 902 546 877 524 q 961 579 926 567 q 1037 591 996 591 q 1114 579 1079 591 q 1173 545 1148 567 q 1211 494 1198 524 q 1225 431 1225 465 q 1207 364 1225 394 q 1158 311 1189 334 q 1195 281 1178 298 q 1225 244 1213 264 q 1245 203 1238 224 q 1252 162 1252 182 q 1237 89 1252 121 q 1193 34 1221 57 q 1125 0 1165 12 q 1037 -12 1086 -12 q 949 0 989 -12 q 881 34 909 12 q 838 89 853 57 q 822 162 822 121 m 936 168 q 963 103 936 125 q 1037 81 989 81 q 1113 103 1084 81 q 1141 168 1141 125 q 1134 205 1141 188 q 1113 235 1126 222 q 1081 255 1100 248 q 1037 262 1061 262 q 996 256 1015 262 q 964 237 978 249 q 943 207 951 224 q 936 168 936 189 m 957 430 q 963 400 957 414 q 980 374 969 385 q 1005 357 991 363 q 1037 351 1020 351 q 1070 357 1055 351 q 1096 375 1085 363 q 1113 400 1107 386 q 1119 430 1119 414 q 1096 481 1119 461 q 1037 501 1074 501 q 978 481 1000 501 q 957 430 957 460 z "},"⅞":{"ha":1260,"x_min":87,"x_max":1177,"o":"m 153 396 q 195 522 173 460 q 243 645 217 585 q 299 765 269 706 q 366 880 330 823 l 87 880 l 87 976 l 498 976 l 498 926 q 358 669 412 800 q 275 396 304 537 l 153 396 m 932 972 l 339 0 l 211 0 l 803 972 l 932 972 m 747 162 q 753 205 747 183 q 771 246 759 227 q 801 283 783 266 q 841 312 819 300 q 792 365 810 334 q 774 431 774 395 q 788 495 774 465 q 826 546 802 524 q 886 579 851 567 q 962 591 920 591 q 1038 579 1004 591 q 1098 545 1073 567 q 1136 494 1122 524 q 1149 431 1149 465 q 1132 364 1149 394 q 1082 311 1114 334 q 1120 281 1103 298 q 1150 244 1137 264 q 1170 203 1162 224 q 1177 162 1177 182 q 1161 89 1177 121 q 1118 34 1146 57 q 1050 0 1090 12 q 962 -12 1010 -12 q 874 0 913 -12 q 806 34 834 12 q 762 89 778 57 q 747 162 747 121 m 861 168 q 887 103 861 125 q 962 81 914 81 q 1037 103 1009 81 q 1065 168 1065 125 q 1058 205 1065 188 q 1038 235 1051 222 q 1005 255 1025 248 q 962 262 986 262 q 921 256 939 262 q 889 237 903 249 q 868 207 876 224 q 861 168 861 189 m 882 430 q 888 400 882 414 q 905 374 894 385 q 930 357 916 363 q 962 351 945 351 q 995 357 979 351 q 1021 375 1010 363 q 1038 400 1031 386 q 1044 430 1044 414 q 1021 481 1044 461 q 962 501 998 501 q 903 481 924 501 q 882 430 882 460 z "},";":{"ha":335,"x_min":26,"x_max":262,"o":"m 168 523 q 100 550 127 523 q 73 616 73 578 q 100 680 73 654 q 168 707 127 707 q 234 680 206 707 q 262 616 262 654 q 234 550 262 578 q 168 523 206 523 m 250 162 l 146 -179 l 26 -179 l 100 162 l 250 162 z "},"΄":{"ha":406,"x_min":134,"x_max":349,"o":"m 349 1034 l 221 794 l 134 794 l 201 1034 l 349 1034 z "},"΅":{"ha":463,"x_min":-23,"x_max":505,"o":"m 372 1061 l 245 812 l 164 812 l 227 1061 l 372 1061 m 424 818 q 367 839 391 818 q 344 893 344 861 q 367 947 344 926 q 423 969 391 969 q 481 947 457 969 q 505 893 505 925 q 481 839 505 861 q 424 818 457 818 m 56 818 q 0 839 24 818 q -23 893 -23 861 q 0 947 -23 926 q 56 969 24 969 q 114 947 90 969 q 138 893 138 925 q 114 839 138 861 q 56 818 90 818 z "},"Ά":{"ha":932,"x_min":3,"x_max":919,"o":"m 919 0 l 742 0 l 654 248 l 272 248 l 188 0 l 12 0 l 376 972 l 557 972 l 919 0 m 612 379 l 477 767 q 464 828 471 786 l 461 828 q 448 767 455 789 l 314 379 l 612 379 m 218 974 l 90 734 l 3 734 l 71 974 l 218 974 z "},"Έ":{"ha":845,"x_min":-36,"x_max":791,"o":"m 791 0 l 245 0 l 245 972 l 769 972 l 769 836 l 406 836 l 406 560 l 741 560 l 741 424 l 406 424 l 406 136 l 791 136 l 791 0 m 179 974 l 51 734 l -36 734 l 31 974 l 179 974 z "},"Ή":{"ha":1147,"x_min":-37,"x_max":1026,"o":"m 1026 0 l 864 0 l 864 422 l 406 422 l 406 0 l 245 0 l 245 972 l 406 972 l 406 564 l 864 564 l 864 972 l 1026 972 l 1026 0 m 178 974 l 50 734 l -37 734 l 31 974 l 178 974 z "},"Ί":{"ha":589,"x_min":-35,"x_max":473,"o":"m 473 0 l 307 0 l 307 972 l 473 972 l 473 0 m 180 974 l 52 734 l -35 734 l 33 974 l 180 974 z "},"Ό":{"ha":1140,"x_min":-28,"x_max":1084,"o":"m 613 -16 q 276 120 403 -16 q 150 475 150 256 q 279 849 150 709 q 629 989 408 989 q 959 853 833 989 q 1084 498 1084 718 q 956 122 1084 260 q 613 -16 827 -16 m 621 847 q 403 747 487 847 q 319 485 319 648 q 401 224 319 323 q 614 125 482 125 q 834 219 753 125 q 915 483 915 313 q 837 752 915 657 q 621 847 758 847 m 186 974 l 58 734 l -28 734 l 39 974 l 186 974 z "},"Ύ":{"ha":997,"x_min":-50,"x_max":991,"o":"m 991 972 l 673 353 l 673 0 l 511 0 l 511 350 l 201 972 l 385 972 l 576 555 q 596 499 579 548 l 598 499 q 621 555 604 521 l 821 972 l 991 972 m 165 974 l 37 734 l -50 734 l 17 974 l 165 974 z "},"Ώ":{"ha":1171,"x_min":-32,"x_max":1109,"o":"m 1109 0 l 732 0 l 732 134 q 941 530 941 294 q 858 763 941 677 q 646 849 776 849 q 430 763 514 849 q 347 528 347 677 q 555 134 347 293 l 555 0 l 178 0 l 178 134 l 411 134 q 178 546 178 286 q 306 870 178 752 q 642 989 433 989 q 982 871 854 989 q 1109 547 1109 754 q 873 134 1109 288 l 1109 134 l 1109 0 m 183 973 l 55 734 l -32 734 l 35 973 l 183 973 z "},"ΐ":{"ha":409,"x_min":-68,"x_max":460,"o":"m 393 8 q 292 -10 341 -10 q 109 195 109 -10 l 109 694 l 266 694 l 266 212 q 331 120 266 120 q 393 134 360 120 l 393 8 m 328 1061 l 201 812 l 119 812 l 182 1061 l 328 1061 m 379 818 q 322 839 346 818 q 299 893 299 861 q 322 947 299 926 q 378 969 346 969 q 436 947 412 969 q 460 893 460 925 q 436 839 460 861 q 379 818 412 818 m 12 818 q -44 839 -21 818 q -68 893 -68 861 q -44 947 -68 926 q 12 969 -21 969 q 69 947 45 969 q 93 893 93 925 q 69 839 93 861 q 12 818 45 818 z "},"Α":{"ha":932,"x_min":12,"x_max":919,"o":"m 919 0 l 742 0 l 654 248 l 272 248 l 188 0 l 12 0 l 376 972 l 557 972 l 919 0 m 612 379 l 477 767 q 464 828 471 786 l 461 828 q 448 767 455 789 l 314 379 l 612 379 z "},"Β":{"ha":839,"x_min":120,"x_max":779,"o":"m 120 0 l 120 972 l 429 972 q 652 911 570 972 q 734 750 734 849 q 688 606 734 667 q 558 519 641 545 l 558 517 q 719 443 659 505 q 779 279 779 380 q 680 77 779 155 q 432 0 582 0 l 120 0 m 281 843 l 281 566 l 385 566 q 517 606 469 566 q 565 718 565 646 q 398 843 565 843 l 281 843 m 281 437 l 281 129 l 418 129 q 558 171 509 129 q 607 286 607 212 q 397 437 607 437 l 281 437 z "},"Ε":{"ha":719,"x_min":120,"x_max":666,"o":"m 666 0 l 120 0 l 120 972 l 644 972 l 644 836 l 281 836 l 281 560 l 616 560 l 616 424 l 281 424 l 281 136 l 666 136 l 666 0 z "},"Ζ":{"ha":815,"x_min":24,"x_max":783,"o":"m 783 902 l 250 136 l 777 136 l 777 0 l 24 0 l 24 74 l 559 836 l 66 836 l 66 972 l 783 972 l 783 902 z "},"Η":{"ha":1021,"x_min":120,"x_max":901,"o":"m 901 0 l 739 0 l 739 422 l 281 422 l 281 0 l 120 0 l 120 972 l 281 972 l 281 564 l 739 564 l 739 972 l 901 972 l 901 0 z "},"Ι":{"ha":405,"x_min":119,"x_max":286,"o":"m 286 0 l 119 0 l 119 972 l 286 972 l 286 0 z "},"Κ":{"ha":848,"x_min":120,"x_max":856,"o":"m 856 0 l 646 0 l 307 445 q 284 479 288 470 l 281 479 l 281 0 l 120 0 l 120 972 l 281 972 l 281 515 l 284 515 q 307 549 292 530 l 633 972 l 827 972 l 445 506 l 856 0 z "},"Λ":{"ha":913,"x_min":12,"x_max":899,"o":"m 899 0 l 722 0 l 475 746 q 456 826 465 778 l 453 826 q 433 747 446 784 l 185 0 l 12 0 l 363 972 l 554 972 l 899 0 z "},"Μ":{"ha":1284,"x_min":120,"x_max":1164,"o":"m 1164 0 l 1004 0 l 1004 629 q 1014 819 1004 707 l 1011 819 q 985 727 996 755 l 694 0 l 583 0 l 292 722 q 267 819 280 753 l 264 819 q 269 628 269 760 l 269 0 l 120 0 l 120 972 l 347 972 l 603 325 q 641 214 632 250 l 644 214 q 685 328 669 290 l 945 972 l 1164 972 l 1164 0 z "},"Ν":{"ha":1065,"x_min":120,"x_max":945,"o":"m 945 0 l 768 0 l 304 715 q 275 771 286 742 l 271 771 q 276 637 276 740 l 276 0 l 120 0 l 120 972 l 308 972 l 757 275 q 793 215 785 231 l 796 215 q 789 346 789 254 l 789 972 l 945 972 l 945 0 z "},"Ξ":{"ha":735,"x_min":39,"x_max":696,"o":"m 678 831 l 57 831 l 57 972 l 678 972 l 678 831 m 583 421 l 153 421 l 153 559 l 583 559 l 583 421 m 696 0 l 39 0 l 40 143 l 696 143 l 696 0 z "},"Ο":{"ha":1050,"x_min":58,"x_max":991,"o":"m 521 -16 q 184 120 311 -16 q 58 475 58 256 q 186 849 58 709 q 536 989 315 989 q 866 853 741 989 q 991 498 991 718 q 863 122 991 260 q 521 -16 735 -16 m 528 847 q 311 747 395 847 q 227 485 227 648 q 309 224 227 323 q 522 125 390 125 q 742 219 661 125 q 823 483 823 313 q 744 752 823 657 q 528 847 666 847 z "},"Π":{"ha":1023,"x_min":120,"x_max":905,"o":"m 905 0 l 743 0 l 743 828 l 281 828 l 281 0 l 120 0 l 120 972 l 905 972 l 905 0 z "},"Ρ":{"ha":812,"x_min":120,"x_max":767,"o":"m 281 353 l 281 0 l 120 0 l 120 972 l 415 972 q 675 895 583 972 q 767 675 767 817 q 671 443 767 533 q 410 353 574 353 l 281 353 m 281 840 l 281 484 l 385 484 q 543 532 489 484 q 597 668 597 581 q 398 840 597 840 l 281 840 z "},"Σ":{"ha":750,"x_min":30,"x_max":720,"o":"m 720 0 l 30 0 l 30 81 l 345 497 l 54 882 l 54 972 l 677 972 l 677 833 l 283 833 l 533 503 l 259 134 l 720 134 l 720 0 z "},"Τ":{"ha":766,"x_min":24,"x_max":744,"o":"m 744 836 l 465 836 l 465 0 l 303 0 l 303 836 l 24 836 l 24 972 l 744 972 l 744 836 z "},"Υ":{"ha":802,"x_min":7,"x_max":798,"o":"m 798 972 l 479 353 l 479 0 l 317 0 l 317 350 l 7 972 l 191 972 l 382 555 q 402 499 385 548 l 404 499 q 427 555 410 521 l 627 972 l 798 972 z "},"Χ":{"ha":860,"x_min":12,"x_max":847,"o":"m 847 0 l 654 0 l 454 357 q 435 403 446 373 l 432 403 q 412 357 426 388 l 206 0 l 12 0 l 330 489 l 37 972 l 235 972 l 410 644 q 441 579 427 612 l 443 579 q 477 647 463 622 l 659 972 l 841 972 l 541 490 l 847 0 z "},"Ψ":{"ha":1109,"x_min":91,"x_max":1017,"o":"m 626 972 l 626 391 l 654 391 q 869 616 869 391 l 869 972 l 1017 972 l 1017 610 q 918 353 1017 452 q 654 253 819 253 l 626 253 l 626 0 l 483 0 l 483 253 l 454 253 q 190 353 288 253 q 91 610 91 452 l 91 972 l 239 972 l 239 616 q 454 391 239 391 l 483 391 l 483 972 l 626 972 z "},"Ω":{"ha":1055,"x_min":62,"x_max":994,"o":"m 994 0 l 616 0 l 616 134 q 825 530 825 294 q 743 763 825 677 q 530 849 661 849 q 315 763 399 849 q 231 528 231 677 q 439 134 231 293 l 439 0 l 62 0 l 62 134 l 296 134 q 63 546 63 286 q 191 870 63 752 q 526 989 318 989 q 866 871 739 989 q 994 547 994 754 q 758 134 994 288 l 994 134 l 994 0 z "},"Ϊ":{"ha":405,"x_min":-22,"x_max":429,"o":"m 286 0 l 119 0 l 119 972 l 286 972 l 286 0 m 346 1052 q 287 1074 312 1052 q 262 1131 262 1097 q 286 1187 262 1164 q 344 1209 310 1209 q 405 1186 380 1209 q 429 1131 429 1164 q 406 1075 429 1098 q 346 1052 382 1052 m 64 1052 q 3 1075 28 1052 q -22 1131 -22 1099 q 2 1187 -22 1164 q 61 1209 26 1209 q 121 1186 96 1209 q 146 1131 146 1164 q 122 1075 146 1098 q 64 1052 98 1052 z "},"Ϋ":{"ha":802,"x_min":7,"x_max":798,"o":"m 798 972 l 479 353 l 479 0 l 317 0 l 317 350 l 7 972 l 191 972 l 382 555 q 402 499 385 548 l 404 499 q 427 555 410 521 l 627 972 l 798 972 m 541 1051 q 483 1074 507 1051 q 458 1131 458 1096 q 481 1186 458 1164 q 539 1208 505 1208 q 600 1186 575 1208 q 625 1131 625 1163 q 601 1074 625 1097 q 541 1051 577 1051 m 259 1051 q 199 1075 224 1051 q 174 1131 174 1098 q 198 1186 174 1164 q 256 1208 222 1208 q 316 1186 291 1208 q 342 1131 342 1163 q 317 1074 342 1097 q 259 1051 293 1051 z "},"ά":{"ha":867,"x_min":56,"x_max":850,"o":"m 849 5 q 768 -7 804 -7 q 608 172 649 -7 l 604 172 q 336 -16 509 -16 q 132 81 209 -16 q 56 327 56 178 q 143 604 56 496 q 380 711 231 711 q 524 666 460 711 q 619 540 587 621 l 622 540 l 673 694 l 835 694 l 696 349 q 745 173 719 220 q 812 127 770 127 q 850 134 834 127 l 849 5 m 568 354 q 501 527 546 467 q 393 587 456 587 q 263 514 311 587 q 214 336 214 442 q 256 176 214 241 q 369 112 298 112 q 478 167 429 112 q 559 328 527 222 l 568 354 m 565 1034 l 437 794 l 350 794 l 417 1034 l 565 1034 z "},"έ":{"ha":624,"x_min":51,"x_max":578,"o":"m 578 14 q 347 -17 486 -17 q 130 38 210 -17 q 51 186 51 94 q 96 296 51 250 q 215 357 141 342 l 215 359 q 118 416 159 372 q 77 516 77 460 q 152 660 77 608 q 354 711 228 711 q 547 682 456 711 l 547 549 q 364 594 460 594 q 237 509 237 594 q 284 438 237 465 q 406 411 332 411 q 486 414 456 411 l 486 297 q 389 300 437 300 q 211 197 211 300 q 253 126 211 153 q 372 100 295 100 q 578 147 483 100 l 578 14 m 498 1034 l 370 794 l 283 794 l 351 1034 l 498 1034 z "},"ή":{"ha":821,"x_min":77,"x_max":722,"o":"m 722 -296 l 562 -296 l 562 378 q 423 573 562 573 q 306 521 352 573 q 260 390 260 469 l 260 0 l 102 0 l 102 471 q 77 694 102 629 l 238 694 q 258 580 258 646 l 261 580 q 488 711 335 711 q 722 421 722 711 l 722 -296 m 570 1034 l 441 794 l 355 794 l 422 1034 l 570 1034 z "},"ί":{"ha":409,"x_min":109,"x_max":393,"o":"m 393 8 q 292 -10 341 -10 q 109 195 109 -10 l 109 694 l 266 694 l 266 212 q 331 120 266 120 q 393 134 360 120 l 393 8 m 342 1034 l 214 794 l 127 794 l 195 1034 l 342 1034 z "},"ΰ":{"ha":810,"x_min":14,"x_max":747,"o":"m 112 467 q 99 548 112 522 q 52 574 86 574 q 14 569 34 574 l 14 690 q 102 703 58 703 q 233 653 196 703 q 269 492 269 603 l 269 319 q 431 114 269 114 q 547 166 505 114 q 588 314 588 218 q 497 694 588 515 l 665 694 q 747 318 747 526 q 662 73 747 163 q 429 -17 576 -17 q 194 64 276 -17 q 112 296 112 144 l 112 467 m 526 1061 l 399 812 l 318 812 l 381 1061 l 526 1061 m 578 818 q 521 839 545 818 q 498 893 498 861 q 521 947 498 926 q 577 969 545 969 q 635 947 611 969 q 659 893 659 925 q 635 839 659 861 q 578 818 611 818 m 210 818 q 154 839 178 818 q 131 893 131 861 q 154 947 131 926 q 210 969 178 969 q 268 947 243 969 q 292 893 292 925 q 268 839 292 861 q 210 818 244 818 z "},"β":{"ha":807,"x_min":102,"x_max":757,"o":"m 260 24 l 260 -323 l 102 -323 l 102 735 q 185 957 102 875 q 406 1040 267 1040 q 615 975 539 1040 q 692 794 692 909 q 640 646 692 715 q 505 551 588 577 l 505 549 q 692 459 628 530 q 757 278 757 388 q 670 65 757 147 q 443 -16 584 -16 q 260 24 342 -16 m 357 481 l 357 597 q 483 660 433 607 q 532 778 532 712 q 404 913 532 913 q 297 866 334 913 q 260 732 260 819 l 260 161 q 428 109 346 109 q 552 153 507 109 q 596 277 596 197 q 357 481 596 457 z "},"γ":{"ha":751,"x_min":-6,"x_max":707,"o":"m 421 -48 q 418 -326 421 -264 l 255 -326 q 267 11 267 -211 q 158 360 239 157 q -6 694 77 563 l 175 694 q 388 138 330 414 l 390 138 q 516 400 481 292 q 551 612 551 509 q 545 694 551 652 l 703 694 q 707 637 707 659 q 687 458 707 546 q 625 284 667 370 q 551 151 583 199 l 421 -48 z "},"ζ":{"ha":629,"x_min":48,"x_max":623,"o":"m 570 -210 l 400 -210 q 472 -97 472 -152 q 432 -29 472 -51 q 300 5 392 -7 q 48 307 48 38 q 430 906 48 587 l 430 909 l 151 909 l 151 1028 l 586 1028 l 586 907 q 210 320 210 580 q 391 129 210 159 q 575 56 527 104 q 623 -71 623 7 q 570 -210 623 -147 z "},"η":{"ha":821,"x_min":77,"x_max":722,"o":"m 722 -296 l 562 -296 l 562 378 q 423 573 562 573 q 306 521 352 573 q 260 390 260 469 l 260 0 l 102 0 l 102 471 q 77 694 102 629 l 238 694 q 258 580 258 646 l 261 580 q 488 711 335 711 q 722 421 722 711 l 722 -296 z "},"θ":{"ha":830,"x_min":58,"x_max":772,"o":"m 408 -16 q 150 121 242 -16 q 58 507 58 258 q 153 903 58 766 q 426 1041 248 1041 q 772 523 772 1041 q 676 124 772 265 q 408 -16 581 -16 m 609 579 q 416 914 598 914 q 278 823 330 914 q 220 579 226 732 l 609 579 m 609 460 l 219 460 q 274 200 222 290 q 417 110 326 110 q 556 201 506 110 q 609 460 606 292 z "},"ι":{"ha":409,"x_min":109,"x_max":393,"o":"m 393 8 q 292 -10 341 -10 q 109 195 109 -10 l 109 694 l 266 694 l 266 212 q 331 120 266 120 q 393 134 360 120 l 393 8 z "},"κ":{"ha":757,"x_min":102,"x_max":745,"o":"m 745 0 l 557 0 l 340 315 l 260 230 l 260 0 l 102 0 l 102 694 l 260 694 l 260 380 l 420 568 q 552 683 509 662 q 633 704 595 704 q 697 697 671 704 l 697 565 q 650 572 674 572 q 513 484 600 572 l 449 414 l 745 0 z "},"λ":{"ha":724,"x_min":-1,"x_max":706,"o":"m 706 0 l 539 0 l 374 524 l 172 0 l -1 0 l 309 689 l 271 800 q 168 891 235 891 q 79 873 129 891 l 79 1015 q 189 1027 133 1027 q 328 980 275 1027 q 429 802 381 933 l 706 0 z "},"μ":{"ha":833,"x_min":102,"x_max":812,"o":"m 560 114 q 382 -16 506 -16 q 263 43 298 -16 l 260 43 l 260 -300 l 102 -300 l 102 694 l 260 694 l 260 281 q 298 162 260 208 q 401 115 337 115 q 510 170 470 115 q 550 311 550 224 l 550 694 l 709 694 l 708 236 q 781 123 708 123 q 812 128 799 123 l 812 4 q 721 -7 762 -7 q 618 22 655 -7 q 564 114 581 52 l 560 114 z "},"ν":{"ha":748,"x_min":-3,"x_max":679,"o":"m 422 0 l 274 0 l -3 694 l 167 694 l 372 136 q 524 524 524 338 q 496 694 524 623 l 658 694 q 679 551 679 640 q 422 0 679 302 z "},"ξ":{"ha":638,"x_min":48,"x_max":625,"o":"m 571 -212 l 401 -212 q 473 -102 473 -159 q 446 -42 473 -64 q 327 -6 420 -19 q 121 83 193 11 q 48 273 48 156 q 106 436 48 365 q 272 547 165 508 q 164 608 202 566 q 127 707 127 650 q 183 829 127 775 q 336 906 240 882 l 336 911 q 109 908 134 908 l 109 1028 l 553 1028 l 553 909 q 351 838 427 890 q 276 714 276 786 q 301 642 276 671 q 367 601 327 612 q 433 589 407 589 q 484 591 449 589 q 539 593 519 593 l 539 460 q 454 463 503 463 q 279 415 349 463 q 210 288 210 368 q 384 129 210 156 q 572 58 519 106 q 625 -71 625 10 q 571 -212 625 -151 z "},"ο":{"ha":829,"x_min":58,"x_max":772,"o":"m 410 -16 q 154 81 250 -16 q 58 339 58 178 q 158 612 58 514 q 427 711 258 711 q 681 615 590 711 q 772 350 772 519 q 674 84 772 184 q 410 -16 576 -16 m 418 585 q 272 521 326 585 q 218 343 218 456 q 273 171 218 234 q 418 109 327 109 q 561 170 511 109 q 610 346 610 232 q 561 523 610 460 q 418 585 511 585 z "},"ρ":{"ha":834,"x_min":99,"x_max":776,"o":"m 259 58 l 256 58 l 256 -268 l 99 -268 l 99 351 q 183 616 99 521 q 429 711 267 711 q 681 610 587 711 q 776 355 776 509 q 692 82 776 180 q 459 -16 609 -16 q 259 58 334 -16 m 256 190 q 327 132 279 155 q 426 109 374 109 q 614 350 614 109 q 562 519 614 453 q 427 585 509 585 q 300 527 344 585 q 256 360 256 469 l 256 190 z "},"ς":{"ha":656,"x_min":54,"x_max":626,"o":"m 572 -212 l 404 -212 q 476 -98 476 -159 q 441 -34 476 -54 q 331 -3 406 -14 q 125 93 197 14 q 54 294 54 172 q 160 597 54 484 q 431 711 266 711 q 596 676 523 711 l 596 532 q 438 585 522 585 q 279 507 342 585 q 216 310 216 428 q 228 236 216 268 q 259 186 239 204 q 299 160 279 169 q 504 95 320 151 q 626 -75 626 51 q 572 -212 626 -152 z "},"υ":{"ha":810,"x_min":14,"x_max":747,"o":"m 112 467 q 99 548 112 522 q 52 574 86 574 q 14 569 34 574 l 14 690 q 102 703 58 703 q 233 653 196 703 q 269 492 269 603 l 269 319 q 431 114 269 114 q 547 166 505 114 q 588 314 588 218 q 497 694 588 515 l 665 694 q 747 318 747 526 q 662 73 747 163 q 429 -17 576 -17 q 194 64 276 -17 q 112 296 112 144 l 112 467 z "},"χ":{"ha":758,"x_min":-3,"x_max":754,"o":"m 754 -315 q 675 -325 718 -325 q 568 -284 613 -325 q 471 -138 523 -243 l 371 92 l 167 -315 l -3 -315 l 299 236 l 187 485 q 99 578 145 578 q 36 566 64 578 l 36 701 q 119 711 62 711 q 217 685 179 711 q 290 591 254 659 l 385 371 l 541 694 l 713 694 l 458 230 l 609 -98 q 699 -193 652 -193 q 754 -180 725 -193 l 754 -315 z "},"ψ":{"ha":1067,"x_min":94,"x_max":973,"o":"m 973 377 q 876 90 973 195 q 621 -16 779 -16 l 604 -16 l 604 -327 l 463 -327 l 463 -16 l 446 -16 q 190 90 286 -16 q 94 377 94 195 l 94 694 l 246 694 l 246 378 q 304 185 246 258 q 449 113 361 113 l 463 113 l 463 903 l 604 903 l 604 113 l 618 113 q 763 185 705 113 q 821 378 821 258 l 821 694 l 973 694 l 973 377 z "},"ω":{"ha":1137,"x_min":73,"x_max":1065,"o":"m 570 114 l 567 114 q 357 -16 496 -16 q 148 73 223 -16 q 73 317 73 161 q 159 694 73 489 l 325 694 q 225 315 225 484 q 261 166 225 218 q 359 115 296 115 q 493 317 493 115 l 493 509 l 644 509 l 644 317 q 777 115 644 115 q 876 166 840 115 q 911 315 911 218 q 812 694 911 484 l 977 694 q 1065 317 1065 488 q 989 73 1065 161 q 779 -16 914 -16 q 570 114 640 -16 z "},"ϊ":{"ha":409,"x_min":-24,"x_max":427,"o":"m 393 8 q 292 -10 341 -10 q 109 195 109 -10 l 109 694 l 266 694 l 266 212 q 331 120 266 120 q 393 134 360 120 l 393 8 m 344 807 q 285 829 310 807 q 260 886 260 852 q 284 942 260 920 q 342 964 308 964 q 402 942 378 964 q 427 886 427 919 q 404 830 427 853 q 344 807 380 807 m 62 807 q 1 830 26 807 q -24 886 -24 854 q 0 942 -24 920 q 59 964 24 964 q 119 942 94 964 q 144 886 144 919 q 120 830 144 853 q 62 807 96 807 z "},"ϋ":{"ha":810,"x_min":14,"x_max":747,"o":"m 112 467 q 99 548 112 522 q 52 574 86 574 q 14 569 34 574 l 14 690 q 102 703 58 703 q 233 653 196 703 q 269 492 269 603 l 269 319 q 431 114 269 114 q 547 166 505 114 q 588 314 588 218 q 497 694 588 515 l 665 694 q 747 318 747 526 q 662 73 747 163 q 429 -17 576 -17 q 194 64 276 -17 q 112 296 112 144 l 112 467 m 538 807 q 480 829 505 807 q 455 886 455 852 q 479 942 455 920 q 536 964 503 964 q 597 942 572 964 q 622 886 622 919 q 598 830 622 853 q 538 807 574 807 m 256 807 q 196 830 221 807 q 171 886 171 854 q 195 942 171 920 q 254 964 219 964 q 314 942 288 964 q 339 886 339 919 q 315 830 339 853 q 256 807 290 807 z "},"ό":{"ha":829,"x_min":58,"x_max":772,"o":"m 410 -16 q 154 81 250 -16 q 58 339 58 178 q 158 612 58 514 q 427 711 258 711 q 681 615 590 711 q 772 350 772 519 q 674 84 772 184 q 410 -16 576 -16 m 418 585 q 272 521 326 585 q 218 343 218 456 q 273 171 218 234 q 418 109 327 109 q 561 170 511 109 q 610 346 610 232 q 561 523 610 460 q 418 585 511 585 m 553 1034 l 425 794 l 338 794 l 405 1034 l 553 1034 z "},"ύ":{"ha":810,"x_min":14,"x_max":747,"o":"m 112 467 q 99 548 112 522 q 52 574 86 574 q 14 569 34 574 l 14 690 q 102 703 58 703 q 233 653 196 703 q 269 492 269 603 l 269 319 q 431 114 269 114 q 547 166 505 114 q 588 314 588 218 q 497 694 588 515 l 665 694 q 747 318 747 526 q 662 73 747 163 q 429 -17 576 -17 q 194 64 276 -17 q 112 296 112 144 l 112 467 m 536 1034 l 408 794 l 321 794 l 389 1034 l 536 1034 z "},"ώ":{"ha":1137,"x_min":73,"x_max":1065,"o":"m 570 114 l 567 114 q 357 -16 496 -16 q 148 73 223 -16 q 73 317 73 161 q 159 694 73 489 l 325 694 q 225 315 225 484 q 261 166 225 218 q 359 115 296 115 q 493 317 493 115 l 493 509 l 644 509 l 644 317 q 777 115 644 115 q 876 166 840 115 q 911 315 911 218 q 812 694 911 484 l 977 694 q 1065 317 1065 488 q 989 73 1065 161 q 779 -16 914 -16 q 570 114 640 -16 m 701 1034 l 572 794 l 486 794 l 553 1034 l 701 1034 z "},"Ё":{"ha":719,"x_min":120,"x_max":666,"o":"m 666 0 l 120 0 l 120 972 l 644 972 l 644 836 l 281 836 l 281 560 l 616 560 l 616 424 l 281 424 l 281 136 l 666 136 l 666 0 m 534 1052 q 476 1074 500 1052 q 451 1131 451 1097 q 475 1187 451 1164 q 532 1209 498 1209 q 593 1186 568 1209 q 618 1131 618 1164 q 594 1075 618 1098 q 534 1052 570 1052 m 252 1052 q 192 1075 217 1052 q 167 1131 167 1099 q 191 1187 167 1164 q 250 1209 215 1209 q 310 1186 284 1209 q 335 1131 335 1164 q 311 1075 335 1098 q 252 1052 286 1052 z "},"Ђ":{"ha":1006,"x_min":24,"x_max":937,"o":"m 551 6 l 551 136 q 656 115 595 115 q 745 156 711 115 q 778 268 778 197 q 727 398 778 351 q 585 444 676 444 l 435 444 l 435 0 l 274 0 l 274 835 l 24 835 l 24 972 l 743 972 l 743 835 l 435 835 l 435 572 l 606 572 q 848 492 760 572 q 937 269 937 413 q 868 63 937 136 q 671 -11 798 -11 q 551 6 604 -11 z "},"Ѓ":{"ha":680,"x_min":120,"x_max":659,"o":"m 659 833 l 281 833 l 281 0 l 120 0 l 120 972 l 659 972 l 659 833 m 604 1284 l 410 1062 l 294 1062 l 458 1284 l 604 1284 z "},"Є":{"ha":861,"x_min":58,"x_max":794,"o":"m 794 37 q 523 -16 685 -16 q 185 117 313 -16 q 58 467 58 251 q 193 846 58 703 q 544 989 329 989 q 794 950 690 989 l 794 793 q 550 851 686 851 q 332 771 418 851 q 232 551 247 691 l 637 551 l 637 416 l 232 416 q 327 199 242 278 q 544 120 411 120 q 794 184 691 120 l 794 37 z "},"Ѕ":{"ha":756,"x_min":75,"x_max":698,"o":"m 75 39 l 75 205 q 129 168 98 184 q 194 141 159 152 q 263 123 229 130 q 327 117 298 117 q 478 151 429 117 q 528 250 528 185 q 512 310 528 284 q 465 356 495 335 q 395 396 435 377 q 309 437 355 416 q 216 490 259 463 q 142 550 174 517 q 93 625 111 583 q 75 722 75 666 q 105 841 75 790 q 187 924 136 891 q 302 973 237 957 q 433 989 366 989 q 656 954 586 989 l 656 795 q 443 854 573 854 q 371 848 407 854 q 308 825 336 841 q 262 785 279 810 q 244 726 244 761 q 258 670 244 694 q 297 627 271 646 q 361 588 323 607 q 448 548 399 570 q 544 492 499 522 q 624 428 589 463 q 678 350 658 393 q 698 252 698 307 q 668 127 698 178 q 588 44 638 76 q 471 -2 537 12 q 332 -16 406 -16 q 272 -13 308 -16 q 199 -2 237 -9 q 129 16 162 5 q 75 39 96 26 z "},"Ї":{"ha":405,"x_min":-21,"x_max":430,"o":"m 286 0 l 119 0 l 119 972 l 286 972 l 286 0 m 347 1052 q 288 1074 313 1052 q 263 1131 263 1097 q 287 1187 263 1164 q 345 1209 311 1209 q 405 1186 380 1209 q 430 1131 430 1164 q 406 1075 430 1098 q 347 1052 382 1052 m 64 1052 q 4 1075 29 1052 q -21 1131 -21 1099 q 3 1187 -21 1164 q 62 1209 27 1209 q 122 1186 96 1209 q 147 1131 147 1164 q 123 1075 147 1098 q 64 1052 98 1052 z "},"Љ":{"ha":1396,"x_min":13,"x_max":1341,"o":"m 849 578 l 1034 578 q 1261 506 1181 578 q 1341 302 1341 435 q 1252 82 1341 163 q 1005 0 1162 0 l 688 0 l 688 833 l 452 833 q 374 336 403 481 q 317 122 346 191 q 238 19 288 53 q 119 -14 189 -14 q 13 2 58 -14 l 13 142 q 87 122 47 122 q 164 170 128 122 q 237 421 200 218 q 319 972 274 623 l 849 972 l 849 578 m 849 447 l 849 132 l 987 132 q 1124 174 1076 132 q 1172 291 1172 216 q 987 447 1172 447 l 849 447 z "},"Њ":{"ha":1405,"x_min":120,"x_max":1351,"o":"m 698 0 l 698 435 l 281 435 l 281 0 l 120 0 l 120 972 l 281 972 l 281 576 l 698 576 l 698 972 l 859 972 l 859 581 l 1025 581 q 1265 509 1179 581 q 1351 303 1351 437 q 1260 81 1351 163 q 1010 0 1168 0 l 698 0 m 859 447 l 859 132 l 998 132 q 1134 175 1086 132 q 1181 292 1181 217 q 998 447 1181 447 l 859 447 z "},"Ћ":{"ha":1052,"x_min":24,"x_max":976,"o":"m 976 0 l 815 0 l 815 255 q 635 435 815 435 l 465 435 l 465 0 l 303 0 l 303 835 l 24 835 l 24 972 l 744 972 l 744 835 l 465 835 l 465 573 l 653 573 q 976 262 976 573 l 976 0 z "},"Ќ":{"ha":848,"x_min":120,"x_max":856,"o":"m 856 0 l 646 0 l 307 445 q 284 479 288 470 l 281 479 l 281 0 l 120 0 l 120 972 l 281 972 l 281 515 l 284 515 q 307 549 292 530 l 633 972 l 827 972 l 445 506 l 856 0 m 671 1294 l 477 1072 l 360 1072 l 524 1294 l 671 1294 z "},"Ў":{"ha":818,"x_min":29,"x_max":825,"o":"m 825 972 l 522 299 q 360 49 438 115 q 189 -17 281 -17 q 65 4 115 -17 l 65 158 q 178 123 124 123 q 267 159 227 123 q 354 288 307 196 l 29 972 l 213 972 l 414 511 q 437 441 420 497 l 439 441 q 465 511 441 448 l 654 972 l 825 972 m 698 1280 q 614 1120 687 1179 q 431 1061 541 1061 q 248 1120 319 1061 q 170 1280 177 1179 l 301 1280 q 433 1157 311 1157 q 523 1190 488 1157 q 567 1280 559 1222 l 698 1280 z "},"Џ":{"ha":1019,"x_min":120,"x_max":901,"o":"m 901 0 l 581 0 l 581 -262 l 437 -262 l 437 0 l 120 0 l 120 972 l 281 972 l 281 141 l 739 141 l 739 972 l 901 972 l 901 0 z "},"А":{"ha":932,"x_min":12,"x_max":919,"o":"m 919 0 l 742 0 l 654 248 l 272 248 l 188 0 l 12 0 l 376 972 l 557 972 l 919 0 m 612 379 l 477 767 q 464 828 471 786 l 461 828 q 448 767 455 789 l 314 379 l 612 379 z "},"Б":{"ha":838,"x_min":120,"x_max":783,"o":"m 120 0 l 120 972 l 688 972 l 688 835 l 281 835 l 281 569 l 467 569 q 700 498 616 569 q 783 298 783 428 q 694 80 783 160 q 453 0 606 0 l 120 0 m 281 441 l 281 129 l 427 129 q 564 171 516 129 q 612 288 612 213 q 430 441 612 441 l 281 441 z "},"В":{"ha":839,"x_min":120,"x_max":779,"o":"m 120 0 l 120 972 l 429 972 q 652 911 570 972 q 734 750 734 849 q 688 606 734 667 q 558 519 641 545 l 558 517 q 719 443 659 505 q 779 279 779 380 q 680 77 779 155 q 432 0 582 0 l 120 0 m 281 843 l 281 566 l 385 566 q 517 606 469 566 q 565 718 565 646 q 398 843 565 843 l 281 843 m 281 437 l 281 129 l 418 129 q 558 171 509 129 q 607 286 607 212 q 397 437 607 437 l 281 437 z "},"Г":{"ha":680,"x_min":120,"x_max":659,"o":"m 659 833 l 281 833 l 281 0 l 120 0 l 120 972 l 659 972 l 659 833 z "},"Д":{"ha":1014,"x_min":17,"x_max":966,"o":"m 966 -262 l 821 -262 l 821 0 l 161 0 l 161 -262 l 17 -262 l 17 137 l 99 137 q 254 537 191 309 q 326 972 318 766 l 831 972 l 831 137 l 966 137 l 966 -262 m 670 137 l 670 833 l 460 833 q 394 477 450 682 q 269 137 338 273 l 670 137 z "},"Е":{"ha":719,"x_min":120,"x_max":666,"o":"m 666 0 l 120 0 l 120 972 l 644 972 l 644 836 l 281 836 l 281 560 l 616 560 l 616 424 l 281 424 l 281 136 l 666 136 l 666 0 z "},"Ж":{"ha":1282,"x_min":-12,"x_max":1293,"o":"m 1293 0 l 1086 0 l 744 440 q 722 474 730 459 l 719 474 l 719 0 l 563 0 l 563 474 l 560 474 q 538 440 551 457 l 196 0 l -12 0 l 401 506 l 18 972 l 212 972 l 534 557 q 560 519 550 538 l 563 519 l 563 972 l 719 972 l 719 519 l 722 519 q 747 557 730 536 l 1069 972 l 1263 972 l 881 506 l 1293 0 z "},"З":{"ha":762,"x_min":58,"x_max":695,"o":"m 58 38 l 58 193 q 318 111 172 111 q 470 156 414 111 q 527 275 527 200 q 297 437 527 437 l 185 437 l 185 564 l 290 564 q 441 604 388 564 q 495 719 495 645 q 450 821 495 783 q 325 859 404 859 q 90 786 204 859 l 90 930 q 349 989 202 989 q 580 922 496 989 q 664 747 664 855 q 476 509 664 559 l 476 507 q 636 432 576 495 q 695 276 695 369 q 595 63 695 142 q 323 -16 496 -16 q 58 38 151 -16 z "},"И":{"ha":1066,"x_min":120,"x_max":945,"o":"m 945 0 l 789 0 l 789 648 q 796 771 789 735 l 792 771 q 764 715 781 741 l 297 0 l 120 0 l 120 972 l 276 972 l 276 354 q 271 215 276 248 l 273 215 q 309 275 287 242 l 759 972 l 945 972 l 945 0 z "},"Й":{"ha":1066,"x_min":120,"x_max":945,"o":"m 945 0 l 789 0 l 789 648 q 796 771 789 735 l 792 771 q 764 715 781 741 l 297 0 l 120 0 l 120 972 l 276 972 l 276 354 q 271 215 276 248 l 273 215 q 309 275 287 242 l 759 972 l 945 972 l 945 0 m 804 1280 q 720 1120 793 1179 q 537 1061 647 1061 q 354 1120 425 1061 q 276 1280 283 1179 l 407 1280 q 539 1157 416 1157 q 629 1190 593 1157 q 673 1280 665 1222 l 804 1280 z "},"К":{"ha":848,"x_min":120,"x_max":856,"o":"m 856 0 l 646 0 l 307 445 q 284 479 288 470 l 281 479 l 281 0 l 120 0 l 120 972 l 281 972 l 281 515 l 284 515 q 307 549 292 530 l 633 972 l 827 972 l 445 506 l 856 0 z "},"Л":{"ha":970,"x_min":13,"x_max":849,"o":"m 849 0 l 688 0 l 688 833 l 452 833 q 374 336 402 481 q 316 122 345 191 q 237 19 287 53 q 117 -14 186 -14 q 13 1 57 -14 l 13 139 q 85 122 45 122 q 163 170 127 122 q 236 421 199 218 q 319 972 274 623 l 849 972 l 849 0 z "},"М":{"ha":1284,"x_min":120,"x_max":1164,"o":"m 1164 0 l 1004 0 l 1004 629 q 1014 819 1004 707 l 1011 819 q 985 727 996 755 l 694 0 l 583 0 l 292 722 q 267 819 280 753 l 264 819 q 269 628 269 760 l 269 0 l 120 0 l 120 972 l 347 972 l 603 325 q 641 214 632 250 l 644 214 q 685 328 669 290 l 945 972 l 1164 972 l 1164 0 z "},"Н":{"ha":1021,"x_min":120,"x_max":901,"o":"m 901 0 l 739 0 l 739 422 l 281 422 l 281 0 l 120 0 l 120 972 l 281 972 l 281 564 l 739 564 l 739 972 l 901 972 l 901 0 z "},"О":{"ha":1050,"x_min":58,"x_max":991,"o":"m 521 -16 q 184 120 311 -16 q 58 475 58 256 q 186 849 58 709 q 536 989 315 989 q 866 853 741 989 q 991 498 991 718 q 863 122 991 260 q 521 -16 735 -16 m 528 847 q 311 747 395 847 q 227 485 227 648 q 309 224 227 323 q 522 125 390 125 q 742 219 661 125 q 823 483 823 313 q 744 752 823 657 q 528 847 666 847 z "},"П":{"ha":1023,"x_min":120,"x_max":905,"o":"m 905 0 l 743 0 l 743 828 l 281 828 l 281 0 l 120 0 l 120 972 l 905 972 l 905 0 z "},"Р":{"ha":812,"x_min":120,"x_max":767,"o":"m 281 353 l 281 0 l 120 0 l 120 972 l 415 972 q 675 895 583 972 q 767 675 767 817 q 671 443 767 533 q 410 353 574 353 l 281 353 m 281 840 l 281 484 l 385 484 q 543 532 489 484 q 597 668 597 581 q 398 840 597 840 l 281 840 z "},"С":{"ha":863,"x_min":58,"x_max":798,"o":"m 798 41 q 525 -16 688 -16 q 186 117 313 -16 q 58 468 58 251 q 202 845 58 701 q 564 989 345 989 q 798 949 705 989 l 798 789 q 581 847 700 847 q 325 746 423 847 q 227 476 227 645 q 319 220 227 315 q 559 125 410 125 q 798 190 697 125 l 798 41 z "},"Т":{"ha":766,"x_min":24,"x_max":744,"o":"m 744 836 l 465 836 l 465 0 l 303 0 l 303 836 l 24 836 l 24 972 l 744 972 l 744 836 z "},"У":{"ha":818,"x_min":29,"x_max":825,"o":"m 825 972 l 522 299 q 360 49 438 115 q 189 -17 281 -17 q 65 4 115 -17 l 65 158 q 178 123 124 123 q 267 159 227 123 q 354 288 307 196 l 29 972 l 213 972 l 414 511 q 437 441 420 497 l 439 441 q 465 511 441 448 l 654 972 l 825 972 z "},"Ф":{"ha":1079,"x_min":56,"x_max":1029,"o":"m 620 118 l 620 -3 l 466 -3 l 466 118 l 447 118 q 167 230 277 118 q 56 507 56 342 q 164 771 56 664 q 440 879 272 879 l 466 879 l 466 996 l 620 996 l 620 879 l 640 879 q 921 773 812 879 q 1029 507 1029 667 q 918 231 1029 345 q 638 118 808 118 l 620 118 m 620 753 l 620 248 l 635 248 q 800 317 739 248 q 862 504 862 387 q 800 684 862 616 q 634 753 739 753 l 620 753 m 466 248 l 466 753 l 451 753 q 286 683 349 753 q 223 504 223 614 q 285 317 223 387 q 450 248 347 248 l 466 248 z "},"Х":{"ha":860,"x_min":12,"x_max":847,"o":"m 847 0 l 654 0 l 454 357 q 435 403 446 373 l 432 403 q 412 357 426 388 l 206 0 l 12 0 l 330 489 l 37 972 l 235 972 l 410 644 q 441 579 427 612 l 443 579 q 477 647 463 622 l 659 972 l 841 972 l 541 490 l 847 0 z "},"Ц":{"ha":1080,"x_min":120,"x_max":1035,"o":"m 1035 -263 l 890 -263 l 890 0 l 120 0 l 120 972 l 281 972 l 281 141 l 739 141 l 739 972 l 901 972 l 901 141 l 1035 141 l 1035 -263 z "},"Ч":{"ha":959,"x_min":104,"x_max":831,"o":"m 831 0 l 670 0 l 670 414 q 387 336 517 336 q 178 404 252 336 q 104 595 104 472 l 104 972 l 265 972 l 265 625 q 420 473 265 473 q 670 544 530 473 l 670 972 l 831 972 l 831 0 z "},"Ш":{"ha":1357,"x_min":120,"x_max":1236,"o":"m 1236 0 l 120 0 l 120 972 l 281 972 l 281 141 l 597 141 l 597 972 l 758 972 l 758 141 l 1074 141 l 1074 972 l 1236 972 l 1236 0 z "},"Щ":{"ha":1415,"x_min":120,"x_max":1370,"o":"m 1370 -263 l 1232 -263 l 1232 0 l 120 0 l 120 972 l 281 972 l 281 141 l 597 141 l 597 972 l 758 972 l 758 141 l 1074 141 l 1074 972 l 1236 972 l 1236 141 l 1370 141 l 1370 -263 z "},"Ъ":{"ha":1013,"x_min":24,"x_max":957,"o":"m 302 0 l 302 834 l 24 834 l 24 972 l 465 972 l 465 581 l 631 581 q 871 510 785 581 q 957 304 957 438 q 866 82 957 163 q 620 0 776 0 l 302 0 m 465 450 l 465 132 l 604 132 q 739 175 691 132 q 787 294 787 218 q 604 450 787 450 l 465 450 z "},"Ы":{"ha":1160,"x_min":120,"x_max":1039,"o":"m 1039 0 l 878 0 l 878 972 l 1039 972 l 1039 0 m 120 0 l 120 972 l 281 972 l 281 581 l 447 581 q 688 509 602 581 q 774 304 774 437 q 683 82 774 163 q 437 0 593 0 l 120 0 m 281 450 l 281 132 l 420 132 q 556 174 509 132 q 604 294 604 217 q 420 450 604 450 l 281 450 z "},"Ь":{"ha":829,"x_min":120,"x_max":774,"o":"m 120 0 l 120 972 l 281 972 l 281 581 l 447 581 q 688 509 602 581 q 774 304 774 437 q 683 82 774 163 q 437 0 593 0 l 120 0 m 281 450 l 281 132 l 420 132 q 556 174 509 132 q 604 294 604 217 q 416 450 604 450 l 281 450 z "},"Э":{"ha":861,"x_min":65,"x_max":802,"o":"m 65 37 l 65 184 q 316 120 168 120 q 533 198 449 120 q 628 416 618 277 l 222 416 l 222 551 l 628 551 q 528 772 612 693 q 311 851 445 851 q 65 793 176 851 l 65 948 q 321 989 172 989 q 669 849 535 989 q 802 477 802 710 q 674 121 802 258 q 335 -16 545 -16 q 65 37 175 -16 z "},"Ю":{"ha":1443,"x_min":120,"x_max":1384,"o":"m 490 431 l 281 431 l 281 0 l 120 0 l 120 972 l 281 972 l 281 570 l 494 570 q 634 878 515 767 q 946 989 754 989 q 1265 854 1145 989 q 1384 496 1384 720 q 1262 120 1384 256 q 930 -16 1140 -16 q 615 106 734 -16 q 490 431 496 229 m 943 847 q 733 751 809 847 q 658 488 658 656 q 730 220 658 315 q 932 125 802 125 q 1141 218 1067 125 q 1215 481 1215 311 q 1143 753 1215 659 q 943 847 1072 847 z "},"Я":{"ha":851,"x_min":26,"x_max":730,"o":"m 730 0 l 569 0 l 569 397 l 465 397 q 394 375 425 397 q 330 275 364 353 l 214 0 l 26 0 l 169 309 q 221 385 186 345 q 302 441 256 425 l 302 444 q 145 533 201 465 q 90 696 90 600 q 182 897 90 821 q 427 972 275 972 l 730 972 l 730 0 m 569 528 l 569 840 l 434 840 q 306 800 351 840 q 260 687 260 760 q 309 570 260 613 q 439 528 357 528 l 569 528 z "},"а":{"ha":725,"x_min":51,"x_max":635,"o":"m 635 0 l 483 0 l 483 109 l 480 109 q 269 -16 408 -16 q 109 39 167 -16 q 51 186 51 95 q 277 416 51 383 l 484 445 q 342 593 484 593 q 119 508 218 593 l 119 646 q 372 711 229 711 q 635 452 635 711 l 635 0 m 484 341 l 338 321 q 236 288 270 312 q 201 203 201 264 q 233 131 201 159 q 317 103 264 103 q 436 154 389 103 q 484 281 484 204 l 484 341 z "},"б":{"ha":823,"x_min":68,"x_max":764,"o":"m 674 1040 l 674 906 q 587 879 647 888 q 378 839 437 858 q 281 756 319 819 q 232 573 243 694 l 235 573 q 456 677 312 677 q 680 585 595 677 q 764 340 764 492 q 670 81 764 179 q 417 -16 576 -16 q 158 98 249 -16 q 68 426 68 213 q 101 704 68 590 q 193 876 134 818 q 324 955 252 933 q 571 1006 396 977 q 674 1040 640 1021 m 230 445 l 230 358 q 244 263 231 310 q 283 180 258 216 q 342 126 308 144 q 421 109 377 109 q 553 171 503 109 q 604 330 604 233 q 552 495 604 433 q 414 556 501 556 q 230 445 292 556 z "},"в":{"ha":767,"x_min":102,"x_max":702,"o":"m 102 0 l 102 694 l 434 694 q 611 649 546 694 q 676 525 676 604 q 540 363 676 392 q 702 203 702 343 q 633 59 702 117 q 463 0 565 0 l 102 0 m 260 583 l 260 410 l 399 410 q 517 502 517 410 q 414 583 517 583 l 260 583 m 260 301 l 260 112 l 421 112 q 542 210 542 112 q 411 301 542 301 l 260 301 z "},"г":{"ha":549,"x_min":102,"x_max":519,"o":"m 519 569 l 260 569 l 260 0 l 102 0 l 102 694 l 519 694 l 519 569 z "},"д":{"ha":805,"x_min":12,"x_max":767,"o":"m 767 -253 l 636 -253 l 636 0 l 142 0 l 142 -253 l 12 -253 l 12 120 l 74 120 q 243 694 240 366 l 661 694 l 661 120 l 767 120 l 767 -253 m 503 120 l 503 575 l 371 575 q 233 120 355 323 l 503 120 z "},"е":{"ha":738,"x_min":58,"x_max":690,"o":"m 690 304 l 217 304 q 276 156 220 208 q 432 104 333 104 q 636 170 543 104 l 636 43 q 385 -16 541 -16 q 145 78 232 -16 q 58 345 58 173 q 154 609 58 507 q 392 711 250 711 q 612 619 534 711 q 690 365 690 528 l 690 304 m 538 416 q 498 548 538 500 q 390 595 459 595 q 275 545 322 595 q 217 416 228 496 l 538 416 z "},"ж":{"ha":1100,"x_min":4,"x_max":1097,"o":"m 1097 0 l 901 0 l 629 345 l 627 345 l 627 0 l 473 0 l 473 345 l 471 345 l 199 0 l 4 0 l 312 361 l 18 694 l 210 694 l 471 368 l 473 368 l 473 694 l 627 694 l 627 368 l 629 368 l 890 694 l 1082 694 l 787 361 l 1097 0 z "},"з":{"ha":641,"x_min":54,"x_max":587,"o":"m 54 19 l 54 149 q 260 100 142 100 q 427 200 427 100 q 231 300 427 300 l 164 300 l 164 412 l 228 412 q 402 507 402 412 q 365 571 402 547 q 264 595 328 595 q 71 549 168 595 l 71 672 q 286 711 188 711 q 562 524 562 711 q 523 420 562 464 q 411 363 483 377 l 411 359 q 538 308 490 353 q 587 193 587 262 q 504 41 587 98 q 276 -15 421 -15 q 54 19 131 -15 z "},"и":{"ha":836,"x_min":102,"x_max":733,"o":"m 733 0 l 591 0 l 591 509 q 549 434 577 482 l 257 0 l 102 0 l 102 694 l 247 694 l 247 195 q 279 256 254 213 l 575 694 l 733 694 l 733 0 z "},"й":{"ha":836,"x_min":102,"x_max":733,"o":"m 733 0 l 591 0 l 591 509 q 549 434 577 482 l 257 0 l 102 0 l 102 694 l 247 694 l 247 195 q 279 256 254 213 l 575 694 l 733 694 l 733 0 m 688 1029 q 604 868 677 927 q 421 810 531 810 q 238 868 309 810 q 160 1029 167 927 l 291 1029 q 423 905 300 905 q 513 938 477 905 q 557 1029 549 970 l 688 1029 z "},"к":{"ha":729,"x_min":102,"x_max":733,"o":"m 733 0 l 533 0 l 263 338 l 260 338 l 260 0 l 102 0 l 102 694 l 260 694 l 260 375 l 263 375 l 518 694 l 711 694 l 422 363 l 733 0 z "},"л":{"ha":779,"x_min":11,"x_max":677,"o":"m 677 0 l 519 0 l 519 574 l 377 574 q 275 122 347 252 q 81 -9 203 -9 q 11 3 40 -9 l 11 120 q 62 109 35 109 q 249 694 208 109 l 677 694 l 677 0 z "},"м":{"ha":1022,"x_min":102,"x_max":920,"o":"m 920 0 l 769 0 l 769 556 q 728 432 755 514 l 571 0 l 431 0 l 272 433 q 231 557 259 469 l 231 0 l 102 0 l 102 694 l 307 694 l 467 266 q 510 136 484 219 l 553 263 l 709 694 l 920 694 l 920 0 z "},"н":{"ha":823,"x_min":102,"x_max":721,"o":"m 721 0 l 563 0 l 563 304 l 260 304 l 260 0 l 102 0 l 102 694 l 260 694 l 260 422 l 563 422 l 563 694 l 721 694 l 721 0 z "},"о":{"ha":829,"x_min":58,"x_max":772,"o":"m 410 -16 q 154 81 250 -16 q 58 339 58 178 q 158 612 58 514 q 427 711 258 711 q 681 615 590 711 q 772 350 772 519 q 674 84 772 184 q 410 -16 576 -16 m 418 585 q 272 521 326 585 q 218 343 218 456 q 273 171 218 234 q 418 109 327 109 q 561 170 511 109 q 610 346 610 232 q 561 523 610 460 q 418 585 511 585 z "},"п":{"ha":823,"x_min":102,"x_max":721,"o":"m 721 0 l 563 0 l 563 574 l 260 574 l 260 0 l 102 0 l 102 694 l 721 694 l 721 0 z "},"р":{"ha":837,"x_min":102,"x_max":779,"o":"m 262 102 l 260 102 l 260 -319 l 102 -319 l 102 694 l 260 694 l 260 572 l 262 572 q 498 711 343 711 q 705 618 631 711 q 779 368 779 525 q 695 90 779 195 q 467 -14 612 -14 q 262 102 334 -14 m 258 376 l 258 290 q 307 161 258 214 q 430 109 355 109 q 567 177 517 109 q 617 367 617 245 q 571 527 617 469 q 445 585 524 585 q 310 526 361 585 q 258 376 258 466 z "},"с":{"ha":653,"x_min":58,"x_max":600,"o":"m 600 32 q 402 -16 516 -16 q 153 80 248 -16 q 58 331 58 177 q 160 607 58 503 q 433 711 262 711 q 600 677 528 711 l 600 531 q 446 585 528 585 q 282 518 346 585 q 218 341 218 450 q 278 171 218 233 q 439 109 338 109 q 600 169 524 109 l 600 32 z "},"т":{"ha":597,"x_min":20,"x_max":576,"o":"m 576 569 l 378 569 l 378 0 l 220 0 l 220 569 l 20 569 l 20 694 l 576 694 l 576 569 z "},"у":{"ha":706,"x_min":4,"x_max":704,"o":"m 704 694 l 391 -111 q 117 -327 293 -327 q 34 -318 67 -327 l 34 -187 q 102 -199 71 -199 q 233 -113 190 -199 l 280 1 l 4 694 l 178 694 l 344 190 q 356 140 347 180 l 359 140 q 372 189 363 155 l 545 694 l 704 694 z "},"ф":{"ha":1014,"x_min":56,"x_max":957,"o":"m 579 -12 l 579 -324 l 434 -324 l 434 -12 l 411 -12 q 154 85 252 -12 q 56 341 56 183 q 155 607 56 507 q 417 707 254 707 l 434 707 l 434 991 l 579 991 l 579 707 l 595 707 q 858 608 759 707 q 957 341 957 509 q 860 85 957 183 q 604 -12 762 -12 l 579 -12 m 579 587 l 579 106 l 592 106 q 741 170 685 106 q 796 343 796 234 q 742 523 796 458 q 595 587 687 587 l 579 587 m 434 106 l 434 587 l 420 587 q 273 522 328 587 q 217 343 217 457 q 273 171 217 235 q 422 106 328 106 l 434 106 z "},"х":{"ha":696,"x_min":12,"x_max":683,"o":"m 683 694 l 452 343 l 680 0 l 498 0 l 376 215 q 349 265 364 235 l 346 265 q 317 215 343 259 l 193 0 l 12 0 l 248 340 l 24 694 l 207 694 l 327 469 q 353 417 340 444 l 355 417 l 511 694 l 683 694 z "},"ц":{"ha":865,"x_min":102,"x_max":827,"o":"m 827 -253 l 696 -253 l 696 0 l 102 0 l 102 694 l 260 694 l 260 120 l 563 120 l 563 694 l 721 694 l 721 120 l 827 120 l 827 -253 z "},"ч":{"ha":807,"x_min":94,"x_max":704,"o":"m 704 0 l 547 0 l 547 262 q 328 197 428 197 q 94 452 94 197 l 94 694 l 248 694 l 248 474 q 363 327 248 327 q 547 378 448 327 l 547 694 l 704 694 l 704 0 z "},"ш":{"ha":1149,"x_min":102,"x_max":1047,"o":"m 1047 0 l 102 0 l 102 694 l 260 694 l 260 120 l 496 120 l 496 694 l 654 694 l 654 120 l 889 120 l 889 694 l 1047 694 l 1047 0 z "},"щ":{"ha":1193,"x_min":102,"x_max":1154,"o":"m 1154 -253 l 1023 -253 l 1023 0 l 102 0 l 102 694 l 260 694 l 260 120 l 496 120 l 496 694 l 654 694 l 654 120 l 890 120 l 890 694 l 1048 694 l 1048 120 l 1154 120 l 1154 -253 z "},"ъ":{"ha":857,"x_min":19,"x_max":806,"o":"m 223 0 l 223 569 l 19 569 l 19 694 l 382 694 l 382 438 l 572 438 q 743 382 680 438 q 806 224 806 326 q 737 60 806 120 q 562 0 667 0 l 223 0 m 382 325 l 382 113 l 520 113 q 645 222 645 113 q 521 325 645 325 l 382 325 z "},"ы":{"ha":1051,"x_min":102,"x_max":948,"o":"m 948 0 l 791 0 l 791 694 l 948 694 l 948 0 m 102 0 l 102 694 l 260 694 l 260 438 l 450 438 q 621 381 557 438 q 685 224 685 325 q 619 60 685 120 q 452 0 553 0 l 102 0 m 260 325 l 260 113 l 404 113 q 523 222 523 113 q 402 325 523 325 l 260 325 z "},"ь":{"ha":734,"x_min":102,"x_max":685,"o":"m 102 0 l 102 694 l 260 694 l 260 438 l 445 438 q 620 381 555 438 q 685 224 685 325 q 620 60 685 120 q 456 0 555 0 l 102 0 m 260 325 l 260 113 l 404 113 q 523 222 523 113 q 402 325 523 325 l 260 325 z "},"э":{"ha":652,"x_min":56,"x_max":597,"o":"m 56 30 l 56 156 q 231 102 132 102 q 376 153 321 102 q 437 292 432 205 l 158 292 l 158 401 l 437 401 q 374 541 430 490 q 227 591 319 591 q 63 541 132 591 l 63 673 q 241 711 139 711 q 505 614 413 711 q 597 342 597 517 q 503 81 597 178 q 249 -16 408 -16 q 56 30 138 -16 z "},"ю":{"ha":1173,"x_min":102,"x_max":1114,"o":"m 433 301 l 260 301 l 260 0 l 102 0 l 102 694 l 260 694 l 260 422 l 436 422 q 546 634 454 558 q 779 711 637 711 q 1026 618 939 711 q 1114 353 1114 525 q 1022 83 1114 182 q 766 -16 929 -16 q 526 67 612 -16 q 433 301 440 151 m 772 586 q 591 348 591 586 q 774 109 591 109 q 954 349 954 109 q 772 586 954 586 z "},"я":{"ha":739,"x_min":33,"x_max":637,"o":"m 637 0 l 481 0 l 481 275 l 400 275 q 294 170 342 275 l 212 0 l 33 0 l 143 206 q 256 312 190 286 q 129 371 173 323 q 85 493 85 420 q 160 640 85 586 q 359 694 234 694 l 637 694 l 637 0 m 481 383 l 481 581 l 372 581 q 245 484 245 581 q 370 383 245 383 l 481 383 z "},"ё":{"ha":738,"x_min":58,"x_max":690,"o":"m 690 304 l 217 304 q 276 156 220 208 q 432 104 333 104 q 636 170 543 104 l 636 43 q 385 -16 541 -16 q 145 78 232 -16 q 58 345 58 173 q 154 609 58 507 q 392 711 250 711 q 612 619 534 711 q 690 365 690 528 l 690 304 m 538 416 q 498 548 538 500 q 390 595 459 595 q 275 545 322 595 q 217 416 228 496 l 538 416 m 526 816 q 468 838 492 816 q 443 895 443 861 q 467 951 443 928 q 524 973 490 973 q 585 950 560 973 q 610 895 610 928 q 586 839 610 862 q 526 816 562 816 m 244 816 q 184 839 209 816 q 159 895 159 863 q 183 951 159 928 q 241 973 207 973 q 301 950 276 973 q 327 895 327 928 q 302 839 327 862 q 244 816 278 816 z "},"ђ":{"ha":827,"x_min":23,"x_max":747,"o":"m 338 -273 l 338 -140 q 418 -165 381 -165 q 547 -70 506 -165 q 588 252 588 26 q 435 566 588 566 q 320 512 367 566 q 273 378 273 458 l 273 0 l 116 0 l 116 808 l 23 808 l 23 907 l 117 906 l 117 1028 l 273 1028 l 273 907 l 498 907 l 498 808 l 273 808 l 273 568 l 276 568 q 488 694 347 694 q 747 256 747 694 q 668 -162 747 -32 q 424 -292 590 -292 q 338 -273 384 -292 z "},"ѓ":{"ha":549,"x_min":102,"x_max":519,"o":"m 519 569 l 260 569 l 260 0 l 102 0 l 102 694 l 519 694 l 519 569 m 499 1048 l 305 826 l 189 826 l 353 1048 l 499 1048 z "},"є":{"ha":653,"x_min":58,"x_max":597,"o":"m 597 30 q 401 -16 515 -16 q 150 79 242 -16 q 58 336 58 175 q 155 611 58 512 q 422 711 252 711 q 592 677 519 711 l 592 543 q 430 591 526 591 q 282 540 338 591 q 217 401 225 488 l 496 401 l 496 292 l 217 292 q 277 154 222 205 q 423 102 332 102 q 597 159 519 102 l 597 30 z "},"ѕ":{"ha":599,"x_min":59,"x_max":552,"o":"m 59 22 l 59 168 q 254 100 147 100 q 396 184 396 100 q 384 225 396 208 q 351 254 372 241 q 302 277 330 267 q 239 300 274 288 q 162 336 197 317 q 105 379 128 355 q 71 434 83 404 q 60 505 60 465 q 83 594 60 555 q 147 658 107 632 q 238 697 187 684 q 343 711 289 711 q 515 682 439 711 l 515 544 q 347 594 442 594 q 293 588 317 594 q 252 571 269 582 q 226 545 235 560 q 216 511 216 530 q 226 473 216 489 q 254 446 235 458 q 299 424 273 434 q 359 403 325 414 q 439 366 404 385 q 500 322 475 347 q 538 267 525 298 q 552 192 552 235 q 528 100 552 139 q 463 35 503 60 q 369 -4 422 9 q 256 -16 315 -16 q 59 22 142 -16 z "},"ї":{"ha":363,"x_min":-42,"x_max":409,"o":"m 260 0 l 102 0 l 102 694 l 260 694 l 260 0 m 326 816 q 267 838 292 816 q 242 895 242 861 q 266 951 242 928 q 323 973 290 973 q 384 950 359 973 q 409 895 409 928 q 385 839 409 862 q 326 816 361 816 m 43 816 q -17 839 8 816 q -42 895 -42 863 q -18 951 -42 928 q 41 973 6 973 q 101 950 75 973 q 126 895 126 928 q 102 839 126 862 q 43 816 77 816 z "},"љ":{"ha":1152,"x_min":11,"x_max":1102,"o":"m 519 0 l 519 574 l 377 574 q 275 122 347 252 q 81 -9 203 -9 q 11 2 40 -9 l 11 120 q 62 109 35 109 q 249 694 208 109 l 677 694 l 677 434 l 861 434 q 1037 378 972 434 q 1102 222 1102 322 q 1036 60 1102 120 q 869 0 969 0 l 519 0 m 677 319 l 677 114 l 814 114 q 940 220 940 114 q 814 319 940 319 l 677 319 z "},"њ":{"ha":1155,"x_min":102,"x_max":1101,"o":"m 518 0 l 518 311 l 260 311 l 260 0 l 102 0 l 102 694 l 260 694 l 260 431 l 518 431 l 518 694 l 676 694 l 676 431 l 861 431 q 1037 377 974 431 q 1101 222 1101 322 q 1035 59 1101 118 q 868 0 970 0 l 518 0 m 676 317 l 676 114 l 815 114 q 939 220 939 114 q 815 317 939 317 l 676 317 z "},"ћ":{"ha":819,"x_min":23,"x_max":732,"o":"m 732 0 l 576 0 l 576 378 q 437 567 576 567 q 320 514 367 567 q 273 375 273 460 l 273 0 l 116 0 l 116 808 l 23 808 l 23 907 l 116 907 l 116 1028 l 273 1028 l 273 907 l 498 907 l 498 808 l 273 808 l 273 569 l 276 569 q 498 695 355 695 q 732 412 732 695 l 732 0 z "},"ќ":{"ha":729,"x_min":102,"x_max":733,"o":"m 733 0 l 533 0 l 263 338 l 260 338 l 260 0 l 102 0 l 102 694 l 260 694 l 260 375 l 263 375 l 518 694 l 711 694 l 422 363 l 733 0 m 557 1048 l 363 826 l 247 826 l 411 1048 l 557 1048 z "},"ў":{"ha":706,"x_min":4,"x_max":704,"o":"m 704 694 l 391 -111 q 117 -327 293 -327 q 34 -318 67 -327 l 34 -187 q 102 -199 71 -199 q 233 -113 190 -199 l 280 1 l 4 694 l 178 694 l 344 190 q 356 140 347 180 l 359 140 q 372 189 363 155 l 545 694 l 704 694 m 627 1029 q 544 868 616 927 q 361 810 471 810 q 177 868 248 810 q 100 1029 106 927 l 231 1029 q 363 905 240 905 q 453 938 417 905 q 496 1029 488 970 l 627 1029 z "},"џ":{"ha":823,"x_min":102,"x_max":721,"o":"m 721 0 l 478 0 l 478 -253 l 347 -253 l 347 0 l 102 0 l 102 694 l 260 694 l 260 120 l 563 120 l 563 694 l 721 694 l 721 0 z "},"Ґ":{"ha":681,"x_min":120,"x_max":659,"o":"m 659 835 l 281 835 l 281 0 l 120 0 l 120 972 l 521 972 l 521 1148 l 659 1148 l 659 835 z "},"ґ":{"ha":570,"x_min":102,"x_max":531,"o":"m 531 570 l 260 570 l 260 0 l 102 0 l 102 694 l 400 694 l 400 871 l 531 871 l 531 570 z "},"―":{"ha":1389,"x_min":0,"x_max":1389,"o":"m 1389 321 l 0 321 l 0 437 l 1389 437 l 1389 321 z "},"№":{"ha":1609,"x_min":120,"x_max":1542,"o":"m 1270 410 q 1074 486 1144 410 q 1004 695 1004 562 q 1076 911 1004 836 q 1280 986 1148 986 q 1475 913 1407 986 q 1542 705 1542 840 q 1470 490 1542 570 q 1270 410 1397 410 m 1276 872 q 1177 826 1213 872 q 1142 697 1142 781 q 1274 525 1142 525 q 1403 700 1403 525 q 1276 872 1403 872 m 897 0 l 720 0 l 302 708 q 273 763 282 743 l 269 763 q 275 620 275 729 l 275 0 l 120 0 l 120 972 l 308 972 l 743 222 l 746 222 q 741 360 741 255 l 741 972 l 897 972 l 897 0 m 1521 191 l 1022 191 l 1022 308 l 1521 308 l 1521 191 z "},"π":{"ha":911,"x_min":9,"x_max":860,"o":"m 860 574 l 709 574 l 709 212 q 774 120 709 120 q 835 134 798 120 l 835 8 q 736 -10 785 -10 q 551 198 551 -10 l 551 574 l 331 574 l 331 180 q 307 0 331 57 l 146 0 q 174 180 174 56 l 174 574 q 9 515 91 572 l 9 648 q 186 694 64 694 l 860 694 l 860 574 z "},"Ș":{"ha":756,"x_min":75,"x_max":698,"o":"m 75 39 l 75 205 q 129 168 98 184 q 194 141 159 152 q 263 123 229 130 q 327 117 298 117 q 478 151 429 117 q 528 250 528 185 q 512 310 528 284 q 465 356 495 335 q 395 396 435 377 q 309 437 355 416 q 216 490 259 463 q 142 550 174 517 q 93 625 111 583 q 75 722 75 666 q 105 841 75 790 q 187 924 136 891 q 302 973 237 957 q 433 989 366 989 q 656 954 586 989 l 656 795 q 443 854 573 854 q 371 848 407 854 q 308 825 336 841 q 262 785 279 810 q 244 726 244 761 q 258 670 244 694 q 297 627 271 646 q 361 588 323 607 q 448 548 399 570 q 544 492 499 522 q 624 428 589 463 q 678 350 658 393 q 698 252 698 307 q 668 127 698 178 q 588 44 638 76 q 471 -2 537 12 q 332 -16 406 -16 q 272 -13 308 -16 q 199 -2 237 -9 q 129 16 162 5 q 75 39 96 26 m 458 -80 l 345 -285 l 239 -285 l 311 -80 l 458 -80 z "},"ș":{"ha":599,"x_min":59,"x_max":552,"o":"m 59 22 l 59 168 q 254 100 147 100 q 396 184 396 100 q 384 225 396 208 q 351 254 372 241 q 302 277 330 267 q 239 300 274 288 q 162 336 197 317 q 105 379 128 355 q 71 434 83 404 q 60 505 60 465 q 83 594 60 555 q 147 658 107 632 q 238 697 187 684 q 343 711 289 711 q 515 682 439 711 l 515 544 q 347 594 442 594 q 293 588 317 594 q 252 571 269 582 q 226 545 235 560 q 216 511 216 530 q 226 473 216 489 q 254 446 235 458 q 299 424 273 434 q 359 403 325 414 q 439 366 404 385 q 500 322 475 347 q 538 267 525 298 q 552 192 552 235 q 528 100 552 139 q 463 35 503 60 q 369 -4 422 9 q 256 -16 315 -16 q 59 22 142 -16 m 380 -80 l 267 -285 l 161 -285 l 233 -80 l 380 -80 z "},"¤":{"ha":772,"x_min":53,"x_max":719,"o":"m 719 241 l 642 161 l 547 256 q 387 208 476 208 q 223 254 294 208 l 130 161 l 53 241 l 148 334 q 99 492 99 409 q 148 650 99 578 l 53 743 l 130 823 l 226 729 q 387 778 300 778 q 546 729 473 778 l 642 823 l 719 743 l 625 650 q 675 492 675 575 q 625 334 675 411 l 719 241 m 387 668 q 262 616 313 668 q 211 493 211 565 q 262 370 211 421 q 387 318 314 318 q 511 370 458 318 q 563 493 563 421 q 510 616 563 565 q 387 668 457 668 z "},"Ơ":{"ha":1068,"x_min":58,"x_max":1090,"o":"m 787 920 q 842 913 820 913 q 980 1002 980 913 q 966 1084 980 1047 l 1076 1084 q 1090 993 1090 1047 q 1042 872 1090 918 q 912 825 995 825 l 889 825 q 992 498 992 695 q 864 122 992 260 q 519 -16 735 -16 q 184 120 310 -16 q 58 475 58 256 q 186 849 58 709 q 536 989 315 989 q 787 920 680 989 m 528 847 q 310 747 393 847 q 227 485 227 647 q 308 224 227 323 q 519 125 389 125 q 742 219 661 125 q 823 483 823 313 q 744 752 823 657 q 528 847 665 847 z "},"ơ":{"ha":850,"x_min":58,"x_max":833,"o":"m 710 865 l 819 865 q 833 774 833 828 q 682 612 833 640 q 772 350 772 518 q 674 84 772 184 q 411 -16 576 -16 q 154 81 250 -16 q 58 339 58 178 q 157 612 58 514 q 424 711 256 711 q 509 701 454 711 q 618 694 548 694 q 693 720 663 694 q 723 783 723 746 q 710 865 723 829 m 418 585 q 273 521 326 585 q 219 343 219 456 q 273 171 219 234 q 418 109 328 109 q 561 170 511 109 q 611 346 611 232 q 561 523 611 460 q 418 585 511 585 z "},"Ư":{"ha":1030,"x_min":108,"x_max":1057,"o":"m 868 406 q 479 -16 868 -16 q 108 393 108 -16 l 108 972 l 269 972 l 269 395 q 491 125 269 125 q 707 386 707 125 l 707 972 l 853 972 q 921 997 894 972 q 948 1054 948 1021 q 935 1143 948 1104 l 1044 1143 q 1057 1051 1057 1105 q 868 882 1057 903 l 868 406 z "},"ư":{"ha":867,"x_min":89,"x_max":879,"o":"m 708 0 l 551 0 l 551 108 l 548 108 q 332 -15 480 -15 q 89 280 89 -15 l 89 694 l 246 694 l 246 296 q 391 109 246 109 q 506 160 461 109 q 551 295 551 212 l 551 694 l 684 694 q 748 721 722 694 q 774 785 774 747 q 760 865 774 829 l 867 865 q 879 779 879 829 q 708 609 879 635 l 708 0 z "},"̉":{"ha":422,"x_min":109,"x_max":312,"o":"m 109 1065 q 166 1067 135 1067 q 271 1039 230 1067 q 312 963 312 1011 q 285 893 312 922 q 218 860 258 865 l 218 826 l 136 826 l 136 907 q 214 956 214 907 q 153 995 214 995 q 109 989 140 995 l 109 1065 z "},"̣":{"ha":463,"x_min":146,"x_max":314,"o":"m 231 -236 q 171 -213 196 -236 q 146 -157 146 -190 q 172 -103 146 -125 q 231 -81 197 -81 q 290 -103 265 -81 q 314 -157 314 -125 q 290 -213 314 -190 q 231 -236 265 -236 z "},"̀":{"ha":372,"x_min":50,"x_max":320,"o":"m 320 826 l 213 826 l 50 993 l 197 993 l 320 826 z "},"́":{"ha":372,"x_min":52,"x_max":323,"o":"m 52 826 l 174 993 l 323 993 l 161 826 l 52 826 z "},"Ạ":{"ha":932,"x_min":12,"x_max":919,"o":"m 919 0 l 742 0 l 654 248 l 272 248 l 188 0 l 12 0 l 376 972 l 557 972 l 919 0 m 612 379 l 477 767 q 464 828 471 786 l 461 828 q 448 767 455 789 l 314 379 l 612 379 m 475 -236 q 416 -213 441 -236 q 391 -157 391 -190 q 417 -103 391 -125 q 475 -81 442 -81 q 534 -103 510 -81 q 559 -157 559 -125 q 534 -213 559 -190 q 475 -236 510 -236 z "},"ạ":{"ha":725,"x_min":51,"x_max":635,"o":"m 635 0 l 483 0 l 483 109 l 480 109 q 269 -16 408 -16 q 109 39 167 -16 q 51 186 51 95 q 277 416 51 383 l 484 445 q 342 593 484 593 q 119 508 218 593 l 119 646 q 372 711 229 711 q 635 452 635 711 l 635 0 m 484 341 l 338 321 q 236 288 270 312 q 201 203 201 264 q 233 131 201 159 q 317 103 264 103 q 436 154 389 103 q 484 281 484 204 l 484 341 m 364 -236 q 305 -213 330 -236 q 280 -157 280 -190 q 306 -103 280 -125 q 364 -81 331 -81 q 423 -103 399 -81 q 448 -157 448 -125 q 423 -213 448 -190 q 364 -236 399 -236 z "},"Ả":{"ha":932,"x_min":12,"x_max":919,"o":"m 919 0 l 742 0 l 654 248 l 272 248 l 188 0 l 12 0 l 376 972 l 557 972 l 919 0 m 612 379 l 477 767 q 464 828 471 786 l 461 828 q 448 767 455 789 l 314 379 l 612 379 m 383 1302 q 441 1305 410 1305 q 546 1276 505 1305 q 587 1199 587 1247 q 560 1130 587 1158 q 493 1097 533 1102 l 493 1063 l 410 1063 l 410 1144 q 488 1192 488 1144 q 428 1232 488 1232 q 383 1226 414 1232 l 383 1302 z "},"ả":{"ha":725,"x_min":51,"x_max":635,"o":"m 635 0 l 483 0 l 483 109 l 480 109 q 269 -16 408 -16 q 109 39 167 -16 q 51 186 51 95 q 277 416 51 383 l 484 445 q 342 593 484 593 q 119 508 218 593 l 119 646 q 372 711 229 711 q 635 452 635 711 l 635 0 m 484 341 l 338 321 q 236 288 270 312 q 201 203 201 264 q 233 131 201 159 q 317 103 264 103 q 436 154 389 103 q 484 281 484 204 l 484 341 m 285 1065 q 342 1067 311 1067 q 447 1039 406 1067 q 488 963 488 1011 q 461 893 488 922 q 395 860 435 865 l 395 826 l 312 826 l 312 907 q 390 956 390 907 q 330 995 390 995 q 285 989 316 995 l 285 1065 z "},"Ấ":{"ha":932,"x_min":12,"x_max":919,"o":"m 919 0 l 742 0 l 654 248 l 272 248 l 188 0 l 12 0 l 376 972 l 557 972 l 919 0 m 612 379 l 477 767 q 464 828 471 786 l 461 828 q 448 767 455 789 l 314 379 l 612 379 m 616 1166 l 739 1333 l 887 1333 l 724 1166 l 616 1166 m 669 1063 l 562 1063 l 455 1160 l 350 1063 l 247 1063 l 397 1232 l 519 1232 l 669 1063 z "},"ấ":{"ha":725,"x_min":51,"x_max":799,"o":"m 635 0 l 483 0 l 483 109 l 480 109 q 269 -16 408 -16 q 109 39 167 -16 q 51 186 51 95 q 277 416 51 383 l 484 445 q 342 593 484 593 q 119 508 218 593 l 119 646 q 372 711 229 711 q 635 452 635 711 l 635 0 m 484 341 l 338 321 q 236 288 270 312 q 201 203 201 264 q 233 131 201 159 q 317 103 264 103 q 436 154 389 103 q 484 281 484 204 l 484 341 m 528 929 l 650 1096 l 799 1096 l 635 929 l 528 929 m 581 826 l 474 826 l 367 923 l 262 826 l 159 826 l 309 996 l 431 996 l 581 826 z "},"Ầ":{"ha":932,"x_min":12,"x_max":919,"o":"m 919 0 l 742 0 l 654 248 l 272 248 l 188 0 l 12 0 l 376 972 l 557 972 l 919 0 m 612 379 l 477 767 q 464 828 471 786 l 461 828 q 448 767 455 789 l 314 379 l 612 379 m 302 1166 l 195 1166 l 32 1333 l 180 1333 l 302 1166 m 250 1063 l 399 1232 l 522 1232 l 672 1063 l 569 1063 l 464 1160 l 356 1063 l 250 1063 z "}}}
